Lora-Bold.ufo
<glyph name="quotedbl" format="2">
  <advance width="326"/>
  <unicode hex="0022"/>
  <outline>
    <contour>
      <point x="194" y="491" type="line"/>
      <point x="274" y="491" type="line"/>
      <point x="283" y="716" type="line"/>
      <point x="186" y="716" type="line"/>
    </contour>
    <contour>
      <point x="51" y="491" type="line"/>
      <point x="131" y="491" type="line"/>
      <point x="140" y="716" type="line"/>
      <point x="43" y="716" type="line"/>
    </contour>
  </outline>
</glyph>
<glyph name="quotesingle" format="2">
  <advance width="188"/>
  <unicode hex="0027"/>
  <outline>
    <contour>
      <point x="52" y="491" type="line"/>
      <point x="137" y="491" type="line"/>
      <point x="146" y="716" type="line"/>
      <point x="42" y="716" type="line"/>
    </contour>
  </outline>
</glyph>
<glyph name="parenright" format="2">
  <advance width="296"/>
  <unicode hex="0029"/>
  <outline>
    <contour>
      <point x="47" y="-271" type="line"/>
      <point x="146" y="-180"/>
      <point x="272" y="28"/>
      <point x="272" y="250" type="curve" smooth="yes"/>
      <point x="272" y="472"/>
      <point x="146" y="669"/>
      <point x="46" y="760" type="curve"/>
      <point x="10" y="725" type="line"/>
      <point x="113" y="588"/>
      <point x="137" y="340"/>
      <point x="137" y="250" type="curve" smooth="yes"/>
      <point x="137" y="160"/>
      <point x="113" y="-99"/>
      <point x="10" y="-236" type="curve"/>
    </contour>
  </outline>
</glyph>
<glyph name="plus" format="2">
  <advance width="530"/>
  <unicode hex="002B"/>
  <outline>
    <contour>
      <point x="42" y="399" type="line"/>
      <point x="42" y="321" type="line"/>
      <point x="488" y="321" type="line"/>
      <point x="488" y="399" type="line"/>
    </contour>
    <contour>
      <point x="304" y="583" type="line"/>
      <point x="226" y="583" type="line"/>
      <point x="226" y="137" type="line"/>
      <point x="304" y="137" type="line"/>
    </contour>
  </outline>
</glyph>
<glyph name="comma" format="2">
  <advance width="250"/>
  <unicode hex="002C"/>
  <outline>
    <contour>
      <point x="116" y="-187" type="line"/>
      <point x="178" y="-110"/>
      <point x="208" y="-32"/>
      <point x="208" y="32" type="curve" smooth="yes"/>
      <point x="208" y="92"/>
      <point x="177" y="138"/>
      <point x="116" y="137" type="curve" smooth="yes"/>
      <point x="72" y="137"/>
      <point x="44" y="102"/>
      <point x="44" y="62" type="curve" smooth="yes"/>
      <point x="44" y="16"/>
      <point x="77" y="-4"/>
      <point x="113" y="-4" type="curve" smooth="yes"/>
      <point x="120" y="-4"/>
      <point x="125" y="-4"/>
      <point x="134" y="-1" type="curve"/>
      <point x="136" y="-59"/>
      <point x="98" y="-132"/>
      <point x="77" y="-159" type="curve"/>
    </contour>
  </outline>
</glyph>
<glyph name="period" format="2">
  <advance width="233"/>
  <unicode hex="002E"/>
  <outline>
    <contour>
      <point x="118" y="-16" type="curve" smooth="yes"/>
      <point x="161" y="-16"/>
      <point x="189" y="19"/>
      <point x="189" y="62" type="curve" smooth="yes"/>
      <point x="189" y="105"/>
      <point x="158" y="140"/>
      <point x="117" y="140" type="curve" smooth="yes"/>
      <point x="78" y="140"/>
      <point x="44" y="105"/>
      <point x="44" y="62" type="curve" smooth="yes"/>
      <point x="44" y="19"/>
      <point x="74" y="-16"/>
    </contour>
  </outline>
</glyph>
<glyph name="slash" format="2">
  <advance width="699"/>
  <unicode hex="002F"/>
  <outline>
    <contour>
      <point x="103" y="-271" type="line"/>
      <point x="674" y="697" type="line"/>
      <point x="583" y="755" type="line"/>
      <point x="25" y="-220" type="line"/>
    </contour>
  </outline>
</glyph>
<glyph name="four" format="2">
  <advance width="547"/>
  <unicode hex="0034"/>
  <outline>
    <contour>
      <point x="416" y="164" type="curve" smooth="yes"/>
      <point x="416" y="181" type="line"/>
      <point x="514" y="181" type="line"/>
      <point x="514" y="271" type="line"/>
      <point x="416" y="271" type="line"/>
      <point x="416" y="716" type="line"/>
      <point x="355" y="716" type="line"/>
      <point x="12" y="275" type="line"/>
      <point x="12" y="181" type="line"/>
      <point x="283" y="181" type="line"/>
      <point x="283" y="153" type="line" smooth="yes"/>
      <point x="283" y="72"/>
      <point x="253" y="66"/>
      <point x="208" y="66" type="curve" smooth="yes"/>
      <point x="202" y="66" type="line"/>
      <point x="202" y="0" type="line"/>
      <point x="487" y="0" type="line"/>
      <point x="487" y="77" type="line"/>
      <point x="473" y="77"/>
      <point x="434" y="76"/>
      <point x="412" y="74" type="curve"/>
      <point x="415" y="91"/>
      <point x="416" y="128"/>
    </contour>
    <contour>
      <point x="282" y="506" type="line"/>
      <point x="284" y="506" type="line"/>
      <point x="283" y="273" type="line"/>
      <point x="105" y="274" type="line"/>
    </contour>
  </outline>
</glyph>
<glyph name="seven" format="2">
  <advance width="469"/>
  <unicode hex="0037"/>
  <outline>
    <contour>
      <point x="200" y="-16" type="curve" smooth="yes"/>
      <point x="239" y="-17"/>
      <point x="262" y="23"/>
      <point x="271" y="60" type="curve" smooth="yes"/>
      <point x="324" y="272"/>
      <point x="358" y="425"/>
      <point x="448" y="609" type="curve"/>
      <point x="448" y="700" type="line"/>
      <point x="22" y="700" type="line"/>
      <point x="15" y="530" type="line"/>
      <point x="78" y="530" type="line"/>
      <point x="78" y="585"/>
      <point x="108" y="602"/>
      <point x="154" y="601" type="curve" smooth="yes"/>
      <point x="364" y="599" type="line"/>
      <point x="291" y="429"/>
      <point x="242" y="315"/>
      <point x="209" y="236" type="curve" smooth="yes"/>
      <point x="177" y="161"/>
      <point x="144" y="81"/>
      <point x="144" y="42" type="curve" smooth="yes"/>
      <point x="144" y="13"/>
      <point x="159" y="-16"/>
    </contour>
  </outline>
</glyph>
<glyph name="less" format="2">
  <advance width="530"/>
  <unicode hex="003C"/>
  <outline>
    <contour>
      <point x="490" y="72" type="line"/>
      <point x="490" y="173" type="line"/>
      <point x="169" y="315" type="line"/>
      <point x="490" y="457" type="line"/>
      <point x="490" y="557" type="line"/>
      <point x="40" y="357" type="line"/>
      <point x="40" y="268" type="line"/>
    </contour>
  </outline>
</glyph>
<glyph name="equal" format="2">
  <advance width="530"/>
  <unicode hex="003D"/>
  <outline>
    <contour>
      <point x="42" y="493" type="line"/>
      <point x="42" y="415" type="line"/>
      <point x="488" y="415" type="line"/>
      <point x="488" y="493" type="line"/>
    </contour>
    <contour>
      <point x="42" y="315" type="line"/>
      <point x="42" y="237" type="line"/>
      <point x="488" y="237" type="line"/>
      <point x="488" y="315" type="line"/>
    </contour>
  </outline>
</glyph>
<glyph name="E" format="2">
  <advance width="624"/>
  <unicode hex="0045"/>
  <anchor x="383" y="0" name="bottom"/>
  <anchor x="562" y="5" name="ogonek"/>
  <anchor x="324" y="700" name="top"/>
  <anchor x="20" y="700" name="topleft"/>
  <outline>
    <contour>
      <point x="390" y="241" type="curve"/>
      <point x="456" y="241" type="line"/>
      <point x="456" y="484" type="line"/>
      <point x="379" y="484" type="line"/>
      <point x="383" y="397" type="line"/>
      <point x="266" y="397" type="line"/>
      <point x="266" y="547" type="line" smooth="yes"/>
      <point x="266" y="625"/>
      <point x="291" y="633"/>
      <point x="333" y="634" type="curve" smooth="yes"/>
      <point x="369" y="635" type="line" smooth="yes"/>
      <point x="423" y="637"/>
      <point x="490" y="615"/>
      <point x="490" y="506" type="curve"/>
      <point x="556" y="506" type="line"/>
      <point x="550" y="700" type="line"/>
      <point x="50" y="700" type="line"/>
      <point x="50" y="623" type="line"/>
      <point x="64" y="624"/>
      <point x="104" y="625"/>
      <point x="125" y="626" type="curve"/>
      <point x="123" y="609"/>
      <point x="121" y="572"/>
      <point x="121" y="536" type="curve" smooth="yes"/>
      <point x="121" y="153" type="line" smooth="yes"/>
      <point x="121" y="72"/>
      <point x="95" y="68"/>
      <point x="50" y="66" type="curve"/>
      <point x="50" y="0" type="line"/>
      <point x="578" y="0" type="line"/>
      <point x="583" y="220" type="line"/>
      <point x="518" y="220" type="line"/>
      <point x="518" y="112"/>
      <point x="455" y="76"/>
      <point x="396" y="76" type="curve" smooth="yes"/>
      <point x="262" y="76" type="line"/>
      <point x="264" y="93"/>
      <point x="266" y="128"/>
      <point x="266" y="164" type="curve" smooth="yes"/>
      <point x="266" y="328" type="line"/>
      <point x="292" y="329" type="line" smooth="yes"/>
      <point x="346" y="330"/>
      <point x="390" y="325"/>
    </contour>
  </outline>
</glyph>
<glyph name="W" format="2">
  <advance width="1016"/>
  <unicode hex="0057"/>
  <anchor x="529" y="700" name="top"/>
  <outline>
    <contour>
      <point x="273" y="-6" type="line"/>
      <point x="360" y="-6" type="line"/>
      <point x="474" y="369" type="line" smooth="yes"/>
      <point x="487" y="414"/>
      <point x="496" y="454"/>
      <point x="503" y="500" type="curve"/>
      <point x="514" y="454"/>
      <point x="523" y="404"/>
      <point x="541" y="352" type="curve" smooth="yes"/>
      <point x="659" y="-6" type="line"/>
      <point x="748" y="-6" type="line"/>
      <point x="802" y="172"/>
      <point x="857" y="349"/>
      <point x="911" y="527" type="curve" smooth="yes"/>
      <point x="937" y="605"/>
      <point x="972" y="632"/>
      <point x="1017" y="634" type="curve"/>
      <point x="1017" y="700" type="line"/>
      <point x="792" y="700" type="line"/>
      <point x="792" y="623" type="line"/>
      <point x="806" y="624"/>
      <point x="847" y="625"/>
      <point x="869" y="626" type="curve"/>
      <point x="849" y="604"/>
      <point x="836" y="567"/>
      <point x="828" y="535" type="curve" smooth="yes"/>
      <point x="809" y="465"/>
      <point x="791" y="396"/>
      <point x="772" y="326" type="curve" smooth="yes"/>
      <point x="759" y="277"/>
      <point x="746" y="231"/>
      <point x="734" y="188" type="curve"/>
      <point x="733" y="188" type="line"/>
      <point x="722" y="237"/>
      <point x="711" y="286"/>
      <point x="697" y="332" type="curve" smooth="yes"/>
      <point x="659" y="455"/>
      <point x="621" y="577"/>
      <point x="583" y="700" type="curve"/>
      <point x="493" y="700" type="line"/>
      <point x="462" y="598"/>
      <point x="431" y="496"/>
      <point x="400" y="394" type="curve" smooth="yes"/>
      <point x="392" y="365"/>
      <point x="353" y="226"/>
      <point x="343" y="189" type="curve"/>
      <point x="342" y="189" type="line"/>
      <point x="330" y="253"/>
      <point x="321" y="285"/>
      <point x="309" y="331" type="curve" smooth="yes"/>
      <point x="289" y="407"/>
      <point x="269" y="483"/>
      <point x="249" y="559" type="curve" smooth="yes"/>
      <point x="231" y="620"/>
      <point x="258" y="635"/>
      <point x="308" y="634" type="curve"/>
      <point x="308" y="700" type="line"/>
      <point x="13" y="700" type="line"/>
      <point x="13" y="623" type="line"/>
      <point x="30" y="624"/>
      <point x="49" y="625"/>
      <point x="74" y="626" type="curve"/>
      <point x="74" y="604"/>
      <point x="82" y="571"/>
      <point x="95" y="533" type="curve" smooth="yes"/>
    </contour>
  </outline>
</glyph>
<glyph name="Z" format="2">
  <advance width="604"/>
  <unicode hex="005A"/>
  <anchor x="314" y="700" name="top"/>
  <outline>
    <contour>
      <point x="40" y="0" type="line"/>
      <point x="555" y="0" type="line"/>
      <point x="561" y="214" type="line"/>
      <point x="495" y="214" type="line"/>
      <point x="495" y="105"/>
      <point x="443" y="65"/>
      <point x="369" y="66" type="curve" smooth="yes"/>
      <point x="186" y="70" type="line"/>
      <point x="216" y="106"/>
      <point x="244" y="147"/>
      <point x="272" y="189" type="curve" smooth="yes"/>
      <point x="560" y="625" type="line"/>
      <point x="560" y="700" type="line"/>
      <point x="51" y="700" type="line"/>
      <point x="45" y="487" type="line"/>
      <point x="111" y="487" type="line"/>
      <point x="111" y="595"/>
      <point x="164" y="637"/>
      <point x="238" y="635" type="curve" smooth="yes"/>
      <point x="409" y="629" type="line"/>
      <point x="384" y="599"/>
      <point x="364" y="569"/>
      <point x="339" y="531" type="curve" smooth="yes"/>
      <point x="239" y="379"/>
      <point x="140" y="227"/>
      <point x="40" y="75" type="curve"/>
    </contour>
  </outline>
</glyph>
<glyph name="bracketleft" format="2">
  <advance width="386"/>
  <unicode hex="005B"/>
  <outline>
    <contour>
      <point x="62" y="-255" type="line"/>
      <point x="385" y="-255" type="line"/>
      <point x="385" y="-184" type="line"/>
      <point x="188" y="-181" type="line"/>
      <point x="192" y="681" type="line"/>
      <point x="383" y="684" type="line"/>
      <point x="383" y="755" type="line"/>
      <point x="63" y="755" type="line"/>
    </contour>
  </outline>
</glyph>
<glyph name="e" format="2">
  <advance width="538"/>
  <unicode hex="0065"/>
  <anchor x="337" y="0" name="bottom"/>
  <anchor x="394" y="5" name="ogonek"/>
  <anchor x="284" y="500" name="top"/>
  <outline>
    <contour>
      <point x="278" y="-16" type="curve" smooth="yes"/>
      <point x="346" y="-16"/>
      <point x="439" y="3"/>
      <point x="511" y="106" type="curve"/>
      <point x="466" y="148" type="line"/>
      <point x="420" y="92"/>
      <point x="359" y="73"/>
      <point x="319" y="73" type="curve" smooth="yes"/>
      <point x="215" y="73"/>
      <point x="178" y="154"/>
      <point x="178" y="263" type="curve"/>
      <point x="506" y="269" type="line"/>
      <point x="508" y="462"/>
      <point x="392" y="516"/>
      <point x="281" y="516" type="curve" smooth="yes"/>
      <point x="130" y="516"/>
      <point x="31" y="389"/>
      <point x="31" y="249" type="curve" smooth="yes"/>
      <point x="31" y="87"/>
      <point x="131" y="-16"/>
    </contour>
    <contour>
      <point x="184" y="333" type="line"/>
      <point x="194" y="400"/>
      <point x="227" y="446"/>
      <point x="286" y="446" type="curve" smooth="yes"/>
      <point x="333" y="446"/>
      <point x="366" y="416"/>
      <point x="368" y="333" type="curve"/>
    </contour>
  </outline>
</glyph>
<glyph name="l" format="2">
  <advance width="312"/>
  <unicode hex="006C"/>
  <anchor x="194" y="0" name="bottom"/>
  <anchor x="156" y="700" name="top"/>
  <anchor x="302" y="500" name="topright"/>
  <outline>
    <contour>
      <point x="25" y="65" type="curve"/>
      <point x="25" y="0" type="line"/>
      <point x="287" y="0" type="line"/>
      <point x="287" y="76" type="line"/>
      <point x="273" y="76"/>
      <point x="244" y="75"/>
      <point x="222" y="73" type="curve"/>
      <point x="225" y="103"/>
      <point x="226" y="142"/>
      <point x="226" y="161" type="curve" smooth="yes"/>
      <point x="226" y="755" type="line"/>
      <point x="172" y="755" type="line"/>
      <point x="158" y="742"/>
      <point x="111" y="725"/>
      <point x="18" y="725" type="curve"/>
      <point x="18" y="649" type="line"/>
      <point x="32" y="650"/>
      <point x="67" y="651"/>
      <point x="88" y="652" type="curve"/>
      <point x="85" y="623"/>
      <point x="84" y="589"/>
      <point x="84" y="565" type="curve" smooth="yes"/>
      <point x="84" y="154" type="line" smooth="yes"/>
      <point x="84" y="101"/>
      <point x="81" y="65"/>
    </contour>
  </outline>
</glyph>
<glyph name="w" format="2">
  <advance width="811"/>
  <unicode hex="0077"/>
  <anchor x="418" y="500" name="top"/>
  <outline>
    <contour>
      <point x="193" y="-3" type="line"/>
      <point x="292" y="-3" type="line"/>
      <point x="347" y="162" type="line" smooth="yes"/>
      <point x="354" y="184"/>
      <point x="383" y="277"/>
      <point x="394" y="333" type="curve"/>
      <point x="405" y="291"/>
      <point x="422" y="232"/>
      <point x="429" y="210" type="curve" smooth="yes"/>
      <point x="498" y="-3" type="line"/>
      <point x="604" y="-3" type="line"/>
      <point x="718" y="328" type="line" smooth="yes"/>
      <point x="727" y="354"/>
      <point x="755" y="436"/>
      <point x="808" y="436" type="curve"/>
      <point x="808" y="500" type="line"/>
      <point x="618" y="500" type="line"/>
      <point x="618" y="424" type="line"/>
      <point x="675" y="428" type="line"/>
      <point x="663" y="404"/>
      <point x="657" y="384"/>
      <point x="646" y="348" type="curve" smooth="yes"/>
      <point x="607" y="221" type="line" smooth="yes"/>
      <point x="599" y="196"/>
      <point x="588" y="160"/>
      <point x="583" y="134" type="curve"/>
      <point x="576" y="161"/>
      <point x="567" y="196"/>
      <point x="559" y="224" type="curve" smooth="yes"/>
      <point x="479" y="500" type="line"/>
      <point x="370" y="500" type="line"/>
      <point x="297" y="249" type="line" smooth="yes"/>
      <point x="282" y="199"/>
      <point x="277" y="169"/>
      <point x="270" y="141" type="curve"/>
      <point x="265" y="173"/>
      <point x="257" y="207"/>
      <point x="249" y="236" type="curve" smooth="yes"/>
      <point x="215" y="358" type="line" smooth="yes"/>
      <point x="204" y="399"/>
      <point x="206" y="434"/>
      <point x="248" y="436" type="curve"/>
      <point x="248" y="500" type="line"/>
      <point x="8" y="500" type="line"/>
      <point x="8" y="424" type="line"/>
      <point x="47" y="426" type="line"/>
      <point x="52" y="402"/>
      <point x="54" y="395"/>
      <point x="72" y="344" type="curve" smooth="yes"/>
    </contour>
  </outline>
</glyph>
<glyph name="z" format="2">
  <advance width="514"/>
  <unicode hex="007A"/>
  <anchor x="267" y="500" name="top"/>
  <outline>
    <contour>
      <point x="35" y="0" type="line"/>
      <point x="466" y="0" type="line"/>
      <point x="481" y="196" type="line"/>
      <point x="419" y="196" type="line"/>
      <point x="409" y="125"/>
      <point x="388" y="67"/>
      <point x="325" y="69" type="curve" smooth="yes"/>
      <point x="184" y="73" type="line"/>
      <point x="202" y="89"/>
      <point x="221" y="108"/>
      <point x="240" y="134" type="curve" smooth="yes"/>
      <point x="463" y="437" type="line"/>
      <point x="463" y="500" type="line"/>
      <point x="58" y="500" type="line"/>
      <point x="44" y="307" type="line"/>
      <point x="106" y="307" type="line"/>
      <point x="116" y="376"/>
      <point x="135" y="432"/>
      <point x="181" y="433" type="curve" smooth="yes"/>
      <point x="316" y="435" type="line"/>
      <point x="311" y="429"/>
      <point x="287" y="404"/>
      <point x="265" y="375" type="curve" smooth="yes"/>
      <point x="35" y="72" type="line"/>
    </contour>
  </outline>
</glyph>
<glyph name="asciitilde" format="2">
  <advance width="530"/>
  <unicode hex="007E"/>
  <outline>
    <contour>
      <point x="369" y="201" type="curve" smooth="yes"/>
      <point x="421" y="201"/>
      <point x="460" y="223"/>
      <point x="488" y="253" type="curve"/>
      <point x="488" y="371" type="line"/>
      <point x="453" y="340"/>
      <point x="409" y="320"/>
      <point x="361" y="324" type="curve" smooth="yes"/>
      <point x="289" y="330"/>
      <point x="273" y="399"/>
      <point x="170" y="399" type="curve" smooth="yes"/>
      <point x="118" y="399"/>
      <point x="85" y="380"/>
      <point x="43" y="346" type="curve"/>
      <point x="43" y="228" type="line"/>
      <point x="79" y="254"/>
      <point x="112" y="276"/>
      <point x="166" y="276" type="curve" smooth="yes"/>
      <point x="246" y="276"/>
      <point x="268" y="201"/>
    </contour>
  </outline>
</glyph>
<glyph name="cent" format="2">
  <advance width="565"/>
  <unicode hex="00A2"/>
  <outline>
    <contour>
      <point x="257" y="-137" type="line"/>
      <point x="340" y="-137" type="line"/>
      <point x="341" y="-13" type="line"/>
      <point x="402" y="-4"/>
      <point x="466" y="24"/>
      <point x="525" y="105" type="curve"/>
      <point x="479" y="150" type="line"/>
      <point x="442" y="102"/>
      <point x="385" y="71"/>
      <point x="329" y="73" type="curve" smooth="yes"/>
      <point x="231" y="77"/>
      <point x="197" y="168"/>
      <point x="197" y="268" type="curve" smooth="yes"/>
      <point x="197" y="381"/>
      <point x="243" y="442"/>
      <point x="307" y="446" type="curve" smooth="yes"/>
      <point x="325" y="447"/>
      <point x="365" y="442"/>
      <point x="380" y="413" type="curve"/>
      <point x="372" y="399"/>
      <point x="368" y="381"/>
      <point x="368" y="369" type="curve" smooth="yes"/>
      <point x="368" y="341"/>
      <point x="385" y="303"/>
      <point x="436" y="304" type="curve" smooth="yes"/>
      <point x="479" y="305"/>
      <point x="503" y="340"/>
      <point x="503" y="379" type="curve" smooth="yes"/>
      <point x="503" y="442"/>
      <point x="451" y="503"/>
      <point x="347" y="514" type="curve"/>
      <point x="348" y="626" type="line"/>
      <point x="259" y="626" type="line"/>
      <point x="260" y="512" type="line"/>
      <point x="133" y="486"/>
      <point x="51" y="372"/>
      <point x="51" y="239" type="curve" smooth="yes"/>
      <point x="51" y="93"/>
      <point x="141" y="4"/>
      <point x="257" y="-13" type="curve"/>
    </contour>
  </outline>
</glyph>
<glyph name="brokenbar" format="2">
  <advance width="248"/>
  <unicode hex="00A6"/>
  <outline>
    <contour>
      <point x="70" y="375" type="line"/>
      <point x="176" y="375" type="line"/>
      <point x="180" y="760" type="line"/>
      <point x="67" y="760" type="line"/>
    </contour>
    <contour>
      <point x="70" y="-271" type="line"/>
      <point x="176" y="-271" type="line"/>
      <point x="180" y="113" type="line"/>
      <point x="67" y="113" type="line"/>
    </contour>
  </outline>
</glyph>
<glyph name="copyright" format="2">
  <advance width="915"/>
  <unicode hex="00A9"/>
  <outline>
    <contour>
      <point x="459" y="-71" type="curve" smooth="yes"/>
      <point x="688" y="-71"/>
      <point x="869" y="112"/>
      <point x="869" y="339" type="curve" smooth="yes"/>
      <point x="869" y="567"/>
      <point x="702" y="755"/>
      <point x="461" y="755" type="curve" smooth="yes"/>
      <point x="223" y="755"/>
      <point x="46" y="568"/>
      <point x="46" y="340" type="curve" smooth="yes"/>
      <point x="46" y="103"/>
      <point x="214" y="-71"/>
    </contour>
    <contour>
      <point x="462" y="-14" type="curve" smooth="yes"/>
      <point x="250" y="-14"/>
      <point x="117" y="147"/>
      <point x="117" y="340" type="curve" smooth="yes"/>
      <point x="117" y="533"/>
      <point x="255" y="697"/>
      <point x="459" y="697" type="curve" smooth="yes"/>
      <point x="666" y="697"/>
      <point x="799" y="533"/>
      <point x="799" y="340" type="curve" smooth="yes"/>
      <point x="799" y="147"/>
      <point x="669" y="-14"/>
    </contour>
    <contour>
      <point x="466" y="94" type="curve" smooth="yes"/>
      <point x="523" y="94"/>
      <point x="612" y="118"/>
      <point x="679" y="209" type="curve"/>
      <point x="631" y="254" type="line"/>
      <point x="592" y="205"/>
      <point x="542" y="180"/>
      <point x="494" y="181" type="curve" smooth="yes"/>
      <point x="401" y="183"/>
      <point x="346" y="259"/>
      <point x="346" y="349" type="curve" smooth="yes"/>
      <point x="346" y="449"/>
      <point x="402" y="521"/>
      <point x="473" y="521" type="curve" smooth="yes"/>
      <point x="526" y="521"/>
      <point x="575" y="491"/>
      <point x="585" y="411" type="curve"/>
      <point x="652" y="411" type="line"/>
      <point x="652" y="586" type="line"/>
      <point x="576" y="586" type="line"/>
      <point x="577" y="555" type="line"/>
      <point x="542" y="580"/>
      <point x="507" y="588"/>
      <point x="467" y="590" type="curve" smooth="yes"/>
      <point x="305" y="596"/>
      <point x="227" y="456"/>
      <point x="227" y="338" type="curve" smooth="yes"/>
      <point x="227" y="201"/>
      <point x="328" y="94"/>
    </contour>
  </outline>
</glyph>
<glyph name="logicalnot" format="2">
  <advance width="530"/>
  <unicode hex="00AC"/>
  <outline>
    <contour>
      <point x="398" y="149" type="line"/>
      <point x="486" y="149" type="line"/>
      <point x="486" y="359" type="line"/>
      <point x="36" y="362" type="line"/>
      <point x="36" y="264" type="line"/>
      <point x="395" y="266" type="line"/>
    </contour>
  </outline>
</glyph>
<glyph name="macron" format="2">
  <advance width="374"/>
  <unicode hex="00AF"/>
  <anchor x="187" y="500" name="_top"/>
  <outline>
    <contour>
      <point x="45" y="627" type="line"/>
      <point x="329" y="631" type="line"/>
      <point x="329" y="723" type="line"/>
      <point x="45" y="723" type="line"/>
    </contour>
  </outline>
</glyph>
<glyph name="acute" format="2">
  <advance width="282"/>
  <unicode hex="00B4"/>
  <anchor x="141" y="500" name="_top"/>
  <outline>
    <contour>
      <point x="90" y="565" type="line"/>
      <point x="211" y="671" type="line" smooth="yes"/>
      <point x="238" y="696"/>
      <point x="251" y="741"/>
      <point x="220" y="770" type="curve" smooth="yes"/>
      <point x="188" y="795"/>
      <point x="147" y="779"/>
      <point x="126" y="746" type="curve" smooth="yes"/>
      <point x="44" y="606" type="line"/>
    </contour>
  </outline>
</glyph>
<glyph name="onesuperior" format="2">
  <advance width="278"/>
  <unicode hex="00B9"/>
  <outline>
    <contour>
      <point x="64" y="301" type="line"/>
      <point x="243" y="301" type="line"/>
      <point x="243" y="345" type="line"/>
      <point x="234" y="345"/>
      <point x="212" y="345"/>
      <point x="200" y="344" type="curve"/>
      <point x="201" y="354"/>
      <point x="202" y="375"/>
      <point x="202" y="395" type="curve" smooth="yes"/>
      <point x="202" y="716" type="line"/>
      <point x="167" y="716" type="line"/>
      <point x="21" y="621" type="line"/>
      <point x="41" y="582" type="line"/>
      <point x="104" y="619" type="line"/>
      <point x="104" y="389" type="line" smooth="yes"/>
      <point x="104" y="343"/>
      <point x="90" y="340"/>
      <point x="64" y="339" type="curve"/>
    </contour>
  </outline>
</glyph>
<glyph name="Hbar" format="2">
  <advance width="807"/>
  <unicode hex="0126"/>
  <outline>
    <contour>
      <point x="51" y="485" type="line"/>
      <point x="756" y="489" type="line"/>
      <point x="756" y="538" type="line"/>
      <point x="51" y="538" type="line"/>
    </contour>
    <component base="H"/>
  </outline>
</glyph>
<glyph name="Lcaron" format="2">
  <advance width="604"/>
  <unicode hex="013D"/>
  <outline>
    <contour>
      <point x="50" y="0" type="line"/>
      <point x="583" y="0" type="line"/>
      <point x="589" y="240" type="line"/>
      <point x="522" y="240" type="line"/>
      <point x="522" y="131"/>
      <point x="475" y="77"/>
      <point x="396" y="76" type="curve" smooth="yes"/>
      <point x="262" y="76" type="line"/>
      <point x="264" y="93"/>
      <point x="266" y="128"/>
      <point x="266" y="164" type="curve" smooth="yes"/>
      <point x="266" y="547" type="line" smooth="yes"/>
      <point x="266" y="628"/>
      <point x="292" y="632"/>
      <point x="337" y="634" type="curve"/>
      <point x="337" y="700" type="line"/>
      <point x="50" y="700" type="line"/>
      <point x="50" y="623" type="line"/>
      <point x="64" y="624"/>
      <point x="104" y="625"/>
      <point x="125" y="626" type="curve"/>
      <point x="123" y="609"/>
      <point x="121" y="572"/>
      <point x="121" y="536" type="curve" smooth="yes"/>
      <point x="121" y="153" type="line" smooth="yes"/>
      <point x="121" y="72"/>
      <point x="95" y="68"/>
      <point x="50" y="66" type="curve"/>
    </contour>
    <contour>
      <point x="451" y="475" type="line"/>
      <point x="496" y="519"/>
      <point x="536" y="577"/>
      <point x="541" y="633" type="curve" smooth="yes"/>
      <point x="544" y="659"/>
      <point x="541" y="674"/>
      <point x="528" y="700" type="curve"/>
      <point x="439" y="717" type="line"/>
      <point x="456" y="653"/>
      <point x="461" y="594"/>
      <point x="412" y="504" type="curve"/>
    </contour>
  </outline>
</glyph>
<glyph name="lcaron" format="2">
  <advance width="396"/>
  <unicode hex="013E"/>
  <outline>
    <contour>
      <point x="25" y="65" type="curve"/>
      <point x="25" y="0" type="line"/>
      <point x="287" y="0" type="line"/>
      <point x="287" y="76" type="line"/>
      <point x="222" y="73" type="line"/>
      <point x="225" y="103"/>
      <point x="226" y="142"/>
      <point x="226" y="161" type="curve" smooth="yes"/>
      <point x="226" y="755" type="line"/>
      <point x="172" y="755" type="line"/>
      <point x="158" y="742"/>
      <point x="111" y="725"/>
      <point x="18" y="725" type="curve"/>
      <point x="18" y="649" type="line"/>
      <point x="88" y="652" type="line"/>
      <point x="85" y="623"/>
      <point x="84" y="589"/>
      <point x="84" y="565" type="curve" smooth="yes"/>
      <point x="84" y="154" type="line" smooth="yes"/>
      <point x="84" y="101"/>
      <point x="81" y="65"/>
    </contour>
    <contour>
      <point x="313" y="533" type="line"/>
      <point x="360" y="579"/>
      <point x="404" y="642"/>
      <point x="404" y="708" type="curve" smooth="yes"/>
      <point x="404" y="725"/>
      <point x="400" y="738"/>
      <point x="390" y="758" type="curve"/>
      <point x="301" y="775" type="line"/>
      <point x="318" y="711"/>
      <point x="323" y="652"/>
      <point x="274" y="562" type="curve"/>
    </contour>
  </outline>
</glyph>
<glyph name="Lslash" format="2">
  <advance width="605"/>
  <unicode hex="0141"/>
  <outline>
    <contour>
      <point x="45" y="177" type="line"/>
      <point x="436" y="469" type="line"/>
      <point x="436" y="582" type="line"/>
      <point x="45" y="292" type="line"/>
    </contour>
    <component base="L"/>
  </outline>
</glyph>
<glyph name="lslash" format="2">
  <advance width="334"/>
  <unicode hex="0142"/>
  <outline>
    <contour>
      <point x="17" y="201" type="line"/>
      <point x="339" y="431" type="line"/>
      <point x="339" y="541" type="line"/>
      <point x="17" y="314" type="line"/>
    </contour>
    <component base="l" xOffset="20"/>
  </outline>
</glyph>
<glyph name="eng" format="2">
  <advance width="616"/>
  <unicode hex="014B"/>
  <outline>
    <contour>
      <point x="344" y="-271" type="curve" smooth="yes"/>
      <point x="464" y="-271"/>
      <point x="556" y="-183"/>
      <point x="556" y="2" type="curve" smooth="yes"/>
      <point x="556" y="295" type="line" smooth="yes"/>
      <point x="556" y="449"/>
      <point x="509" y="516"/>
      <point x="387" y="516" type="curve" smooth="yes"/>
      <point x="347" y="516"/>
      <point x="282" y="491"/>
      <point x="243" y="460" type="curve"/>
      <point x="237" y="487"/>
      <point x="241" y="484"/>
      <point x="237" y="510" type="curve"/>
      <point x="188" y="510" type="line"/>
      <point x="174" y="497"/>
      <point x="126" y="480"/>
      <point x="34" y="480" type="curve"/>
      <point x="34" y="404" type="line"/>
      <point x="48" y="405"/>
      <point x="83" y="406"/>
      <point x="104" y="407" type="curve"/>
      <point x="101" y="377"/>
      <point x="100" y="346"/>
      <point x="100" y="322" type="curve" smooth="yes"/>
      <point x="100" y="154" type="line" smooth="yes"/>
      <point x="100" y="101"/>
      <point x="96" y="65"/>
      <point x="41" y="65" type="curve"/>
      <point x="41" y="0" type="line"/>
      <point x="303" y="0" type="line"/>
      <point x="303" y="76" type="line"/>
      <point x="289" y="76"/>
      <point x="259" y="75"/>
      <point x="238" y="73" type="curve"/>
      <point x="241" y="103"/>
      <point x="242" y="142"/>
      <point x="242" y="161" type="curve" smooth="yes"/>
      <point x="242" y="319" type="line"/>
      <point x="242" y="342"/>
      <point x="242" y="364"/>
      <point x="242" y="387" type="curve"/>
      <point x="264" y="407"/>
      <point x="300" y="424"/>
      <point x="333" y="424" type="curve" smooth="yes"/>
      <point x="392" y="424"/>
      <point x="414" y="383"/>
      <point x="414" y="296" type="curve" smooth="yes"/>
      <point x="416" y="-126" type="line" smooth="yes"/>
      <point x="416" y="-155"/>
      <point x="411" y="-201"/>
      <point x="374" y="-201" type="curve" smooth="yes"/>
      <point x="369" y="-201"/>
      <point x="360" y="-199"/>
      <point x="357" y="-197" type="curve"/>
      <point x="358" y="-191"/>
      <point x="359" y="-185"/>
      <point x="359" y="-180" type="curve" smooth="yes"/>
      <point x="359" y="-145"/>
      <point x="334" y="-120"/>
      <point x="298" y="-121" type="curve" smooth="yes"/>
      <point x="258" y="-122"/>
      <point x="235" y="-154"/>
      <point x="235" y="-189" type="curve" smooth="yes"/>
      <point x="235" y="-230"/>
      <point x="269" y="-271"/>
    </contour>
  </outline>
</glyph>
<glyph name="Tbar" format="2">
  <advance width="650"/>
  <unicode hex="0166"/>
  <outline>
    <contour>
      <point x="120" y="311" type="line"/>
      <point x="525" y="315" type="line"/>
      <point x="525" y="364" type="line"/>
      <point x="120" y="364" type="line"/>
    </contour>
    <component base="T"/>
  </outline>
</glyph>
<glyph name="longs" format="2">
  <advance width="369"/>
  <unicode hex="017F"/>
  <outline>
    <contour>
      <point x="43" y="0" type="line"/>
      <point x="310" y="0" type="line"/>
      <point x="310" y="76" type="line"/>
      <point x="296" y="76"/>
      <point x="262" y="75"/>
      <point x="240" y="73" type="curve"/>
      <point x="243" y="103"/>
      <point x="244" y="144"/>
      <point x="244" y="163" type="curve"/>
      <point x="242" y="623" type="line"/>
      <point x="242" y="652"/>
      <point x="249" y="684"/>
      <point x="282" y="685" type="curve" smooth="yes"/>
      <point x="288" y="685"/>
      <point x="298" y="684"/>
      <point x="305" y="677" type="curve"/>
      <point x="303" y="670"/>
      <point x="303" y="664"/>
      <point x="303" y="657" type="curve" smooth="yes"/>
      <point x="303" y="623"/>
      <point x="325" y="599"/>
      <point x="364" y="600" type="curve" smooth="yes"/>
      <point x="404" y="601"/>
      <point x="426" y="632"/>
      <point x="426" y="667" type="curve" smooth="yes"/>
      <point x="426" y="708"/>
      <point x="393" y="755"/>
      <point x="299" y="755" type="curve" smooth="yes"/>
      <point x="179" y="755"/>
      <point x="103" y="690"/>
      <point x="103" y="529" type="curve" smooth="yes"/>
      <point x="103" y="500" type="line"/>
      <point x="30" y="500" type="line"/>
      <point x="30" y="417" type="line"/>
      <point x="103" y="418" type="line"/>
      <point x="103" y="154" type="line" smooth="yes"/>
      <point x="103" y="101"/>
      <point x="99" y="65"/>
      <point x="43" y="65" type="curve"/>
    </contour>
  </outline>
</glyph>
<glyph name="florin" format="2">
  <advance width="363"/>
  <unicode hex="0192"/>
  <outline>
    <contour>
      <point x="1" y="-271" type="curve" smooth="yes"/>
      <point x="169" y="-271"/>
      <point x="200" y="-56"/>
      <point x="213" y="151" type="curve" smooth="yes"/>
      <point x="222" y="275"/>
      <point x="225" y="346"/>
      <point x="229" y="420" type="curve"/>
      <point x="362" y="423" type="line"/>
      <point x="362" y="500" type="line"/>
      <point x="234" y="500" type="line"/>
      <point x="240" y="581"/>
      <point x="244" y="687"/>
      <point x="285" y="687" type="curve" smooth="yes"/>
      <point x="292" y="687"/>
      <point x="298" y="685"/>
      <point x="303" y="682" type="curve"/>
      <point x="295" y="639"/>
      <point x="322" y="605"/>
      <point x="362" y="605" type="curve" smooth="yes"/>
      <point x="399" y="605"/>
      <point x="423" y="637"/>
      <point x="423" y="672" type="curve" smooth="yes"/>
      <point x="423" y="711"/>
      <point x="393" y="760"/>
      <point x="310" y="760" type="curve" smooth="yes"/>
      <point x="181" y="760"/>
      <point x="136" y="638"/>
      <point x="116" y="500" type="curve"/>
      <point x="23" y="500" type="line"/>
      <point x="23" y="417" type="line"/>
      <point x="107" y="418" type="line"/>
      <point x="101" y="389"/>
      <point x="94" y="218"/>
      <point x="90" y="140" type="curve" smooth="yes"/>
      <point x="81" y="5"/>
      <point x="77" y="-198"/>
      <point x="25" y="-198" type="curve" smooth="yes"/>
      <point x="19" y="-198"/>
      <point x="13" y="-196"/>
      <point x="7" y="-193" type="curve"/>
      <point x="15" y="-150"/>
      <point x="-11" y="-116"/>
      <point x="-51" y="-116" type="curve" smooth="yes"/>
      <point x="-89" y="-116"/>
      <point x="-113" y="-148"/>
      <point x="-113" y="-183" type="curve" smooth="yes"/>
      <point x="-113" y="-223"/>
      <point x="-83" y="-271"/>
    </contour>
  </outline>
</glyph>
<glyph name="gstroke" format="2">
  <advance width="581"/>
  <unicode hex="01E5"/>
  <outline>
    <contour>
      <point x="256" y="-115" type="line"/>
      <point x="561" y="-111" type="line"/>
      <point x="561" y="-62" type="line"/>
      <point x="256" y="-62" type="line"/>
    </contour>
    <component base="de-cy.loclBGR"/>
  </outline>
</glyph>
<glyph name="jdotless" format="2">
  <advance width="284"/>
  <unicode hex="0237"/>
  <anchor x="284" y="-276" name="bottom"/>
  <anchor x="159" y="500" name="top"/>
  <outline>
    <contour>
      <point x="21" y="-271" type="curve" smooth="yes"/>
      <point x="141" y="-271"/>
      <point x="232" y="-183"/>
      <point x="232" y="2" type="curve" smooth="yes"/>
      <point x="232" y="510" type="line"/>
      <point x="178" y="510" type="line"/>
      <point x="164" y="497"/>
      <point x="117" y="480"/>
      <point x="24" y="480" type="curve"/>
      <point x="24" y="404" type="line"/>
      <point x="38" y="405"/>
      <point x="73" y="406"/>
      <point x="94" y="407" type="curve"/>
      <point x="91" y="377"/>
      <point x="90" y="344"/>
      <point x="90" y="320" type="curve" smooth="yes"/>
      <point x="93" y="-126" type="line" smooth="yes"/>
      <point x="93" y="-155"/>
      <point x="88" y="-201"/>
      <point x="51" y="-201" type="curve" smooth="yes"/>
      <point x="46" y="-201"/>
      <point x="37" y="-199"/>
      <point x="34" y="-197" type="curve"/>
      <point x="35" y="-191"/>
      <point x="36" y="-185"/>
      <point x="36" y="-180" type="curve" smooth="yes"/>
      <point x="36" y="-145"/>
      <point x="11" y="-120"/>
      <point x="-25" y="-121" type="curve" smooth="yes"/>
      <point x="-65" y="-122"/>
      <point x="-88" y="-154"/>
      <point x="-88" y="-189" type="curve" smooth="yes"/>
      <point x="-88" y="-230"/>
      <point x="-54" y="-271"/>
    </contour>
  </outline>
</glyph>
<glyph name="schwa" format="2">
  <advance width="538"/>
  <unicode hex="0259"/>
  <outline>
    <contour>
      <point x="249" y="-16" type="curve" smooth="yes"/>
      <point x="408" y="-16"/>
      <point x="507" y="111"/>
      <point x="507" y="263" type="curve" smooth="yes"/>
      <point x="507" y="413"/>
      <point x="411" y="516"/>
      <point x="265" y="516" type="curve" smooth="yes"/>
      <point x="202" y="516"/>
      <point x="109" y="497"/>
      <point x="37" y="394" type="curve"/>
      <point x="82" y="352" type="line"/>
      <point x="128" y="408"/>
      <point x="189" y="427"/>
      <point x="234" y="427" type="curve" smooth="yes"/>
      <point x="326" y="427"/>
      <point x="360" y="346"/>
      <point x="360" y="237" type="curve"/>
      <point x="32" y="231" type="line"/>
      <point x="30" y="38"/>
      <point x="146" y="-16"/>
    </contour>
    <contour>
      <point x="252" y="54" type="curve" smooth="yes"/>
      <point x="205" y="54"/>
      <point x="172" y="84"/>
      <point x="170" y="167" type="curve"/>
      <point x="354" y="167" type="line"/>
      <point x="344" y="100"/>
      <point x="311" y="54"/>
    </contour>
  </outline>
</glyph>
<glyph name="caron" format="2">
  <advance width="424"/>
  <unicode hex="02C7"/>
  <anchor x="198" y="500" name="_top"/>
  <outline>
    <contour>
      <point x="191" y="557" type="line"/>
      <point x="202" y="557" type="line"/>
      <point x="365" y="729" type="line"/>
      <point x="323" y="777" type="line"/>
      <point x="202" y="672" type="line"/>
      <point x="201" y="672" type="line"/>
      <point x="72" y="777" type="line"/>
      <point x="29" y="726" type="line"/>
    </contour>
  </outline>
</glyph>
<glyph name="dotaccent" format="2">
  <advance width="240"/>
  <unicode hex="02D9"/>
  <anchor x="120" y="500" name="_top"/>
  <outline>
    <contour>
      <point x="121.9" y="589.2" type="curve" smooth="yes"/>
      <point x="167.05" y="589.2"/>
      <point x="196.45" y="625.95"/>
      <point x="196.45" y="671.1" type="curve" smooth="yes"/>
      <point x="196.45" y="716.25"/>
      <point x="163.9" y="753"/>
      <point x="120.85" y="753" type="curve" smooth="yes"/>
      <point x="79.9" y="753"/>
      <point x="44.2" y="716.25"/>
      <point x="44.2" y="671.1" type="curve" smooth="yes"/>
      <point x="44.2" y="625.95"/>
      <point x="75.7" y="589.2"/>
    </contour>
  </outline>
</glyph>
<glyph name="hungarumlaut" format="2">
  <advance width="428"/>
  <unicode hex="02DD"/>
  <anchor x="197" y="500" name="_top"/>
  <outline>
    <contour>
      <point x="228" y="581" type="line"/>
      <point x="357" y="676" type="line" smooth="yes"/>
      <point x="388" y="697"/>
      <point x="417" y="737"/>
      <point x="390" y="769" type="curve" smooth="yes"/>
      <point x="366" y="796"/>
      <point x="321" y="781"/>
      <point x="288" y="743" type="curve" smooth="yes"/>
      <point x="189" y="628" type="line"/>
    </contour>
    <contour>
      <point x="96" y="572" type="line"/>
      <point x="196" y="697" type="line" smooth="yes"/>
      <point x="218" y="726"/>
      <point x="231" y="772"/>
      <point x="197" y="793" type="curve" smooth="yes"/>
      <point x="166" y="812"/>
      <point x="129" y="783"/>
      <point x="110" y="743" type="curve" smooth="yes"/>
      <point x="45" y="606" type="line"/>
    </contour>
  </outline>
</glyph>
<glyph name="horncomb" format="2">
  <unicode hex="031B"/>
  <anchor x="312" y="500" name="_topright"/>
  <anchor x="312" y="500" name="topright"/>
  <outline>
    <contour>
      <point x="233" y="432" type="line"/>
      <point x="348" y="432"/>
      <point x="423" y="485"/>
      <point x="423" y="577" type="curve"/>
      <point x="314" y="577" type="line"/>
      <point x="314" y="540"/>
      <point x="283" y="497"/>
      <point x="233" y="497" type="curve"/>
    </contour>
  </outline>
</glyph>
<glyph name="commaaccentcomb" format="2">
  <unicode hex="0326"/>
  <anchor x="155" y="0" name="_bottom"/>
  <outline>
    <contour>
      <point x="122" y="-284" type="line"/>
      <point x="180" y="-230"/>
      <point x="221" y="-167"/>
      <point x="221" y="-108" type="curve"/>
      <point x="221" y="-84"/>
      <point x="214" y="-59"/>
      <point x="200" y="-36" type="curve"/>
      <point x="110" y="-54" type="line"/>
      <point x="128" y="-119"/>
      <point x="122" y="-172"/>
      <point x="77" y="-249" type="curve"/>
    </contour>
  </outline>
</glyph>
<glyph name="pi" format="2">
  <advance width="613"/>
  <unicode hex="03C0"/>
  <outline>
    <contour>
      <point x="92" y="-16" type="curve" smooth="yes"/>
      <point x="143" y="-16"/>
      <point x="180" y="18"/>
      <point x="201" y="80" type="curve" smooth="yes"/>
      <point x="224" y="146"/>
      <point x="225" y="292"/>
      <point x="225" y="398" type="curve"/>
      <point x="259" y="395"/>
      <point x="330" y="389"/>
      <point x="367" y="386" type="curve"/>
      <point x="367" y="332"/>
      <point x="366" y="205"/>
      <point x="365" y="136" type="curve" smooth="yes"/>
      <point x="365" y="82"/>
      <point x="367" y="-16"/>
      <point x="473" y="-16" type="curve" smooth="yes"/>
      <point x="521" y="-16"/>
      <point x="563" y="12"/>
      <point x="593" y="48" type="curve"/>
      <point x="563" y="92" type="line"/>
      <point x="553" y="87"/>
      <point x="543" y="83"/>
      <point x="534" y="83" type="curve" smooth="yes"/>
      <point x="516" y="83"/>
      <point x="502" y="96"/>
      <point x="502" y="136" type="curve" smooth="yes"/>
      <point x="502" y="222"/>
      <point x="503" y="312"/>
      <point x="503" y="398" type="curve"/>
      <point x="537" y="414"/>
      <point x="573" y="445"/>
      <point x="590" y="471" type="curve"/>
      <point x="553" y="521" type="line"/>
      <point x="510" y="499"/>
      <point x="477" y="494"/>
      <point x="450" y="494" type="curve" smooth="yes"/>
      <point x="339" y="494"/>
      <point x="282" y="511"/>
      <point x="183" y="511" type="curve" smooth="yes"/>
      <point x="116" y="511"/>
      <point x="61" y="469"/>
      <point x="25" y="426" type="curve"/>
      <point x="59" y="375" type="line"/>
      <point x="92" y="391"/>
      <point x="127" y="398"/>
      <point x="155" y="400" type="curve"/>
      <point x="155" y="300"/>
      <point x="153" y="139"/>
      <point x="125" y="104" type="curve"/>
      <point x="115" y="110"/>
      <point x="103" y="113"/>
      <point x="86" y="113" type="curve" smooth="yes"/>
      <point x="62" y="113"/>
      <point x="24" y="93"/>
      <point x="24" y="49" type="curve" smooth="yes"/>
      <point x="24" y="9"/>
      <point x="56" y="-16"/>
    </contour>
  </outline>
</glyph>
<glyph name="Dje-cy" format="2">
  <advance width="797"/>
  <unicode hex="0402"/>
  <outline>
    <contour>
      <point x="584" y="-16" type="curve" smooth="yes"/>
      <point x="721" y="-16"/>
      <point x="772" y="94"/>
      <point x="772" y="219" type="curve" smooth="yes"/>
      <point x="772" y="324"/>
      <point x="719" y="422"/>
      <point x="570" y="422" type="curve" smooth="yes"/>
      <point x="526" y="422"/>
      <point x="447" y="414"/>
      <point x="396" y="397" type="curve"/>
      <point x="396" y="633" type="line"/>
      <point x="444" y="633" type="line" smooth="yes"/>
      <point x="520" y="634"/>
      <point x="567" y="590"/>
      <point x="567" y="500" type="curve"/>
      <point x="633" y="500" type="line"/>
      <point x="627" y="700" type="line"/>
      <point x="21" y="700" type="line"/>
      <point x="16" y="474" type="line"/>
      <point x="82" y="474" type="line"/>
      <point x="82" y="582"/>
      <point x="129" y="631"/>
      <point x="205" y="632" type="curve" smooth="yes"/>
      <point x="251" y="632" type="line"/>
      <point x="251" y="153" type="line" smooth="yes"/>
      <point x="251" y="72"/>
      <point x="225" y="68"/>
      <point x="180" y="66" type="curve"/>
      <point x="180" y="0" type="line"/>
      <point x="392" y="0" type="line"/>
      <point x="392" y="74" type="line"/>
      <point x="392" y="74" type="line"/>
      <point x="395" y="91"/>
      <point x="396" y="128"/>
      <point x="396" y="164" type="curve" smooth="yes"/>
      <point x="396" y="323" type="line"/>
      <point x="424" y="334"/>
      <point x="464" y="344"/>
      <point x="511" y="344" type="curve" smooth="yes"/>
      <point x="575" y="344"/>
      <point x="615" y="309"/>
      <point x="615" y="208" type="curve" smooth="yes"/>
      <point x="615" y="115"/>
      <point x="590" y="57"/>
      <point x="538" y="57" type="curve" smooth="yes"/>
      <point x="517" y="57"/>
      <point x="491" y="62"/>
      <point x="470" y="70" type="curve"/>
      <point x="452" y="5" type="line"/>
      <point x="497" y="-12"/>
      <point x="557" y="-16"/>
    </contour>
  </outline>
</glyph>
<glyph name="E-cy" format="2">
  <advance width="694"/>
  <unicode hex="0404"/>
  <outline>
    <contour>
      <point x="378" y="-16" type="curve" smooth="yes"/>
      <point x="460" y="-16"/>
      <point x="581" y="9"/>
      <point x="679" y="144" type="curve"/>
      <point x="631" y="188" type="line"/>
      <point x="575" y="111"/>
      <point x="486" y="65"/>
      <point x="402" y="65" type="curve" smooth="yes"/>
      <point x="268" y="65"/>
      <point x="192" y="188"/>
      <point x="192" y="360" type="curve" smooth="yes"/>
      <point x="192" y="510"/>
      <point x="258" y="644"/>
      <point x="398" y="644" type="curve" smooth="yes"/>
      <point x="491" y="643"/>
      <point x="548" y="587"/>
      <point x="566" y="476" type="curve"/>
      <point x="631" y="476" type="line"/>
      <point x="631" y="709" type="line"/>
      <point x="554" y="709" type="line"/>
      <point x="557" y="667" type="line"/>
      <point x="503" y="699"/>
      <point x="437" y="716"/>
      <point x="385" y="716" type="curve" smooth="yes"/>
      <point x="152" y="716"/>
      <point x="35" y="522"/>
      <point x="35" y="340" type="curve" smooth="yes"/>
      <point x="35" y="141"/>
      <point x="172" y="-16"/>
    </contour>
    <contour>
      <point x="419" y="237" type="curve"/>
      <point x="485" y="237" type="line"/>
      <point x="485" y="490" type="line"/>
      <point x="408" y="490" type="line"/>
      <point x="410" y="465"/>
      <point x="411" y="431"/>
      <point x="413" y="403" type="curve"/>
      <point x="144" y="403" type="line"/>
      <point x="144" y="324" type="line"/>
      <point x="321" y="325" type="line" smooth="yes"/>
      <point x="375" y="325"/>
      <point x="419" y="321"/>
    </contour>
  </outline>
</glyph>
<glyph name="De-cy" format="2">
  <advance width="745"/>
  <unicode hex="0414"/>
  <outline>
    <contour>
      <point x="27" y="-178" type="line"/>
      <point x="99" y="-178" type="line"/>
      <point x="98" y="-73"/>
      <point x="113" y="0"/>
      <point x="165" y="0" type="curve" smooth="yes"/>
      <point x="575" y="0" type="line" smooth="yes"/>
      <point x="627" y="0"/>
      <point x="642" y="-73"/>
      <point x="641" y="-178" type="curve"/>
      <point x="713" y="-178" type="line"/>
      <point x="713" y="78" type="line"/>
      <point x="607" y="74" type="line"/>
      <point x="610" y="91"/>
      <point x="611" y="128"/>
      <point x="611" y="164" type="curve" smooth="yes"/>
      <point x="611" y="547" type="line" smooth="yes"/>
      <point x="611" y="628"/>
      <point x="638" y="632"/>
      <point x="683" y="634" type="curve"/>
      <point x="683" y="700" type="line"/>
      <point x="122" y="700" type="line"/>
      <point x="122" y="623" type="line"/>
      <point x="201" y="625" type="line"/>
      <point x="226" y="626" type="line"/>
      <point x="229" y="269"/>
      <point x="175" y="74"/>
      <point x="64" y="74" type="curve" smooth="yes"/>
      <point x="27" y="74" type="line"/>
    </contour>
    <contour>
      <point x="192" y="74" type="line"/>
      <point x="250" y="156"/>
      <point x="298" y="309"/>
      <point x="302" y="563" type="curve" smooth="yes"/>
      <point x="302" y="610"/>
      <point x="325" y="621"/>
      <point x="369" y="622" type="curve" smooth="yes"/>
      <point x="467" y="625" type="line"/>
      <point x="467" y="161" type="line" smooth="yes"/>
      <point x="467" y="81"/>
      <point x="423" y="77"/>
      <point x="378" y="74" type="curve"/>
    </contour>
  </outline>
</glyph>
<glyph name="Pe-cy" format="2">
  <advance width="792"/>
  <unicode hex="041F"/>
  <anchor x="664" y="0" name="bottomright"/>
  <outline>
    <contour>
      <point x="50" y="0" type="line"/>
      <point x="337" y="0" type="line"/>
      <point x="337" y="77" type="line"/>
      <point x="323" y="77"/>
      <point x="283" y="76"/>
      <point x="262" y="74" type="curve"/>
      <point x="264" y="91"/>
      <point x="266" y="128"/>
      <point x="266" y="164" type="curve" smooth="yes"/>
      <point x="266" y="535" type="line" smooth="yes"/>
      <point x="266" y="615"/>
      <point x="291" y="620"/>
      <point x="335" y="622" type="curve"/>
      <point x="526" y="625" type="line"/>
      <point x="526" y="153" type="line" smooth="yes"/>
      <point x="526" y="72"/>
      <point x="500" y="68"/>
      <point x="455" y="66" type="curve"/>
      <point x="455" y="0" type="line"/>
      <point x="742" y="0" type="line"/>
      <point x="742" y="77" type="line"/>
      <point x="728" y="77"/>
      <point x="688" y="76"/>
      <point x="667" y="74" type="curve"/>
      <point x="669" y="91"/>
      <point x="671" y="128"/>
      <point x="671" y="164" type="curve"/>
      <point x="671" y="547" type="line"/>
      <point x="671" y="628"/>
      <point x="697" y="632"/>
      <point x="742" y="634" type="curve"/>
      <point x="742" y="700" type="line"/>
      <point x="50" y="700" type="line"/>
      <point x="50" y="623" type="line"/>
      <point x="64" y="624"/>
      <point x="104" y="625"/>
      <point x="125" y="626" type="curve"/>
      <point x="123" y="609"/>
      <point x="121" y="572"/>
      <point x="121" y="536" type="curve" smooth="yes"/>
      <point x="121" y="153" type="line" smooth="yes"/>
      <point x="121" y="72"/>
      <point x="95" y="68"/>
      <point x="50" y="66" type="curve"/>
    </contour>
  </outline>
</glyph>
<glyph name="Ef-cy" format="2">
  <advance width="857"/>
  <unicode hex="0424"/>
  <outline>
    <contour>
      <point x="286" y="-54" type="line"/>
      <point x="563" y="-54" type="line"/>
      <point x="563" y="23" type="line"/>
      <point x="488" y="21" type="line"/>
      <point x="489" y="32"/>
      <point x="491" y="51"/>
      <point x="491" y="73" type="curve"/>
      <point x="714" y="95"/>
      <point x="822" y="214"/>
      <point x="822" y="350" type="curve" smooth="yes"/>
      <point x="822" y="485"/>
      <point x="722" y="618"/>
      <point x="493" y="641" type="curve"/>
      <point x="498" y="698"/>
      <point x="523" y="701"/>
      <point x="563" y="703" type="curve"/>
      <point x="563" y="769" type="line"/>
      <point x="286" y="769" type="line"/>
      <point x="286" y="692" type="line"/>
      <point x="361" y="695" type="line"/>
      <point x="359" y="684"/>
      <point x="358" y="664"/>
      <point x="357" y="642" type="curve"/>
      <point x="140" y="622"/>
      <point x="35" y="495"/>
      <point x="35" y="343" type="curve" smooth="yes"/>
      <point x="35" y="208"/>
      <point x="124" y="90"/>
      <point x="356" y="72" type="curve"/>
      <point x="350" y="18"/>
      <point x="325" y="15"/>
      <point x="286" y="12" type="curve"/>
    </contour>
    <contour>
      <point x="357" y="140" type="line"/>
      <point x="240" y="160"/>
      <point x="183" y="235"/>
      <point x="183" y="355" type="curve" smooth="yes"/>
      <point x="183" y="473"/>
      <point x="236" y="556"/>
      <point x="357" y="576" type="curve"/>
    </contour>
    <contour>
      <point x="492" y="137" type="curve"/>
      <point x="492" y="574" type="line"/>
      <point x="616" y="550"/>
      <point x="674" y="462"/>
      <point x="674" y="333" type="curve" smooth="yes"/>
      <point x="674" y="212"/>
      <point x="618" y="152"/>
    </contour>
  </outline>
</glyph>
<glyph name="Sha-cy" format="2">
  <advance width="1100"/>
  <unicode hex="0428"/>
  <outline>
    <contour>
      <point x="50" y="0" type="line"/>
      <point x="1050" y="0" type="line"/>
      <point x="1050" y="77" type="line"/>
      <point x="1036" y="77"/>
      <point x="996" y="76"/>
      <point x="975" y="74" type="curve"/>
      <point x="977" y="91"/>
      <point x="979" y="128"/>
      <point x="979" y="164" type="curve" smooth="yes"/>
      <point x="979" y="547" type="line" smooth="yes"/>
      <point x="979" y="628"/>
      <point x="1005" y="632"/>
      <point x="1050" y="634" type="curve"/>
      <point x="1050" y="700" type="line"/>
      <point x="763" y="700" type="line"/>
      <point x="763" y="623" type="line"/>
      <point x="777" y="624"/>
      <point x="816" y="625"/>
      <point x="838" y="626" type="curve"/>
      <point x="835" y="609"/>
      <point x="834" y="572"/>
      <point x="834" y="536" type="curve" smooth="yes"/>
      <point x="834" y="165" type="line" smooth="yes"/>
      <point x="834" y="84"/>
      <point x="808" y="79"/>
      <point x="764" y="78" type="curve" smooth="yes"/>
      <point x="618" y="76" type="line"/>
      <point x="621" y="93"/>
      <point x="622" y="129"/>
      <point x="622" y="164" type="curve" smooth="yes"/>
      <point x="622" y="547" type="line" smooth="yes"/>
      <point x="622" y="628"/>
      <point x="648" y="632"/>
      <point x="693" y="634" type="curve"/>
      <point x="693" y="700" type="line"/>
      <point x="406" y="700" type="line"/>
      <point x="406" y="623" type="line"/>
      <point x="420" y="624"/>
      <point x="460" y="625"/>
      <point x="481" y="626" type="curve"/>
      <point x="479" y="609"/>
      <point x="478" y="572"/>
      <point x="478" y="536" type="curve" smooth="yes"/>
      <point x="478" y="165" type="line" smooth="yes"/>
      <point x="478" y="84"/>
      <point x="451" y="81"/>
      <point x="408" y="78" type="curve"/>
      <point x="266" y="76" type="line"/>
      <point x="266" y="547" type="line" smooth="yes"/>
      <point x="266" y="628"/>
      <point x="292" y="632"/>
      <point x="337" y="634" type="curve"/>
      <point x="337" y="700" type="line"/>
      <point x="50" y="700" type="line"/>
      <point x="50" y="623" type="line"/>
      <point x="64" y="624"/>
      <point x="104" y="625"/>
      <point x="125" y="626" type="curve"/>
      <point x="123" y="609"/>
      <point x="121" y="572"/>
      <point x="121" y="536" type="curve" smooth="yes"/>
      <point x="121" y="153" type="line" smooth="yes"/>
      <point x="121" y="72"/>
      <point x="95" y="68"/>
      <point x="50" y="66" type="curve"/>
    </contour>
  </outline>
</glyph>
<glyph name="Iu-cy" format="2">
  <advance width="1119"/>
  <unicode hex="042E"/>
  <outline>
    <contour>
      <point x="734" y="-16" type="curve" smooth="yes"/>
      <point x="970" y="-16"/>
      <point x="1084" y="185"/>
      <point x="1084" y="350" type="curve" smooth="yes"/>
      <point x="1084" y="517"/>
      <point x="980" y="716"/>
      <point x="737" y="716" type="curve" smooth="yes"/>
      <point x="528" y="716"/>
      <point x="418" y="549"/>
      <point x="402" y="391" type="curve"/>
      <point x="266" y="391" type="line"/>
      <point x="266" y="547" type="line" smooth="yes"/>
      <point x="266" y="628"/>
      <point x="292" y="632"/>
      <point x="337" y="634" type="curve"/>
      <point x="337" y="700" type="line"/>
      <point x="50" y="700" type="line"/>
      <point x="50" y="623" type="line"/>
      <point x="64" y="624"/>
      <point x="104" y="625"/>
      <point x="125" y="626" type="curve"/>
      <point x="123" y="609"/>
      <point x="121" y="572"/>
      <point x="121" y="536" type="curve" smooth="yes"/>
      <point x="121" y="153" type="line" smooth="yes"/>
      <point x="121" y="72"/>
      <point x="95" y="68"/>
      <point x="50" y="66" type="curve"/>
      <point x="50" y="0" type="line"/>
      <point x="337" y="0" type="line"/>
      <point x="337" y="77" type="line"/>
      <point x="323" y="77"/>
      <point x="283" y="76"/>
      <point x="262" y="74" type="curve"/>
      <point x="264" y="91"/>
      <point x="266" y="128"/>
      <point x="266" y="164" type="curve" smooth="yes"/>
      <point x="266" y="312" type="line"/>
      <point x="401" y="314" type="line"/>
      <point x="413" y="150"/>
      <point x="508" y="-16"/>
    </contour>
    <contour>
      <point x="744" y="57" type="curve" smooth="yes"/>
      <point x="604" y="56"/>
      <point x="558" y="237"/>
      <point x="558" y="362" type="curve" smooth="yes"/>
      <point x="558" y="485"/>
      <point x="598" y="640"/>
      <point x="724" y="643" type="curve" smooth="yes"/>
      <point x="863" y="646"/>
      <point x="927" y="516"/>
      <point x="927" y="333" type="curve" smooth="yes"/>
      <point x="927" y="210"/>
      <point x="882" y="58"/>
    </contour>
  </outline>
</glyph>
<glyph name="Ia-cy" format="2">
  <advance width="736"/>
  <unicode hex="042F"/>
  <outline>
    <contour>
      <point x="32" y="0" type="line"/>
      <point x="179" y="0" type="line"/>
      <point x="195" y="1"/>
      <point x="251" y="62"/>
      <point x="276" y="102" type="curve" smooth="yes"/>
      <point x="340" y="202" type="line" smooth="yes"/>
      <point x="367" y="244"/>
      <point x="392" y="272"/>
      <point x="421" y="272" type="curve"/>
      <point x="471" y="272" type="line"/>
      <point x="470" y="153" type="line"/>
      <point x="470" y="72"/>
      <point x="444" y="68"/>
      <point x="399" y="66" type="curve"/>
      <point x="399" y="0" type="line"/>
      <point x="686" y="0" type="line"/>
      <point x="686" y="77" type="line"/>
      <point x="611" y="74" type="line"/>
      <point x="613" y="91"/>
      <point x="615" y="128"/>
      <point x="615" y="164" type="curve" smooth="yes"/>
      <point x="615" y="547" type="line" smooth="yes"/>
      <point x="615" y="628"/>
      <point x="641" y="632"/>
      <point x="686" y="634" type="curve"/>
      <point x="686" y="700" type="line"/>
      <point x="402" y="702" type="line"/>
      <point x="227" y="703"/>
      <point x="110" y="625"/>
      <point x="115" y="494" type="curve" smooth="yes"/>
      <point x="117" y="402"/>
      <point x="174" y="341"/>
      <point x="290" y="306" type="curve"/>
      <point x="254" y="295"/>
      <point x="230" y="277"/>
      <point x="201" y="232" type="curve" smooth="yes"/>
      <point x="163" y="174" type="line" smooth="yes"/>
      <point x="125" y="115"/>
      <point x="77" y="68"/>
      <point x="32" y="66" type="curve"/>
    </contour>
    <contour>
      <point x="426" y="344" type="curve" smooth="yes"/>
      <point x="319" y="344"/>
      <point x="269" y="400"/>
      <point x="269" y="497" type="curve" smooth="yes"/>
      <point x="269" y="603"/>
      <point x="324" y="631"/>
      <point x="403" y="632" type="curve" smooth="yes"/>
      <point x="426" y="632"/>
      <point x="448" y="632"/>
      <point x="471" y="632" type="curve"/>
      <point x="471" y="606"/>
      <point x="471" y="580"/>
      <point x="471" y="554" type="curve"/>
      <point x="471" y="347" type="line"/>
      <point x="457" y="346"/>
      <point x="442" y="344"/>
    </contour>
  </outline>
</glyph>
<glyph name="ge-cy" format="2">
  <advance width="496"/>
  <unicode hex="0433"/>
  <anchor x="245" y="0" name="bottomright"/>
  <anchor x="263" y="500" name="top"/>
  <outline>
    <contour>
      <point x="43" y="0" type="line"/>
      <point x="326" y="0" type="line"/>
      <point x="326" y="76" type="line"/>
      <point x="241" y="73" type="line"/>
      <point x="244" y="103"/>
      <point x="245" y="142"/>
      <point x="245" y="161" type="curve" smooth="yes"/>
      <point x="245" y="422" type="line"/>
      <point x="311" y="422" type="line"/>
      <point x="370" y="422"/>
      <point x="399" y="402"/>
      <point x="399" y="318" type="curve"/>
      <point x="464" y="318" type="line"/>
      <point x="460" y="500" type="line"/>
      <point x="42" y="500" type="line"/>
      <point x="42" y="424" type="line"/>
      <point x="56" y="424"/>
      <point x="85" y="425"/>
      <point x="106" y="427" type="curve"/>
      <point x="104" y="397"/>
      <point x="103" y="358"/>
      <point x="103" y="339" type="curve" smooth="yes"/>
      <point x="103" y="154" type="line" smooth="yes"/>
      <point x="103" y="101"/>
      <point x="99" y="65"/>
      <point x="43" y="65" type="curve"/>
    </contour>
  </outline>
</glyph>
<glyph name="de-cy" format="2">
  <advance width="668"/>
  <unicode hex="0434"/>
  <outline>
    <contour>
      <point x="22" y="-183" type="line"/>
      <point x="87" y="-183" type="line"/>
      <point x="86" y="-78"/>
      <point x="108" y="0"/>
      <point x="160" y="0" type="curve" smooth="yes"/>
      <point x="503" y="0" type="line" smooth="yes"/>
      <point x="556" y="0"/>
      <point x="578" y="-78"/>
      <point x="576" y="-183" type="curve"/>
      <point x="642" y="-183" type="line"/>
      <point x="642" y="78" type="line"/>
      <point x="538" y="74" type="line"/>
      <point x="541" y="104"/>
      <point x="542" y="142"/>
      <point x="542" y="161" type="curve" smooth="yes"/>
      <point x="542" y="346" type="line" smooth="yes"/>
      <point x="542" y="399"/>
      <point x="546" y="435"/>
      <point x="602" y="435" type="curve"/>
      <point x="602" y="500" type="line"/>
      <point x="106" y="500" type="line"/>
      <point x="106" y="424" type="line"/>
      <point x="201" y="432" type="line"/>
      <point x="196" y="343"/>
      <point x="174" y="194"/>
      <point x="144" y="132" type="curve" smooth="yes"/>
      <point x="127" y="98"/>
      <point x="104" y="78"/>
      <point x="73" y="78" type="curve" smooth="yes"/>
      <point x="22" y="78" type="line"/>
    </contour>
    <contour>
      <point x="188" y="78" type="line"/>
      <point x="203" y="100"/>
      <point x="214" y="121"/>
      <point x="224" y="142" type="curve" smooth="yes"/>
      <point x="246" y="196"/>
      <point x="256" y="258"/>
      <point x="272" y="380" type="curve" smooth="yes"/>
      <point x="277" y="413"/>
      <point x="293" y="422"/>
      <point x="325" y="422" type="curve" smooth="yes"/>
      <point x="404" y="422" type="line"/>
      <point x="401" y="394"/>
      <point x="400" y="359"/>
      <point x="400" y="340" type="curve" smooth="yes"/>
      <point x="400" y="167" type="line" smooth="yes"/>
      <point x="400" y="114"/>
      <point x="396" y="78"/>
      <point x="341" y="78" type="curve" smooth="yes"/>
    </contour>
  </outline>
</glyph>
<glyph name="ef-cy" format="2">
  <advance width="798"/>
  <unicode hex="0444"/>
  <outline>
    <contour>
      <point x="269" y="-255" type="line"/>
      <point x="531" y="-255" type="line"/>
      <point x="531" y="-179" type="line"/>
      <point x="466" y="-182" type="line"/>
      <point x="469" y="-152"/>
      <point x="470" y="-114"/>
      <point x="470" y="-95" type="curve" smooth="yes"/>
      <point x="470" y="755" type="line"/>
      <point x="416" y="755" type="line"/>
      <point x="402" y="742"/>
      <point x="354" y="725"/>
      <point x="262" y="725" type="curve"/>
      <point x="262" y="649" type="line"/>
      <point x="332" y="652" type="line"/>
      <point x="329" y="623"/>
      <point x="328" y="589"/>
      <point x="328" y="565" type="curve" smooth="yes"/>
      <point x="328" y="-102" type="line" smooth="yes"/>
      <point x="328" y="-154"/>
      <point x="324" y="-190"/>
      <point x="269" y="-190" type="curve"/>
    </contour>
    <contour>
      <point x="258" y="-16" type="curve" smooth="yes"/>
      <point x="306" y="-16"/>
      <point x="348" y="-7"/>
      <point x="387" y="25" type="curve"/>
      <point x="345" y="80" type="line"/>
      <point x="332" y="64"/>
      <point x="316" y="55"/>
      <point x="285" y="54" type="curve" smooth="yes"/>
      <point x="208" y="53"/>
      <point x="178" y="167"/>
      <point x="178" y="266" type="curve" smooth="yes"/>
      <point x="179" y="350"/>
      <point x="195" y="442"/>
      <point x="274" y="443" type="curve" smooth="yes"/>
      <point x="307" y="444"/>
      <point x="333" y="420"/>
      <point x="354" y="381" type="curve"/>
      <point x="399" y="436" type="line"/>
      <point x="364" y="487"/>
      <point x="322" y="514"/>
      <point x="278" y="514" type="curve" smooth="yes"/>
      <point x="128" y="514"/>
      <point x="31" y="408"/>
      <point x="31" y="241" type="curve" smooth="yes"/>
      <point x="31" y="81"/>
      <point x="133" y="-16"/>
    </contour>
    <contour>
      <point x="520" y="-16" type="curve" smooth="yes"/>
      <point x="669" y="-16"/>
      <point x="767" y="90"/>
      <point x="767" y="257" type="curve" smooth="yes"/>
      <point x="767" y="417"/>
      <point x="665" y="514"/>
      <point x="540" y="514" type="curve" smooth="yes"/>
      <point x="480" y="514"/>
      <point x="443" y="500"/>
      <point x="411" y="473" type="curve"/>
      <point x="453" y="418" type="line"/>
      <point x="466" y="434"/>
      <point x="482" y="443"/>
      <point x="513" y="444" type="curve" smooth="yes"/>
      <point x="590" y="445"/>
      <point x="620" y="331"/>
      <point x="620" y="232" type="curve" smooth="yes"/>
      <point x="619" y="148"/>
      <point x="603" y="56"/>
      <point x="524" y="55" type="curve" smooth="yes"/>
      <point x="491" y="54"/>
      <point x="464" y="78"/>
      <point x="444" y="117" type="curve"/>
      <point x="399" y="62" type="line"/>
      <point x="434" y="11"/>
      <point x="476" y="-16"/>
    </contour>
  </outline>
</glyph>
<glyph name="tse-cy" format="2">
  <advance width="684"/>
  <unicode hex="0446"/>
  <outline>
    <contour>
      <point x="592" y="-183" type="curve"/>
      <point x="657" y="-183" type="line"/>
      <point x="657" y="78" type="line"/>
      <point x="555" y="73" type="line"/>
      <point x="557" y="103"/>
      <point x="558" y="142"/>
      <point x="558" y="161" type="curve" smooth="yes"/>
      <point x="558" y="346" type="line" smooth="yes"/>
      <point x="558" y="399"/>
      <point x="562" y="435"/>
      <point x="618" y="435" type="curve"/>
      <point x="618" y="500" type="line"/>
      <point x="355" y="500" type="line"/>
      <point x="355" y="424" type="line"/>
      <point x="420" y="427" type="line"/>
      <point x="417" y="397"/>
      <point x="416" y="358"/>
      <point x="416" y="339" type="curve" smooth="yes"/>
      <point x="416" y="153" type="line" smooth="yes"/>
      <point x="416" y="108"/>
      <point x="412" y="78"/>
      <point x="356" y="78" type="curve" smooth="yes"/>
      <point x="240" y="78" type="line"/>
      <point x="243" y="106"/>
      <point x="244" y="141"/>
      <point x="244" y="160" type="curve" smooth="yes"/>
      <point x="244" y="346" type="line" smooth="yes"/>
      <point x="244" y="399"/>
      <point x="248" y="435"/>
      <point x="304" y="435" type="curve"/>
      <point x="304" y="500" type="line"/>
      <point x="41" y="500" type="line"/>
      <point x="41" y="424" type="line"/>
      <point x="106" y="427" type="line"/>
      <point x="103" y="397"/>
      <point x="102" y="358"/>
      <point x="102" y="339" type="curve" smooth="yes"/>
      <point x="102" y="154" type="line" smooth="yes"/>
      <point x="102" y="101"/>
      <point x="98" y="65"/>
      <point x="43" y="65" type="curve"/>
      <point x="43" y="0" type="line"/>
      <point x="511" y="0" type="line" smooth="yes"/>
      <point x="563" y="0"/>
      <point x="593" y="-49"/>
    </contour>
  </outline>
</glyph>
<glyph name="che-cy" format="2">
  <advance width="597"/>
  <unicode hex="0447"/>
  <anchor x="433" y="0" name="bottomright"/>
  <anchor x="289" y="220" name="center"/>
  <anchor x="296" y="500" name="top"/>
  <outline>
    <contour>
      <point x="293" y="0" type="line"/>
      <point x="556" y="0" type="line"/>
      <point x="556" y="76" type="line"/>
      <point x="491" y="73" type="line"/>
      <point x="494" y="103"/>
      <point x="495" y="142"/>
      <point x="495" y="161" type="curve" smooth="yes"/>
      <point x="495" y="346" type="line" smooth="yes"/>
      <point x="495" y="399"/>
      <point x="499" y="435"/>
      <point x="554" y="435" type="curve"/>
      <point x="554" y="500" type="line"/>
      <point x="316" y="500" type="line"/>
      <point x="316" y="424" type="line"/>
      <point x="357" y="427" type="line"/>
      <point x="354" y="397"/>
      <point x="353" y="358"/>
      <point x="353" y="339" type="curve" smooth="yes"/>
      <point x="353" y="269" type="line"/>
      <point x="337" y="264"/>
      <point x="319" y="261"/>
      <point x="296" y="261" type="curve" smooth="yes"/>
      <point x="232" y="261"/>
      <point x="215" y="291"/>
      <point x="212" y="378" type="curve" smooth="yes"/>
      <point x="212" y="425"/>
      <point x="228" y="433"/>
      <point x="260" y="435" type="curve"/>
      <point x="260" y="500" type="line"/>
      <point x="10" y="500" type="line"/>
      <point x="10" y="424" type="line"/>
      <point x="74" y="427" type="line"/>
      <point x="72" y="391"/>
      <point x="71" y="366"/>
      <point x="71" y="314" type="curve"/>
      <point x="76" y="226"/>
      <point x="140" y="168"/>
      <point x="247" y="168" type="curve" smooth="yes"/>
      <point x="284" y="168"/>
      <point x="320" y="174"/>
      <point x="353" y="186" type="curve"/>
      <point x="353" y="154" type="line" smooth="yes"/>
      <point x="353" y="101"/>
      <point x="349" y="65"/>
      <point x="293" y="65" type="curve"/>
    </contour>
  </outline>
</glyph>
<glyph name="hardsign-cy" format="2">
  <advance width="645"/>
  <unicode hex="044A"/>
  <outline>
    <contour>
      <point x="407" y="435" type="curve"/>
      <point x="407" y="500" type="line"/>
      <point x="19" y="500" type="line"/>
      <point x="15" y="318" type="line"/>
      <point x="80" y="318" type="line"/>
      <point x="80" y="397"/>
      <point x="109" y="422"/>
      <point x="169" y="422" type="curve" smooth="yes"/>
      <point x="214" y="422" type="line"/>
      <point x="212" y="393"/>
      <point x="211" y="357"/>
      <point x="211" y="339" type="curve" smooth="yes"/>
      <point x="211" y="126" type="line" smooth="yes"/>
      <point x="211" y="69"/>
      <point x="187" y="66"/>
      <point x="151" y="65" type="curve"/>
      <point x="151" y="0" type="line"/>
      <point x="444" y="0" type="line" smooth="yes"/>
      <point x="540" y="0"/>
      <point x="621" y="49"/>
      <point x="620" y="158" type="curve"/>
      <point x="620" y="242"/>
      <point x="574" y="310"/>
      <point x="394" y="304" type="curve" smooth="yes"/>
      <point x="349" y="302" type="line"/>
      <point x="348" y="346" type="line"/>
      <point x="348" y="399"/>
      <point x="352" y="435"/>
    </contour>
    <contour>
      <point x="348" y="128" type="curve" smooth="yes"/>
      <point x="348" y="241" type="line"/>
      <point x="367" y="242"/>
      <point x="381" y="241"/>
      <point x="408" y="242" type="curve" smooth="yes"/>
      <point x="450" y="242"/>
      <point x="486" y="213"/>
      <point x="484" y="153" type="curve" smooth="yes"/>
      <point x="483" y="101"/>
      <point x="455" y="71"/>
      <point x="415" y="69" type="curve" smooth="yes"/>
      <point x="392" y="67"/>
      <point x="370" y="68"/>
      <point x="342" y="68" type="curve"/>
      <point x="344" y="84"/>
      <point x="348" y="104"/>
    </contour>
  </outline>
</glyph>
<glyph name="yeru-cy" format="2">
  <advance width="858"/>
  <unicode hex="044B"/>
  <anchor x="410" y="500" name="top"/>
  <outline>
    <contour>
      <point x="43" y="0" type="line"/>
      <point x="342" y="0" type="line" smooth="yes"/>
      <point x="438" y="0"/>
      <point x="518" y="49"/>
      <point x="518" y="158" type="curve" smooth="yes"/>
      <point x="518" y="242"/>
      <point x="471" y="310"/>
      <point x="292" y="304" type="curve" smooth="yes"/>
      <point x="246" y="302" type="line"/>
      <point x="245" y="346" type="line" smooth="yes"/>
      <point x="245" y="399"/>
      <point x="249" y="435"/>
      <point x="305" y="435" type="curve"/>
      <point x="305" y="500" type="line"/>
      <point x="42" y="500" type="line"/>
      <point x="42" y="424" type="line"/>
      <point x="56" y="424"/>
      <point x="85" y="425"/>
      <point x="106" y="427" type="curve"/>
      <point x="104" y="397"/>
      <point x="103" y="358"/>
      <point x="103" y="339" type="curve" smooth="yes"/>
      <point x="103" y="126" type="line" smooth="yes"/>
      <point x="103" y="69"/>
      <point x="79" y="66"/>
      <point x="43" y="65" type="curve"/>
    </contour>
    <contour>
      <point x="239" y="68" type="curve"/>
      <point x="241" y="84"/>
      <point x="245" y="104"/>
      <point x="245" y="128" type="curve" smooth="yes"/>
      <point x="245" y="241" type="line"/>
      <point x="265" y="242"/>
      <point x="278" y="241"/>
      <point x="305" y="242" type="curve" smooth="yes"/>
      <point x="347" y="242"/>
      <point x="383" y="213"/>
      <point x="381" y="153" type="curve" smooth="yes"/>
      <point x="381" y="101"/>
      <point x="352" y="71"/>
      <point x="313" y="69" type="curve" smooth="yes"/>
      <point x="289" y="67"/>
      <point x="267" y="68"/>
    </contour>
    <contour>
      <point x="554" y="0" type="line"/>
      <point x="817" y="0" type="line"/>
      <point x="817" y="76" type="line"/>
      <point x="803" y="76"/>
      <point x="773" y="75"/>
      <point x="752" y="73" type="curve"/>
      <point x="755" y="103"/>
      <point x="756" y="142"/>
      <point x="756" y="161" type="curve" smooth="yes"/>
      <point x="756" y="346" type="line" smooth="yes"/>
      <point x="756" y="399"/>
      <point x="760" y="435"/>
      <point x="815" y="435" type="curve"/>
      <point x="815" y="500" type="line"/>
      <point x="553" y="500" type="line"/>
      <point x="553" y="424" type="line"/>
      <point x="567" y="424"/>
      <point x="596" y="425"/>
      <point x="618" y="427" type="curve"/>
      <point x="615" y="397"/>
      <point x="614" y="358"/>
      <point x="614" y="339" type="curve" smooth="yes"/>
      <point x="614" y="154" type="line" smooth="yes"/>
      <point x="614" y="101"/>
      <point x="610" y="65"/>
      <point x="554" y="65" type="curve"/>
    </contour>
  </outline>
</glyph>
<glyph name="softsign-cy" format="2">
  <advance width="569"/>
  <unicode hex="044C"/>
  <outline>
    <contour>
      <point x="43" y="0" type="line"/>
      <point x="352" y="0" type="line" smooth="yes"/>
      <point x="447" y="0"/>
      <point x="528" y="49"/>
      <point x="527" y="158" type="curve"/>
      <point x="527" y="242"/>
      <point x="481" y="310"/>
      <point x="292" y="304" type="curve" smooth="yes"/>
      <point x="245" y="302" type="line"/>
      <point x="245" y="346" type="line" smooth="yes"/>
      <point x="245" y="399"/>
      <point x="249" y="435"/>
      <point x="305" y="435" type="curve"/>
      <point x="305" y="500" type="line"/>
      <point x="42" y="500" type="line"/>
      <point x="42" y="424" type="line"/>
      <point x="56" y="424"/>
      <point x="85" y="425"/>
      <point x="106" y="427" type="curve"/>
      <point x="104" y="397"/>
      <point x="103" y="358"/>
      <point x="103" y="339" type="curve" smooth="yes"/>
      <point x="103" y="126" type="line" smooth="yes"/>
      <point x="103" y="69"/>
      <point x="79" y="66"/>
      <point x="43" y="65" type="curve"/>
    </contour>
    <contour>
      <point x="239" y="68" type="curve"/>
      <point x="241" y="84"/>
      <point x="245" y="104"/>
      <point x="245" y="128" type="curve" smooth="yes"/>
      <point x="245" y="241" type="line"/>
      <point x="262" y="242"/>
      <point x="285" y="242"/>
      <point x="308" y="242" type="curve" smooth="yes"/>
      <point x="357" y="242"/>
      <point x="393" y="213"/>
      <point x="392" y="153" type="curve" smooth="yes"/>
      <point x="391" y="101"/>
      <point x="363" y="71"/>
      <point x="316" y="69" type="curve" smooth="yes"/>
      <point x="295" y="68"/>
      <point x="264" y="68"/>
    </contour>
  </outline>
</glyph>
<glyph name="ereversed-cy" format="2">
  <advance width="536"/>
  <unicode hex="044D"/>
  <anchor x="252" y="500" name="top"/>
  <outline>
    <contour>
      <point x="245" y="-16" type="curve" smooth="yes"/>
      <point x="423" y="-16"/>
      <point x="505" y="120"/>
      <point x="505" y="261" type="curve" smooth="yes"/>
      <point x="505" y="426"/>
      <point x="394" y="515"/>
      <point x="278" y="515" type="curve" smooth="yes"/>
      <point x="226" y="515"/>
      <point x="161" y="497"/>
      <point x="119" y="461" type="curve"/>
      <point x="120" y="511" type="line"/>
      <point x="44" y="511" type="line"/>
      <point x="44" y="334" type="line"/>
      <point x="108" y="334" type="line"/>
      <point x="118" y="391"/>
      <point x="175" y="437"/>
      <point x="241" y="437" type="curve" smooth="yes"/>
      <point x="321" y="437"/>
      <point x="363" y="381"/>
      <point x="363" y="237" type="curve" smooth="yes"/>
      <point x="363" y="120"/>
      <point x="321" y="54"/>
      <point x="245" y="51" type="curve" smooth="yes"/>
      <point x="217" y="50"/>
      <point x="182" y="53"/>
      <point x="158" y="80" type="curve"/>
      <point x="166" y="94"/>
      <point x="170" y="112"/>
      <point x="170" y="124" type="curve" smooth="yes"/>
      <point x="170" y="152"/>
      <point x="153" y="189"/>
      <point x="102" y="189" type="curve" smooth="yes"/>
      <point x="59" y="189"/>
      <point x="35" y="155"/>
      <point x="35" y="114" type="curve" smooth="yes"/>
      <point x="35" y="50"/>
      <point x="119" y="-16"/>
    </contour>
    <contour>
      <point x="133" y="224" type="line"/>
      <point x="373" y="230" type="line"/>
      <point x="367" y="293" type="line"/>
      <point x="133" y="293" type="line"/>
    </contour>
  </outline>
</glyph>
<glyph name="iu-cy" format="2">
  <advance width="866"/>
  <unicode hex="044E"/>
  <outline>
    <contour>
      <point x="586" y="-16" type="curve" smooth="yes"/>
      <point x="732" y="-16"/>
      <point x="835" y="91"/>
      <point x="835" y="259" type="curve" smooth="yes"/>
      <point x="835" y="419"/>
      <point x="726" y="516"/>
      <point x="583" y="516" type="curve" smooth="yes"/>
      <point x="462" y="516"/>
      <point x="358" y="429"/>
      <point x="335" y="294" type="curve"/>
      <point x="245" y="294" type="line"/>
      <point x="245" y="346" type="line" smooth="yes"/>
      <point x="245" y="399"/>
      <point x="249" y="435"/>
      <point x="305" y="435" type="curve"/>
      <point x="305" y="500" type="line"/>
      <point x="42" y="500" type="line"/>
      <point x="42" y="424" type="line"/>
      <point x="106" y="427" type="line"/>
      <point x="104" y="397"/>
      <point x="103" y="358"/>
      <point x="103" y="339" type="curve" smooth="yes"/>
      <point x="103" y="154" type="line" smooth="yes"/>
      <point x="103" y="101"/>
      <point x="99" y="65"/>
      <point x="43" y="65" type="curve"/>
      <point x="43" y="0" type="line"/>
      <point x="306" y="0" type="line"/>
      <point x="306" y="76" type="line"/>
      <point x="241" y="73" type="line"/>
      <point x="244" y="103"/>
      <point x="245" y="142"/>
      <point x="245" y="161" type="curve" smooth="yes"/>
      <point x="245" y="215" type="line"/>
      <point x="332" y="216" type="line"/>
      <point x="342" y="73"/>
      <point x="448" y="-16"/>
    </contour>
    <contour>
      <point x="590" y="55" type="curve" smooth="yes"/>
      <point x="508" y="53"/>
      <point x="478" y="164"/>
      <point x="478" y="266" type="curve" smooth="yes"/>
      <point x="478" y="353"/>
      <point x="503" y="444"/>
      <point x="581" y="446" type="curve" smooth="yes"/>
      <point x="662" y="448"/>
      <point x="687" y="333"/>
      <point x="687" y="234" type="curve" smooth="yes"/>
      <point x="687" y="149"/>
      <point x="669" y="56"/>
    </contour>
  </outline>
</glyph>
<glyph name="e-cy" format="2">
  <advance width="518"/>
  <unicode hex="0454"/>
  <outline>
    <contour>
      <point x="127" y="211" type="line"/>
      <point x="360" y="217" type="line"/>
      <point x="361" y="280" type="line"/>
      <point x="127" y="280" type="line"/>
    </contour>
    <component base="c"/>
  </outline>
</glyph>
<glyph name="tshe-cy" format="2">
  <advance width="621"/>
  <unicode hex="045B"/>
  <outline>
    <contour>
      <point x="25" y="0" type="line"/>
      <point x="287" y="0" type="line"/>
      <point x="287" y="76" type="line"/>
      <point x="273" y="76"/>
      <point x="244" y="75"/>
      <point x="222" y="73" type="curve"/>
      <point x="225" y="103"/>
      <point x="226" y="142"/>
      <point x="226" y="161" type="curve" smooth="yes"/>
      <point x="226" y="337" type="line"/>
      <point x="248" y="357"/>
      <point x="284" y="374"/>
      <point x="317" y="374" type="curve" smooth="yes"/>
      <point x="373" y="374"/>
      <point x="397" y="333"/>
      <point x="398" y="246" type="curve" smooth="yes"/>
      <point x="399" y="154" type="line" smooth="yes"/>
      <point x="400" y="101"/>
      <point x="395" y="65"/>
      <point x="339" y="65" type="curve"/>
      <point x="339" y="0" type="line"/>
      <point x="602" y="0" type="line"/>
      <point x="602" y="76" type="line"/>
      <point x="587" y="76"/>
      <point x="558" y="75"/>
      <point x="537" y="73" type="curve"/>
      <point x="540" y="103"/>
      <point x="541" y="142"/>
      <point x="541" y="161" type="curve" smooth="yes"/>
      <point x="541" y="245" type="line" smooth="yes"/>
      <point x="541" y="399"/>
      <point x="494" y="466"/>
      <point x="372" y="466" type="curve" smooth="yes"/>
      <point x="331" y="466"/>
      <point x="265" y="441"/>
      <point x="226" y="410" type="curve"/>
      <point x="226" y="755" type="line"/>
      <point x="172" y="755" type="line"/>
      <point x="158" y="742"/>
      <point x="111" y="725"/>
      <point x="18" y="725" type="curve"/>
      <point x="18" y="649" type="line"/>
      <point x="32" y="650"/>
      <point x="67" y="651"/>
      <point x="88" y="652" type="curve"/>
      <point x="85" y="623"/>
      <point x="84" y="589"/>
      <point x="84" y="565" type="curve" smooth="yes"/>
      <point x="84" y="154" type="line" smooth="yes"/>
      <point x="84" y="101"/>
      <point x="81" y="65"/>
      <point x="25" y="65" type="curve"/>
    </contour>
    <contour>
      <point x="-10" y="524" type="line"/>
      <point x="392" y="528" type="line"/>
      <point x="392" y="597" type="line"/>
      <point x="-10" y="597" type="line"/>
    </contour>
  </outline>
</glyph>
<glyph name="dzhe-cy" format="2">
  <advance width="661"/>
  <unicode hex="045F"/>
  <outline>
    <contour>
      <point x="300" y="-183" type="curve"/>
      <point x="365" y="-183" type="line"/>
      <point x="365" y="78" type="line"/>
      <point x="328" y="76" type="line"/>
      <point x="219" y="0" type="line"/>
      <point x="271" y="0"/>
      <point x="301" y="-49"/>
    </contour>
    <component base="pe-cy" xScale="-1" yScale="-1" xOffset="662" yOffset="500"/>
  </outline>
</glyph>
<glyph name="Yat-cy" format="2">
  <advance width="745"/>
  <unicode hex="0462"/>
  <outline>
    <contour>
      <point x="442" y="673" type="curve"/>
      <point x="442" y="739" type="line"/>
      <point x="155" y="739" type="line"/>
      <point x="155" y="662" type="line"/>
      <point x="169" y="663"/>
      <point x="209" y="664"/>
      <point x="230" y="665" type="curve"/>
      <point x="228" y="648"/>
      <point x="226" y="611"/>
      <point x="226" y="575" type="curve" smooth="yes"/>
      <point x="226" y="153" type="line" smooth="yes"/>
      <point x="226" y="72"/>
      <point x="200" y="68"/>
      <point x="155" y="66" type="curve"/>
      <point x="155" y="0" type="line"/>
      <point x="471" y="0" type="line" smooth="yes"/>
      <point x="611" y="0"/>
      <point x="714" y="69"/>
      <point x="714" y="199" type="curve" smooth="yes"/>
      <point x="714" y="305"/>
      <point x="655" y="417"/>
      <point x="426" y="409" type="curve" smooth="yes"/>
      <point x="371" y="407" type="line"/>
      <point x="371" y="586" type="line" smooth="yes"/>
      <point x="371" y="667"/>
      <point x="397" y="671"/>
    </contour>
    <contour>
      <point x="371" y="160" type="curve" smooth="yes"/>
      <point x="371" y="336" type="line"/>
      <point x="390" y="336"/>
      <point x="408" y="337"/>
      <point x="427" y="337" type="curve" smooth="yes"/>
      <point x="502" y="339"/>
      <point x="556" y="306"/>
      <point x="556" y="207" type="curve" smooth="yes"/>
      <point x="556" y="128"/>
      <point x="521" y="77"/>
      <point x="440" y="73" type="curve" smooth="yes"/>
      <point x="416" y="72"/>
      <point x="391" y="72"/>
      <point x="367" y="72" type="curve"/>
      <point x="369" y="89"/>
      <point x="371" y="124"/>
    </contour>
    <contour>
      <point x="567" y="440" type="curve"/>
      <point x="633" y="440" type="line"/>
      <point x="627" y="616" type="line"/>
      <point x="21" y="616" type="line"/>
      <point x="16" y="390" type="line"/>
      <point x="82" y="390" type="line"/>
      <point x="82" y="498"/>
      <point x="129" y="547"/>
      <point x="205" y="548" type="curve" smooth="yes"/>
      <point x="444" y="549" type="line" smooth="yes"/>
      <point x="520" y="550"/>
      <point x="567" y="519"/>
    </contour>
  </outline>
</glyph>
<glyph name="Fita-cy" format="2">
  <advance width="769"/>
  <unicode hex="0472"/>
  <outline>
    <contour>
      <point x="484" y="262" type="curve" smooth="yes"/>
      <point x="548" y="262"/>
      <point x="576" y="318"/>
      <point x="609" y="410" type="curve"/>
      <point x="598" y="426" type="line"/>
      <point x="573" y="386"/>
      <point x="558" y="357"/>
      <point x="494" y="357" type="curve" smooth="yes"/>
      <point x="424" y="357"/>
      <point x="394" y="441"/>
      <point x="305" y="439" type="curve" smooth="yes"/>
      <point x="260" y="438"/>
      <point x="218" y="394"/>
      <point x="173" y="319" type="curve"/>
      <point x="182" y="291" type="line"/>
      <point x="203" y="309"/>
      <point x="242" y="343"/>
      <point x="298" y="343" type="curve" smooth="yes"/>
      <point x="369" y="343"/>
      <point x="406" y="262"/>
    </contour>
    <component base="O"/>
  </outline>
</glyph>
<glyph name="Semisoftsign-cy" format="2">
  <advance width="634"/>
  <unicode hex="048C"/>
  <outline>
    <contour>
      <point x="29" y="487" type="line"/>
      <point x="404" y="490" type="line"/>
      <point x="404" y="566" type="line"/>
      <point x="29" y="566" type="line"/>
    </contour>
    <component base="Softsign-cy"/>
  </outline>
</glyph>
<glyph name="semisoftsign-cy" format="2">
  <advance width="565"/>
  <unicode hex="048D"/>
  <outline>
    <contour>
      <point x="39" y="0" type="line"/>
      <point x="348" y="0" type="line" smooth="yes"/>
      <point x="443" y="0"/>
      <point x="524" y="49"/>
      <point x="523" y="158" type="curve"/>
      <point x="523" y="242"/>
      <point x="477" y="310"/>
      <point x="288" y="304" type="curve" smooth="yes"/>
      <point x="241" y="302" type="line"/>
      <point x="241" y="436" type="line"/>
      <point x="430" y="437" type="line"/>
      <point x="430" y="500" type="line"/>
      <point x="241" y="500" type="line"/>
      <point x="241" y="755" type="line"/>
      <point x="186" y="755" type="line"/>
      <point x="173" y="742"/>
      <point x="125" y="725"/>
      <point x="33" y="725" type="curve"/>
      <point x="33" y="649" type="line"/>
      <point x="47" y="650"/>
      <point x="81" y="651"/>
      <point x="103" y="652" type="curve"/>
      <point x="100" y="623"/>
      <point x="99" y="589"/>
      <point x="99" y="565" type="curve" smooth="yes"/>
      <point x="99" y="500" type="line"/>
      <point x="0" y="500" type="line"/>
      <point x="0" y="434" type="line"/>
      <point x="99" y="435" type="line"/>
      <point x="99" y="126" type="line" smooth="yes"/>
      <point x="99" y="69"/>
      <point x="75" y="66"/>
      <point x="39" y="65" type="curve"/>
    </contour>
    <contour>
      <point x="235" y="68" type="curve"/>
      <point x="237" y="84"/>
      <point x="241" y="104"/>
      <point x="241" y="128" type="curve" smooth="yes"/>
      <point x="241" y="241" type="line"/>
      <point x="258" y="242"/>
      <point x="281" y="242"/>
      <point x="304" y="242" type="curve" smooth="yes"/>
      <point x="353" y="242"/>
      <point x="389" y="213"/>
      <point x="388" y="153" type="curve" smooth="yes"/>
      <point x="387" y="101"/>
      <point x="359" y="71"/>
      <point x="312" y="69" type="curve" smooth="yes"/>
      <point x="291" y="68"/>
      <point x="260" y="68"/>
    </contour>
  </outline>
</glyph>
<glyph name="zedescender-cy" format="2">
  <advance width="526"/>
  <unicode hex="0499"/>
  <outline>
    <contour>
      <point x="234" y="-166" type="line" smooth="yes"/>
      <point x="316" y="-166" type="line"/>
      <point x="305" y="0" type="line"/>
      <point x="234" y="-1" type="line"/>
    </contour>
    <component base="ze-cy"/>
  </outline>
</glyph>
<glyph name="Endescender-cy" format="2">
  <advance width="807"/>
  <unicode hex="04A2"/>
  <outline>
    <contour>
      <point x="723" y="-183" type="curve"/>
      <point x="788" y="-183" type="line"/>
      <point x="788" y="78" type="line"/>
      <point x="682" y="77" type="line"/>
      <point x="684" y="95"/>
      <point x="686" y="130"/>
      <point x="686" y="164" type="curve" smooth="yes"/>
      <point x="686" y="547" type="line" smooth="yes"/>
      <point x="686" y="628"/>
      <point x="712" y="632"/>
      <point x="757" y="634" type="curve"/>
      <point x="757" y="700" type="line"/>
      <point x="470" y="700" type="line"/>
      <point x="470" y="623" type="line"/>
      <point x="484" y="624"/>
      <point x="523" y="625"/>
      <point x="545" y="626" type="curve"/>
      <point x="542" y="609"/>
      <point x="541" y="572"/>
      <point x="541" y="536" type="curve" smooth="yes"/>
      <point x="541" y="391" type="line"/>
      <point x="266" y="391" type="line"/>
      <point x="266" y="547" type="line" smooth="yes"/>
      <point x="266" y="628"/>
      <point x="292" y="632"/>
      <point x="337" y="634" type="curve"/>
      <point x="337" y="700" type="line"/>
      <point x="50" y="700" type="line"/>
      <point x="50" y="623" type="line"/>
      <point x="64" y="624"/>
      <point x="104" y="625"/>
      <point x="125" y="626" type="curve"/>
      <point x="123" y="609"/>
      <point x="121" y="572"/>
      <point x="121" y="536" type="curve" smooth="yes"/>
      <point x="121" y="153" type="line" smooth="yes"/>
      <point x="121" y="72"/>
      <point x="95" y="68"/>
      <point x="50" y="66" type="curve"/>
      <point x="50" y="0" type="line"/>
      <point x="337" y="0" type="line"/>
      <point x="337" y="77" type="line"/>
      <point x="323" y="77"/>
      <point x="283" y="76"/>
      <point x="262" y="74" type="curve"/>
      <point x="264" y="91"/>
      <point x="266" y="128"/>
      <point x="266" y="164" type="curve" smooth="yes"/>
      <point x="266" y="312" type="line"/>
      <point x="541" y="315" type="line"/>
      <point x="541" y="153" type="line" smooth="yes"/>
      <point x="541" y="72"/>
      <point x="515" y="68"/>
      <point x="470" y="66" type="curve"/>
      <point x="470" y="0" type="line"/>
      <point x="642" y="0" type="line" smooth="yes"/>
      <point x="694" y="0"/>
      <point x="724" y="-49"/>
    </contour>
  </outline>
</glyph>
<glyph name="endescender-cy" format="2">
  <advance width="689"/>
  <unicode hex="04A3"/>
  <outline>
    <contour>
      <point x="299" y="435" type="curve"/>
      <point x="299" y="500" type="line"/>
      <point x="42" y="500" type="line"/>
      <point x="42" y="424" type="line"/>
      <point x="106" y="427" type="line"/>
      <point x="104" y="397"/>
      <point x="103" y="358"/>
      <point x="103" y="339" type="curve" smooth="yes"/>
      <point x="103" y="154" type="line" smooth="yes"/>
      <point x="103" y="101"/>
      <point x="99" y="65"/>
      <point x="43" y="65" type="curve"/>
      <point x="43" y="0" type="line"/>
      <point x="300" y="0" type="line"/>
      <point x="300" y="76" type="line"/>
      <point x="235" y="73" type="line"/>
      <point x="238" y="103"/>
      <point x="239" y="142"/>
      <point x="239" y="161" type="curve" smooth="yes"/>
      <point x="239" y="346" type="line" smooth="yes"/>
      <point x="239" y="399"/>
      <point x="243" y="435"/>
    </contour>
    <contour>
      <point x="623" y="435" type="curve"/>
      <point x="623" y="500" type="line"/>
      <point x="366" y="500" type="line"/>
      <point x="366" y="424" type="line"/>
      <point x="431" y="427" type="line"/>
      <point x="428" y="397"/>
      <point x="427" y="358"/>
      <point x="427" y="339" type="curve" smooth="yes"/>
      <point x="427" y="154" type="line" smooth="yes"/>
      <point x="427" y="101"/>
      <point x="423" y="65"/>
      <point x="367" y="65" type="curve"/>
      <point x="367" y="0" type="line"/>
      <point x="625" y="0" type="line"/>
      <point x="560" y="73" type="line"/>
      <point x="563" y="103"/>
      <point x="563" y="142"/>
      <point x="563" y="161" type="curve" smooth="yes"/>
      <point x="563" y="346" type="line" smooth="yes"/>
      <point x="563" y="399"/>
      <point x="567" y="435"/>
    </contour>
    <contour>
      <point x="597" y="-183" type="curve"/>
      <point x="662" y="-183" type="line"/>
      <point x="662" y="78" type="line"/>
      <point x="560" y="73" type="line"/>
      <point x="516" y="0" type="line"/>
      <point x="568" y="0"/>
      <point x="598" y="-49"/>
    </contour>
    <contour>
      <point x="181" y="294" type="line"/>
      <point x="181" y="215" type="line"/>
      <point x="455" y="217" type="line"/>
      <point x="455" y="294" type="line"/>
    </contour>
  </outline>
</glyph>
<glyph name="Enghe-cy" format="2">
  <advance width="1007"/>
  <unicode hex="04A4"/>
  <outline>
    <contour>
      <point x="50" y="0" type="line"/>
      <point x="337" y="0" type="line"/>
      <point x="337" y="77" type="line"/>
      <point x="323" y="77"/>
      <point x="283" y="76"/>
      <point x="262" y="74" type="curve"/>
      <point x="264" y="91"/>
      <point x="266" y="128"/>
      <point x="266" y="164" type="curve" smooth="yes"/>
      <point x="266" y="312" type="line"/>
      <point x="591" y="315" type="line"/>
      <point x="591" y="391" type="line"/>
      <point x="266" y="391" type="line"/>
      <point x="266" y="547" type="line" smooth="yes"/>
      <point x="266" y="628"/>
      <point x="292" y="632"/>
      <point x="337" y="634" type="curve"/>
      <point x="337" y="700" type="line"/>
      <point x="50" y="700" type="line"/>
      <point x="50" y="623" type="line"/>
      <point x="64" y="624"/>
      <point x="104" y="625"/>
      <point x="125" y="626" type="curve"/>
      <point x="123" y="609"/>
      <point x="121" y="572"/>
      <point x="121" y="536" type="curve" smooth="yes"/>
      <point x="121" y="153" type="line" smooth="yes"/>
      <point x="121" y="72"/>
      <point x="95" y="68"/>
      <point x="50" y="66" type="curve"/>
    </contour>
    <contour>
      <point x="469" y="0" type="line"/>
      <point x="770" y="0" type="line"/>
      <point x="770" y="77" type="line"/>
      <point x="755" y="77"/>
      <point x="702" y="76"/>
      <point x="681" y="74" type="curve"/>
      <point x="683" y="91"/>
      <point x="685" y="128"/>
      <point x="685" y="164" type="curve"/>
      <point x="685" y="547" type="line"/>
      <point x="685" y="625"/>
      <point x="710" y="633"/>
      <point x="752" y="634" type="curve" smooth="yes"/>
      <point x="788" y="635" type="line" smooth="yes"/>
      <point x="842" y="637"/>
      <point x="909" y="615"/>
      <point x="909" y="506" type="curve"/>
      <point x="975" y="506" type="line"/>
      <point x="969" y="700" type="line"/>
      <point x="469" y="700" type="line"/>
      <point x="469" y="623" type="line"/>
      <point x="483" y="624"/>
      <point x="523" y="625"/>
      <point x="544" y="626" type="curve"/>
      <point x="542" y="609"/>
      <point x="540" y="572"/>
      <point x="540" y="536" type="curve" smooth="yes"/>
      <point x="540" y="153" type="line" smooth="yes"/>
      <point x="540" y="72"/>
      <point x="514" y="68"/>
      <point x="469" y="66" type="curve"/>
    </contour>
  </outline>
</glyph>
<glyph name="enghe-cy" format="2">
  <advance width="814"/>
  <unicode hex="04A5"/>
  <outline>
    <contour>
      <point x="43" y="0" type="line"/>
      <point x="306" y="0" type="line"/>
      <point x="306" y="76" type="line"/>
      <point x="241" y="73" type="line"/>
      <point x="244" y="103"/>
      <point x="245" y="142"/>
      <point x="245" y="161" type="curve" smooth="yes"/>
      <point x="245" y="215" type="line"/>
      <point x="421" y="217" type="line"/>
      <point x="421" y="154" type="line" smooth="yes"/>
      <point x="421" y="101"/>
      <point x="417" y="65"/>
      <point x="361" y="65" type="curve"/>
      <point x="361" y="0" type="line"/>
      <point x="644" y="0" type="line"/>
      <point x="644" y="76" type="line"/>
      <point x="559" y="73" type="line"/>
      <point x="562" y="103"/>
      <point x="563" y="142"/>
      <point x="563" y="161" type="curve" smooth="yes"/>
      <point x="563" y="422" type="line"/>
      <point x="585" y="422"/>
      <point x="607" y="422"/>
      <point x="629" y="422" type="curve" smooth="yes"/>
      <point x="688" y="422"/>
      <point x="717" y="402"/>
      <point x="717" y="318" type="curve"/>
      <point x="782" y="318" type="line"/>
      <point x="778" y="500" type="line"/>
      <point x="360" y="500" type="line"/>
      <point x="360" y="424" type="line"/>
      <point x="374" y="424"/>
      <point x="403" y="425"/>
      <point x="424" y="427" type="curve"/>
      <point x="422" y="397"/>
      <point x="421" y="358"/>
      <point x="421" y="339" type="curve" smooth="yes"/>
      <point x="421" y="294" type="line"/>
      <point x="245" y="294" type="line"/>
      <point x="245" y="346" type="line" smooth="yes"/>
      <point x="245" y="399"/>
      <point x="249" y="435"/>
      <point x="305" y="435" type="curve"/>
      <point x="305" y="500" type="line"/>
      <point x="42" y="500" type="line"/>
      <point x="42" y="424" type="line"/>
      <point x="106" y="427" type="line"/>
      <point x="104" y="397"/>
      <point x="103" y="358"/>
      <point x="103" y="339" type="curve" smooth="yes"/>
      <point x="103" y="154" type="line" smooth="yes"/>
      <point x="103" y="101"/>
      <point x="99" y="65"/>
      <point x="43" y="65" type="curve"/>
    </contour>
  </outline>
</glyph>
<glyph name="pemiddlehook-cy" format="2">
  <advance width="868"/>
  <unicode hex="04A7"/>
  <outline>
    <contour>
      <point x="654" y="-229" type="curve" smooth="yes"/>
      <point x="755" y="-229"/>
      <point x="863" y="-111"/>
      <point x="863" y="36" type="curve" smooth="yes"/>
      <point x="863" y="192"/>
      <point x="784" y="283"/>
      <point x="650" y="283" type="curve" smooth="yes"/>
      <point x="610" y="283"/>
      <point x="556" y="273"/>
      <point x="524" y="261" type="curve"/>
      <point x="524" y="195" type="line"/>
      <point x="550" y="204"/>
      <point x="571" y="209"/>
      <point x="600" y="209" type="curve" smooth="yes"/>
      <point x="693" y="209"/>
      <point x="722" y="152"/>
      <point x="721" y="40" type="curve" smooth="yes"/>
      <point x="719" y="-128"/>
      <point x="672" y="-161"/>
      <point x="627" y="-161" type="curve" smooth="yes"/>
      <point x="618" y="-161"/>
      <point x="605" y="-160"/>
      <point x="594" y="-157" type="curve"/>
      <point x="583" y="-221" type="line"/>
      <point x="600" y="-226"/>
      <point x="638" y="-229"/>
    </contour>
    <component base="pe-cy"/>
  </outline>
</glyph>
<glyph name="Haabkhasian-cy" format="2">
  <advance width="799"/>
  <unicode hex="04A8"/>
  <outline>
    <contour>
      <point x="403" y="-16" type="curve" smooth="yes"/>
      <point x="452.688" y="-16"/>
      <point x="498.38" y="-6.58"/>
      <point x="539.16" y="9.82" type="curve"/>
      <point x="576.104" y="-5.387"/>
      <point x="616.905" y="-14.458"/>
      <point x="663" y="-15" type="curve" smooth="yes"/>
      <point x="704" y="-15"/>
      <point x="746" y="-3"/>
      <point x="769" y="11" type="curve"/>
      <point x="754" y="78" type="line"/>
      <point x="719" y="58"/>
      <point x="673" y="49"/>
      <point x="630" y="61" type="curve"/>
      <point x="630" y="63.662" type="line"/>
      <point x="720" y="138"/>
      <point x="768" y="244"/>
      <point x="768" y="336" type="curve" smooth="yes"/>
      <point x="768" y="469"/>
      <point x="696" y="565"/>
      <point x="543" y="563" type="curve" smooth="yes"/>
      <point x="438" y="562"/>
      <point x="312" y="499"/>
      <point x="312" y="315" type="curve" smooth="yes"/>
      <point x="312" y="224"/>
      <point x="370" y="127"/>
      <point x="453" y="62" type="curve"/>
      <point x="453" y="60.027" type="line"/>
      <point x="440.042" y="58.045"/>
      <point x="426.069" y="57"/>
      <point x="411" y="57" type="curve" smooth="yes"/>
      <point x="249" y="57"/>
      <point x="194" y="237"/>
      <point x="194" y="362" type="curve" smooth="yes"/>
      <point x="194" y="559"/>
      <point x="301" y="644"/>
      <point x="431" y="644" type="curve" smooth="yes"/>
      <point x="466" y="644"/>
      <point x="534" y="633"/>
      <point x="571" y="617" type="curve"/>
      <point x="593" y="681" type="line"/>
      <point x="549" y="699"/>
      <point x="471" y="716"/>
      <point x="403" y="716" type="curve" smooth="yes"/>
      <point x="164" y="716"/>
      <point x="35" y="518"/>
      <point x="35" y="350" type="curve" smooth="yes"/>
      <point x="35" y="176"/>
      <point x="150" y="-16"/>
    </contour>
    <contour>
      <point x="547.136" y="102.787" type="curve"/>
      <point x="483.951" y="156.168"/>
      <point x="463" y="249.286"/>
      <point x="463" y="327" type="curve"/>
      <point x="463" y="419"/>
      <point x="488" y="486"/>
      <point x="540" y="486" type="curve" smooth="yes"/>
      <point x="598" y="486"/>
      <point x="618" y="414"/>
      <point x="618" y="358" type="curve" smooth="yes"/>
      <point x="618" y="277.364"/>
      <point x="614.675" y="164.904"/>
    </contour>
  </outline>
</glyph>
<glyph name="Esdescender-cy" format="2">
  <advance width="688"/>
  <unicode hex="04AA"/>
  <outline>
    <contour>
      <point x="341" y="-178" type="line"/>
      <point x="428" y="-176" type="line"/>
      <point x="418" y="39" type="line"/>
      <point x="341" y="39" type="line"/>
    </contour>
    <component base="Es-cy"/>
  </outline>
</glyph>
<glyph name="esdescender-cy" format="2">
  <advance width="518"/>
  <unicode hex="04AB"/>
  <outline>
    <contour>
      <point x="244" y="-166" type="line" smooth="yes"/>
      <point x="326" y="-166" type="line"/>
      <point x="315" y="0" type="line"/>
      <point x="244" y="-1" type="line"/>
    </contour>
    <component base="es-cy"/>
  </outline>
</glyph>
<glyph name="Tedescender-cy" format="2">
  <advance width="650"/>
  <unicode hex="04AC"/>
  <outline>
    <contour>
      <point x="627" y="700" type="line"/>
      <point x="21" y="700" type="line"/>
      <point x="16" y="474" type="line"/>
      <point x="82" y="474" type="line"/>
      <point x="82" y="582"/>
      <point x="129" y="631"/>
      <point x="205" y="632" type="curve" smooth="yes"/>
      <point x="251" y="632" type="line"/>
      <point x="251" y="153" type="line" smooth="yes"/>
      <point x="251" y="72"/>
      <point x="225" y="68"/>
      <point x="180" y="66" type="curve"/>
      <point x="180" y="0" type="line"/>
      <point x="348" y="0" type="line" smooth="yes"/>
      <point x="400" y="0"/>
      <point x="430" y="-49"/>
      <point x="429" y="-183" type="curve"/>
      <point x="494" y="-183" type="line"/>
      <point x="494" y="78" type="line"/>
      <point x="392" y="77" type="line"/>
      <point x="395" y="95"/>
      <point x="396" y="130"/>
      <point x="396" y="164" type="curve" smooth="yes"/>
      <point x="396" y="633" type="line"/>
      <point x="444" y="633" type="line" smooth="yes"/>
      <point x="520" y="634"/>
      <point x="567" y="582"/>
      <point x="567" y="474" type="curve"/>
      <point x="633" y="474" type="line"/>
    </contour>
  </outline>
</glyph>
<glyph name="hadescender-cy" format="2">
  <advance width="557"/>
  <unicode hex="04B3"/>
  <outline>
    <contour>
      <point x="512" y="-183" type="curve"/>
      <point x="577" y="-183" type="line"/>
      <point x="577" y="78" type="line"/>
      <point x="497" y="74" type="line"/>
      <point x="484" y="98"/>
      <point x="467" y="118"/>
      <point x="449" y="139" type="curve" smooth="yes"/>
      <point x="333" y="274" type="line"/>
      <point x="400" y="356" type="line" smooth="yes"/>
      <point x="429" y="393"/>
      <point x="460" y="419"/>
      <point x="500" y="436" type="curve"/>
      <point x="500" y="500" type="line"/>
      <point x="324" y="500" type="line"/>
      <point x="324" y="424" type="line"/>
      <point x="373" y="428" type="line"/>
      <point x="355" y="411"/>
      <point x="340" y="392"/>
      <point x="324" y="373" type="curve" smooth="yes"/>
      <point x="286" y="327" type="line"/>
      <point x="239" y="381" type="line" smooth="yes"/>
      <point x="215" y="409"/>
      <point x="205" y="434"/>
      <point x="242" y="436" type="curve"/>
      <point x="242" y="500" type="line"/>
      <point x="21" y="500" type="line"/>
      <point x="21" y="424" type="line"/>
      <point x="48" y="426" type="line"/>
      <point x="57" y="402"/>
      <point x="89" y="364"/>
      <point x="105" y="344" type="curve" smooth="yes"/>
      <point x="138" y="306"/>
      <point x="170" y="267"/>
      <point x="203" y="229" type="curve"/>
      <point x="116" y="129" type="line" smooth="yes"/>
      <point x="89" y="98"/>
      <point x="67" y="75"/>
      <point x="40" y="64" type="curve"/>
      <point x="40" y="0" type="line"/>
      <point x="206" y="0" type="line"/>
      <point x="206" y="76" type="line"/>
      <point x="160" y="73" type="line"/>
      <point x="172" y="81"/>
      <point x="198" y="111"/>
      <point x="205" y="120" type="curve" smooth="yes"/>
      <point x="251" y="176" type="line"/>
      <point x="312" y="113" type="line" smooth="yes"/>
      <point x="336" y="86"/>
      <point x="337" y="66"/>
      <point x="295" y="64" type="curve"/>
      <point x="295" y="0" type="line"/>
      <point x="431" y="0" type="line" smooth="yes"/>
      <point x="483" y="0"/>
      <point x="513" y="-49"/>
    </contour>
  </outline>
</glyph>
<glyph name="Tetse-cy" format="2">
  <advance width="997"/>
  <unicode hex="04B4"/>
  <outline>
    <contour>
      <point x="898" y="-177" type="curve"/>
      <point x="971" y="-177" type="line"/>
      <point x="971" y="79" type="line"/>
      <point x="861" y="74" type="line"/>
      <point x="863" y="91"/>
      <point x="865" y="128"/>
      <point x="865" y="164" type="curve" smooth="yes"/>
      <point x="865" y="547" type="line" smooth="yes"/>
      <point x="865" y="628"/>
      <point x="891" y="632"/>
      <point x="936" y="634" type="curve"/>
      <point x="936" y="700" type="line"/>
      <point x="649" y="700" type="line"/>
      <point x="649" y="623" type="line"/>
      <point x="663" y="623"/>
      <point x="703" y="624"/>
      <point x="724" y="626" type="curve"/>
      <point x="722" y="609"/>
      <point x="720" y="572"/>
      <point x="720" y="536" type="curve" smooth="yes"/>
      <point x="720" y="165" type="line" smooth="yes"/>
      <point x="720" y="85"/>
      <point x="695" y="79"/>
      <point x="651" y="78" type="curve" smooth="yes"/>
      <point x="392" y="74" type="line"/>
      <point x="395" y="91"/>
      <point x="396" y="128"/>
      <point x="396" y="164" type="curve" smooth="yes"/>
      <point x="396" y="633" type="line"/>
      <point x="472" y="633"/>
      <point x="521" y="582"/>
      <point x="521" y="474" type="curve"/>
      <point x="587" y="474" type="line"/>
      <point x="581" y="700" type="line"/>
      <point x="21" y="700" type="line"/>
      <point x="16" y="474" type="line"/>
      <point x="82" y="474" type="line"/>
      <point x="82" y="582"/>
      <point x="129" y="631"/>
      <point x="205" y="632" type="curve" smooth="yes"/>
      <point x="251" y="632" type="line"/>
      <point x="251" y="153" type="line" smooth="yes"/>
      <point x="251" y="72"/>
      <point x="225" y="68"/>
      <point x="180" y="66" type="curve"/>
      <point x="180" y="0" type="line"/>
      <point x="827" y="0" type="line" smooth="yes"/>
      <point x="885" y="0"/>
      <point x="900" y="-73"/>
    </contour>
  </outline>
</glyph>
<glyph name="tetse-cy" format="2">
  <advance width="862"/>
  <unicode hex="04B5"/>
  <outline>
    <contour>
      <point x="770" y="-183" type="curve"/>
      <point x="835" y="-183" type="line"/>
      <point x="835" y="78" type="line"/>
      <point x="733" y="73" type="line"/>
      <point x="735" y="103"/>
      <point x="736" y="142"/>
      <point x="736" y="161" type="curve" smooth="yes"/>
      <point x="736" y="346" type="line" smooth="yes"/>
      <point x="736" y="399"/>
      <point x="740" y="435"/>
      <point x="796" y="435" type="curve"/>
      <point x="796" y="500" type="line"/>
      <point x="533" y="500" type="line"/>
      <point x="533" y="424" type="line"/>
      <point x="598" y="427" type="line"/>
      <point x="595" y="397"/>
      <point x="594" y="358"/>
      <point x="594" y="339" type="curve" smooth="yes"/>
      <point x="594" y="153" type="line" smooth="yes"/>
      <point x="594" y="108"/>
      <point x="590" y="79"/>
      <point x="534" y="78" type="curve" smooth="yes"/>
      <point x="328" y="76" type="line"/>
      <point x="331" y="106"/>
      <point x="332" y="143"/>
      <point x="332" y="161" type="curve" smooth="yes"/>
      <point x="332" y="422" type="line"/>
      <point x="339" y="422" type="line"/>
      <point x="392" y="422"/>
      <point x="421" y="397"/>
      <point x="421" y="318" type="curve"/>
      <point x="486" y="318" type="line"/>
      <point x="482" y="500" type="line"/>
      <point x="19" y="500" type="line"/>
      <point x="15" y="318" type="line"/>
      <point x="80" y="318" type="line"/>
      <point x="80" y="397"/>
      <point x="109" y="422"/>
      <point x="169" y="422" type="curve" smooth="yes"/>
      <point x="194" y="422" type="line"/>
      <point x="192" y="392"/>
      <point x="191" y="357"/>
      <point x="191" y="339" type="curve" smooth="yes"/>
      <point x="191" y="154" type="line" smooth="yes"/>
      <point x="191" y="83"/>
      <point x="181" y="70"/>
      <point x="131" y="65" type="curve"/>
      <point x="131" y="0" type="line"/>
      <point x="689" y="0" type="line" smooth="yes"/>
      <point x="741" y="0"/>
      <point x="771" y="-49"/>
    </contour>
  </outline>
</glyph>
<glyph name="cheabkhasian-cy" format="2">
  <advance width="645"/>
  <unicode hex="04BD"/>
  <outline>
    <contour>
      <point x="227" y="263" type="curve" smooth="yes"/>
      <point x="613" y="269" type="line"/>
      <point x="615" y="462"/>
      <point x="499" y="516"/>
      <point x="388" y="516" type="curve" smooth="yes"/>
      <point x="237" y="516"/>
      <point x="138" y="389"/>
      <point x="138" y="249" type="curve" smooth="yes"/>
      <point x="138" y="87"/>
      <point x="238" y="-16"/>
      <point x="385" y="-16" type="curve" smooth="yes"/>
      <point x="453" y="-16"/>
      <point x="546" y="3"/>
      <point x="618" y="106" type="curve"/>
      <point x="573" y="148" type="line"/>
      <point x="527" y="92"/>
      <point x="466" y="73"/>
      <point x="426" y="73" type="curve" smooth="yes"/>
      <point x="322" y="73"/>
      <point x="285" y="164"/>
      <point x="285" y="273" type="curve" smooth="yes"/>
      <point x="285" y="395"/>
      <point x="334" y="446"/>
      <point x="393" y="446" type="curve" smooth="yes"/>
      <point x="440" y="446"/>
      <point x="473" y="416"/>
      <point x="475" y="333" type="curve"/>
      <point x="165" y="333" type="line" smooth="yes"/>
      <point x="83" y="333"/>
      <point x="67" y="357"/>
      <point x="67" y="378" type="curve" smooth="yes"/>
      <point x="67" y="382"/>
      <point x="68" y="385"/>
      <point x="69" y="388" type="curve"/>
      <point x="83" y="383"/>
      <point x="97" y="381"/>
      <point x="109" y="387" type="curve" smooth="yes"/>
      <point x="126" y="395"/>
      <point x="142" y="417"/>
      <point x="142" y="441" type="curve" smooth="yes"/>
      <point x="142" y="471"/>
      <point x="119" y="500"/>
      <point x="76" y="500" type="curve" smooth="yes"/>
      <point x="25" y="500"/>
      <point x="-10" y="456"/>
      <point x="-10" y="404" type="curve" smooth="yes"/>
      <point x="-10" y="333"/>
      <point x="25" y="260"/>
    </contour>
  </outline>
</glyph>
<glyph name="kahook-cy" format="2">
  <advance width="599"/>
  <unicode hex="04C4"/>
  <outline>
    <contour>
      <point x="413" y="-244" type="line"/>
      <point x="511" y="-201"/>
      <point x="584" y="-148"/>
      <point x="584" y="-42" type="curve" smooth="yes"/>
      <point x="584" y="24"/>
      <point x="562" y="89"/>
      <point x="513" y="156" type="curve" smooth="yes"/>
      <point x="459" y="231"/>
      <point x="400" y="272"/>
      <point x="370" y="285" type="curve"/>
      <point x="434" y="357" type="line" smooth="yes"/>
      <point x="462" y="389"/>
      <point x="505" y="428"/>
      <point x="576" y="436" type="curve"/>
      <point x="576" y="500" type="line"/>
      <point x="351" y="500" type="line"/>
      <point x="351" y="424" type="line"/>
      <point x="404" y="425" type="line"/>
      <point x="392" y="413"/>
      <point x="382" y="401"/>
      <point x="365" y="382" type="curve" smooth="yes"/>
      <point x="293" y="299" type="line"/>
      <point x="245" y="299" type="line"/>
      <point x="245" y="346" type="line" smooth="yes"/>
      <point x="245" y="399"/>
      <point x="248" y="435"/>
      <point x="304" y="435" type="curve"/>
      <point x="304" y="500" type="line"/>
      <point x="42" y="500" type="line"/>
      <point x="42" y="424" type="line"/>
      <point x="56" y="424"/>
      <point x="85" y="425"/>
      <point x="107" y="427" type="curve"/>
      <point x="104" y="397"/>
      <point x="103" y="358"/>
      <point x="103" y="339" type="curve" smooth="yes"/>
      <point x="103" y="154" type="line" smooth="yes"/>
      <point x="103" y="101"/>
      <point x="99" y="65"/>
      <point x="43" y="65" type="curve"/>
      <point x="43" y="0" type="line"/>
      <point x="306" y="0" type="line"/>
      <point x="306" y="76" type="line"/>
      <point x="291" y="76"/>
      <point x="262" y="75"/>
      <point x="241" y="73" type="curve"/>
      <point x="244" y="103"/>
      <point x="245" y="142"/>
      <point x="245" y="161" type="curve" smooth="yes"/>
      <point x="245" y="228" type="line"/>
      <point x="268" y="229" type="line"/>
      <point x="311" y="199"/>
      <point x="358" y="147"/>
      <point x="397" y="90" type="curve" smooth="yes"/>
      <point x="423" y="52"/>
      <point x="477" y="-22"/>
      <point x="475" y="-82" type="curve" smooth="yes"/>
      <point x="473" y="-135"/>
      <point x="432" y="-163"/>
      <point x="384" y="-184" type="curve"/>
    </contour>
  </outline>
</glyph>
<glyph name="eltail-cy" format="2">
  <advance width="661"/>
  <unicode hex="04C6"/>
  <outline>
    <contour>
      <point x="511" y="-183" type="curve"/>
      <point x="576" y="-183" type="line"/>
      <point x="656" y="81" type="line"/>
      <point x="565" y="75" type="line"/>
      <point x="568" y="105"/>
      <point x="569" y="143"/>
      <point x="569" y="161" type="curve" smooth="yes"/>
      <point x="569" y="346" type="line" smooth="yes"/>
      <point x="569" y="399"/>
      <point x="573" y="435"/>
      <point x="629" y="435" type="curve"/>
      <point x="629" y="500" type="line"/>
      <point x="138" y="500" type="line"/>
      <point x="138" y="424" type="line"/>
      <point x="233" y="432" type="line"/>
      <point x="219" y="196"/>
      <point x="187" y="56"/>
      <point x="133" y="56" type="curve" smooth="yes"/>
      <point x="129" y="56"/>
      <point x="125" y="57"/>
      <point x="123" y="59" type="curve"/>
      <point x="128" y="65"/>
      <point x="133" y="73"/>
      <point x="133" y="90" type="curve" smooth="yes"/>
      <point x="133" y="116"/>
      <point x="117" y="144"/>
      <point x="74" y="144" type="curve" smooth="yes"/>
      <point x="33" y="144"/>
      <point x="5" y="120"/>
      <point x="5" y="76" type="curve" smooth="yes"/>
      <point x="5" y="22"/>
      <point x="49" y="-14"/>
      <point x="111" y="-14" type="curve" smooth="yes"/>
      <point x="228" y="-14"/>
      <point x="294" y="113"/>
      <point x="310" y="380" type="curve" smooth="yes"/>
      <point x="312" y="413"/>
      <point x="324" y="421"/>
      <point x="356" y="421" type="curve" smooth="yes"/>
      <point x="431" y="421" type="line"/>
      <point x="428" y="393"/>
      <point x="427" y="358"/>
      <point x="427" y="339" type="curve" smooth="yes"/>
      <point x="427" y="154" type="line" smooth="yes"/>
      <point x="427" y="101"/>
      <point x="423" y="65"/>
      <point x="367" y="65" type="curve"/>
      <point x="367" y="0" type="line"/>
      <point x="510" y="0" type="line" smooth="yes"/>
      <point x="552" y="0"/>
      <point x="542" y="-49"/>
    </contour>
  </outline>
</glyph>
<glyph name="enhook-cy" format="2">
  <advance width="664"/>
  <unicode hex="04C8"/>
  <outline>
    <contour>
      <point x="375" y="-234" type="curve" smooth="yes"/>
      <point x="498" y="-234"/>
      <point x="563" y="-138"/>
      <point x="563" y="8" type="curve" smooth="yes"/>
      <point x="563" y="371" type="line" smooth="yes"/>
      <point x="563" y="399"/>
      <point x="567" y="435"/>
      <point x="623" y="435" type="curve"/>
      <point x="623" y="500" type="line"/>
      <point x="360" y="500" type="line"/>
      <point x="360" y="424" type="line"/>
      <point x="425" y="427" type="line"/>
      <point x="422" y="397"/>
      <point x="421" y="358"/>
      <point x="421" y="339" type="curve" smooth="yes"/>
      <point x="421" y="-2" type="line" smooth="yes"/>
      <point x="421" y="-136"/>
      <point x="394" y="-164"/>
      <point x="337" y="-164" type="curve" smooth="yes"/>
      <point x="315" y="-164"/>
      <point x="299" y="-159"/>
      <point x="274" y="-153" type="curve"/>
      <point x="258" y="-217" type="line"/>
      <point x="309" y="-231"/>
      <point x="338" y="-234"/>
    </contour>
    <contour>
      <point x="43" y="0" type="line"/>
      <point x="306" y="0" type="line"/>
      <point x="306" y="76" type="line"/>
      <point x="241" y="73" type="line"/>
      <point x="244" y="103"/>
      <point x="245" y="142"/>
      <point x="245" y="161" type="curve" smooth="yes"/>
      <point x="245" y="346" type="line" smooth="yes"/>
      <point x="245" y="399"/>
      <point x="249" y="435"/>
      <point x="305" y="435" type="curve"/>
      <point x="305" y="500" type="line"/>
      <point x="42" y="500" type="line"/>
      <point x="42" y="424" type="line"/>
      <point x="106" y="427" type="line"/>
      <point x="104" y="397"/>
      <point x="103" y="358"/>
      <point x="103" y="339" type="curve" smooth="yes"/>
      <point x="103" y="154" type="line" smooth="yes"/>
      <point x="103" y="101"/>
      <point x="99" y="65"/>
      <point x="43" y="65" type="curve"/>
    </contour>
    <contour>
      <point x="181" y="215" type="line"/>
      <point x="455" y="217" type="line"/>
      <point x="455" y="294" type="line"/>
      <point x="181" y="294" type="line"/>
    </contour>
  </outline>
</glyph>
<glyph name="chekhakassian-cy" format="2">
  <advance width="597"/>
  <unicode hex="04CC"/>
  <outline>
    <contour>
      <point x="239" y="-183" type="line"/>
      <point x="304" y="-183" type="line"/>
      <point x="303" y="-49"/>
      <point x="333" y="0"/>
      <point x="385" y="0" type="curve" smooth="yes"/>
      <point x="556" y="0" type="line"/>
      <point x="556" y="76" type="line"/>
      <point x="491" y="73" type="line"/>
      <point x="494" y="103"/>
      <point x="495" y="142"/>
      <point x="495" y="161" type="curve" smooth="yes"/>
      <point x="495" y="346" type="line" smooth="yes"/>
      <point x="495" y="399"/>
      <point x="499" y="435"/>
      <point x="554" y="435" type="curve"/>
      <point x="554" y="500" type="line"/>
      <point x="318" y="500" type="line"/>
      <point x="318" y="424" type="line"/>
      <point x="359" y="427" type="line"/>
      <point x="356" y="397"/>
      <point x="355" y="358"/>
      <point x="355" y="339" type="curve" smooth="yes"/>
      <point x="355" y="269" type="line"/>
      <point x="339" y="264"/>
      <point x="321" y="261"/>
      <point x="298" y="261" type="curve" smooth="yes"/>
      <point x="239" y="261"/>
      <point x="215" y="294"/>
      <point x="212" y="355" type="curve"/>
      <point x="212" y="409"/>
      <point x="211" y="432"/>
      <point x="260" y="435" type="curve"/>
      <point x="260" y="500" type="line"/>
      <point x="10" y="500" type="line"/>
      <point x="10" y="424" type="line"/>
      <point x="74" y="427" type="line"/>
      <point x="72" y="391"/>
      <point x="71" y="366"/>
      <point x="71" y="314" type="curve"/>
      <point x="76" y="226"/>
      <point x="140" y="168"/>
      <point x="247" y="168" type="curve" smooth="yes"/>
      <point x="286" y="168"/>
      <point x="322" y="174"/>
      <point x="355" y="186" type="curve"/>
      <point x="355" y="147" type="line" smooth="yes"/>
      <point x="355" y="82"/>
      <point x="297" y="60"/>
      <point x="244" y="60" type="curve"/>
      <point x="239" y="60" type="line"/>
    </contour>
  </outline>
</glyph>
<glyph name="Emtail-cy" format="2">
  <advance width="972"/>
  <unicode hex="04CD"/>
  <outline>
    <contour>
      <point x="854" y="75" type="line" smooth="yes"/>
      <point x="857" y="92"/>
      <point x="860" y="129"/>
      <point x="858" y="164" type="curve"/>
      <point x="843" y="547" type="line"/>
      <point x="840" y="608"/>
      <point x="851" y="632"/>
      <point x="915" y="634" type="curve"/>
      <point x="915" y="700" type="line"/>
      <point x="684" y="700" type="line"/>
      <point x="529" y="287" type="line"/>
      <point x="513" y="245"/>
      <point x="499" y="201"/>
      <point x="482" y="155" type="curve" smooth="yes"/>
      <point x="481" y="155" type="line" smooth="yes"/>
      <point x="471" y="189"/>
      <point x="443" y="267"/>
      <point x="425" y="313" type="curve"/>
      <point x="274" y="700" type="line"/>
      <point x="53" y="700" type="line"/>
      <point x="53" y="623" type="line"/>
      <point x="128" y="626" type="line" smooth="yes"/>
      <point x="126" y="609"/>
      <point x="125" y="572"/>
      <point x="124" y="536" type="curve"/>
      <point x="118" y="153" type="line"/>
      <point x="117" y="72"/>
      <point x="92" y="68"/>
      <point x="47" y="66" type="curve" smooth="yes"/>
      <point x="47" y="0" type="line"/>
      <point x="275" y="0" type="line"/>
      <point x="275" y="77" type="line"/>
      <point x="199" y="74" type="line" smooth="yes"/>
      <point x="202" y="91"/>
      <point x="204" y="108"/>
      <point x="204" y="164" type="curve"/>
      <point x="204" y="204"/>
      <point x="205" y="313"/>
      <point x="205" y="345" type="curve" smooth="yes"/>
      <point x="206" y="433"/>
      <point x="204" y="470"/>
      <point x="202" y="545" type="curve" smooth="yes"/>
      <point x="224" y="449"/>
      <point x="257" y="356"/>
      <point x="273" y="319" type="curve"/>
      <point x="408" y="-10" type="line"/>
      <point x="501" y="-10" type="line"/>
      <point x="707" y="538" type="line"/>
      <point x="723" y="153" type="line" smooth="yes"/>
      <point x="726" y="72"/>
      <point x="697" y="68"/>
      <point x="652" y="66" type="curve" smooth="yes"/>
      <point x="652" y="0" type="line"/>
      <point x="805" y="0" type="line"/>
      <point x="843" y="0"/>
      <point x="843" y="-18"/>
      <point x="796" y="-177" type="curve" smooth="yes"/>
      <point x="869" y="-177" type="line"/>
      <point x="959" y="80" type="line"/>
    </contour>
  </outline>
</glyph>
<glyph name="Schwa-cy" format="2">
  <advance width="745"/>
  <unicode hex="04D8"/>
  <anchor x="363" y="700" name="top"/>
  <outline>
    <contour>
      <point x="364" y="-16" type="curve" smooth="yes"/>
      <point x="601" y="-16"/>
      <point x="710" y="167"/>
      <point x="710" y="350" type="curve" smooth="yes"/>
      <point x="710" y="524"/>
      <point x="624" y="716"/>
      <point x="361" y="716" type="curve" smooth="yes"/>
      <point x="309" y="716"/>
      <point x="211" y="699"/>
      <point x="157" y="667" type="curve"/>
      <point x="160" y="709" type="line"/>
      <point x="83" y="709" type="line"/>
      <point x="83" y="490" type="line"/>
      <point x="149" y="490" type="line"/>
      <point x="167" y="592"/>
      <point x="243" y="638"/>
      <point x="337" y="639" type="curve" smooth="yes"/>
      <point x="485" y="640"/>
      <point x="538" y="509"/>
      <point x="550" y="392" type="curve"/>
      <point x="49" y="389" type="line"/>
      <point x="46" y="369"/>
      <point x="45" y="348"/>
      <point x="45" y="328" type="curve" smooth="yes"/>
      <point x="45" y="165"/>
      <point x="128" y="-16"/>
    </contour>
    <contour>
      <point x="386" y="57" type="curve" smooth="yes"/>
      <point x="265" y="54"/>
      <point x="203" y="171"/>
      <point x="202" y="314" type="curve"/>
      <point x="553" y="314" type="line"/>
      <point x="548" y="192"/>
      <point x="505" y="61"/>
    </contour>
  </outline>
</glyph>
<glyph name="schwa-cy" format="2">
  <advance width="548"/>
  <unicode hex="04D9"/>
  <anchor x="282" y="500" name="top"/>
  <outline>
    <contour>
      <point x="267" y="-16" type="curve" smooth="yes"/>
      <point x="418" y="-16"/>
      <point x="517" y="111"/>
      <point x="517" y="251" type="curve" smooth="yes"/>
      <point x="517" y="413"/>
      <point x="426" y="516"/>
      <point x="285" y="516" type="curve" smooth="yes"/>
      <point x="233" y="516"/>
      <point x="169" y="498"/>
      <point x="126" y="462" type="curve"/>
      <point x="128" y="512" type="line"/>
      <point x="52" y="512" type="line"/>
      <point x="52" y="335" type="line"/>
      <point x="116" y="335" type="line"/>
      <point x="126" y="392"/>
      <point x="182" y="436"/>
      <point x="244" y="436" type="curve" smooth="yes"/>
      <point x="340" y="436"/>
      <point x="370" y="356"/>
      <point x="370" y="247" type="curve"/>
      <point x="42" y="241" type="line"/>
      <point x="40" y="38"/>
      <point x="156" y="-16"/>
    </contour>
    <contour>
      <point x="262" y="54" type="curve" smooth="yes"/>
      <point x="215" y="54"/>
      <point x="182" y="84"/>
      <point x="180" y="177" type="curve"/>
      <point x="364" y="177" type="line"/>
      <point x="354" y="100"/>
      <point x="321" y="54"/>
    </contour>
  </outline>
</glyph>
<glyph name="Dzeabkhasian-cy" format="2">
  <advance width="649"/>
  <unicode hex="04E0"/>
  <anchor x="325" y="0" name="bottom"/>
  <anchor x="319" y="700" name="top"/>
  <outline>
    <contour>
      <point x="377" y="414" type="curve" smooth="yes"/>
      <point x="257" y="393" type="line"/>
      <point x="257" y="358" type="line"/>
      <point x="344" y="358" type="line"/>
      <point x="424" y="358"/>
      <point x="463" y="303"/>
      <point x="463" y="218" type="curve" smooth="yes"/>
      <point x="463" y="105"/>
      <point x="394" y="65"/>
      <point x="307" y="65" type="curve"/>
      <point x="226" y="65"/>
      <point x="135" y="99"/>
      <point x="79" y="176" type="curve"/>
      <point x="30" y="134" type="line"/>
      <point x="122" y="-1"/>
      <point x="254" y="-16"/>
      <point x="319" y="-16" type="curve"/>
      <point x="476" y="-19"/>
      <point x="621" y="66"/>
      <point x="621" y="213" type="curve" smooth="yes"/>
      <point x="621" y="321"/>
      <point x="542" y="430"/>
    </contour>
    <contour>
      <point x="369" y="531" type="curve" smooth="yes"/>
      <point x="257" y="393" type="line"/>
      <point x="405" y="393" type="line"/>
      <point x="590" y="625" type="line"/>
      <point x="590" y="700" type="line"/>
      <point x="81" y="700" type="line"/>
      <point x="75" y="487" type="line"/>
      <point x="141" y="487" type="line"/>
      <point x="141" y="595"/>
      <point x="194" y="637"/>
      <point x="268" y="635" type="curve" smooth="yes"/>
      <point x="459" y="630" type="line"/>
      <point x="429" y="603"/>
      <point x="408" y="580"/>
    </contour>
  </outline>
</glyph>
<glyph name="dzeabkhasian-cy" format="2">
  <advance width="524"/>
  <unicode hex="04E1"/>
  <guideline x="-287" y="-271" angle="0"/>
  <outline>
    <contour>
      <point x="226" y="-271" type="curve" smooth="yes"/>
      <point x="374" y="-271"/>
      <point x="481" y="-179"/>
      <point x="481" y="-32" type="curve" smooth="yes"/>
      <point x="481" y="99"/>
      <point x="402" y="191"/>
      <point x="282" y="196" type="curve"/>
      <point x="300" y="206"/>
      <point x="315" y="219"/>
      <point x="327" y="235" type="curve" smooth="yes"/>
      <point x="476" y="437" type="line"/>
      <point x="476" y="500" type="line"/>
      <point x="61" y="500" type="line"/>
      <point x="47" y="307" type="line"/>
      <point x="109" y="307" type="line"/>
      <point x="119" y="376"/>
      <point x="138" y="433"/>
      <point x="184" y="433" type="curve" smooth="yes"/>
      <point x="323" y="432" type="line"/>
      <point x="307" y="417"/>
      <point x="289" y="399"/>
      <point x="272" y="375" type="curve" smooth="yes"/>
      <point x="138" y="192" type="line"/>
      <point x="138" y="120" type="line"/>
      <point x="153" y="121"/>
      <point x="185" y="123"/>
      <point x="224" y="123" type="curve" smooth="yes"/>
      <point x="297" y="123"/>
      <point x="332" y="53"/>
      <point x="332" y="-31" type="curve" smooth="yes"/>
      <point x="332" y="-145"/>
      <point x="282" y="-200"/>
      <point x="228" y="-200" type="curve" smooth="yes"/>
      <point x="184" y="-200"/>
      <point x="149" y="-182"/>
      <point x="135" y="-153" type="curve"/>
      <point x="146" y="-139"/>
      <point x="151" y="-125"/>
      <point x="151" y="-112" type="curve" smooth="yes"/>
      <point x="151" y="-86"/>
      <point x="134" y="-47"/>
      <point x="88" y="-48" type="curve" smooth="yes"/>
      <point x="46" y="-49"/>
      <point x="20" y="-84"/>
      <point x="20" y="-125" type="curve" smooth="yes"/>
      <point x="20" y="-193"/>
      <point x="95" y="-271"/>
    </contour>
  </outline>
</glyph>
<glyph name="gedescender-cy" format="2">
  <advance width="496"/>
  <unicode hex="04F7"/>
  <outline>
    <contour>
      <point x="310" y="-177" type="curve"/>
      <point x="383" y="-177" type="line"/>
      <point x="383" y="78" type="line"/>
      <point x="241" y="73" type="line"/>
      <point x="244" y="103"/>
      <point x="245" y="142"/>
      <point x="245" y="161" type="curve" smooth="yes"/>
      <point x="245" y="422" type="line"/>
      <point x="311" y="422" type="line" smooth="yes"/>
      <point x="370" y="422"/>
      <point x="399" y="402"/>
      <point x="399" y="318" type="curve"/>
      <point x="464" y="318" type="line"/>
      <point x="460" y="500" type="line"/>
      <point x="42" y="500" type="line"/>
      <point x="42" y="424" type="line"/>
      <point x="106" y="427" type="line"/>
      <point x="104" y="397"/>
      <point x="103" y="358"/>
      <point x="103" y="339" type="curve" smooth="yes"/>
      <point x="103" y="154" type="line" smooth="yes"/>
      <point x="103" y="101"/>
      <point x="99" y="65"/>
      <point x="43" y="65" type="curve"/>
      <point x="43" y="0" type="line"/>
      <point x="245" y="0" type="line" smooth="yes"/>
      <point x="297" y="0"/>
      <point x="312" y="-73"/>
    </contour>
  </outline>
</glyph>
<glyph name="elhook-cy" format="2">
  <advance width="672"/>
  <unicode hex="0513"/>
  <outline>
    <contour>
      <point x="373" y="-234" type="curve" smooth="yes"/>
      <point x="496" y="-234"/>
      <point x="569" y="-138"/>
      <point x="569" y="8" type="curve" smooth="yes"/>
      <point x="569" y="346" type="line" smooth="yes"/>
      <point x="569" y="399"/>
      <point x="573" y="435"/>
      <point x="629" y="435" type="curve"/>
      <point x="629" y="500" type="line"/>
      <point x="138" y="500" type="line"/>
      <point x="138" y="424" type="line"/>
      <point x="233" y="432" type="line"/>
      <point x="219" y="196"/>
      <point x="187" y="56"/>
      <point x="133" y="56" type="curve" smooth="yes"/>
      <point x="129" y="56"/>
      <point x="125" y="57"/>
      <point x="123" y="59" type="curve"/>
      <point x="128" y="65"/>
      <point x="133" y="73"/>
      <point x="133" y="90" type="curve" smooth="yes"/>
      <point x="133" y="116"/>
      <point x="117" y="144"/>
      <point x="74" y="144" type="curve" smooth="yes"/>
      <point x="33" y="144"/>
      <point x="5" y="120"/>
      <point x="5" y="76" type="curve" smooth="yes"/>
      <point x="5" y="22"/>
      <point x="49" y="-14"/>
      <point x="111" y="-14" type="curve" smooth="yes"/>
      <point x="228" y="-14"/>
      <point x="294" y="113"/>
      <point x="310" y="380" type="curve" smooth="yes"/>
      <point x="312" y="413"/>
      <point x="324" y="421"/>
      <point x="356" y="421" type="curve" smooth="yes"/>
      <point x="431" y="421" type="line"/>
      <point x="428" y="393"/>
      <point x="427" y="358"/>
      <point x="427" y="339" type="curve" smooth="yes"/>
      <point x="427" y="-2" type="line" smooth="yes"/>
      <point x="427" y="-136"/>
      <point x="392" y="-164"/>
      <point x="335" y="-164" type="curve" smooth="yes"/>
      <point x="313" y="-164"/>
      <point x="297" y="-159"/>
      <point x="272" y="-153" type="curve"/>
      <point x="256" y="-217" type="line"/>
      <point x="307" y="-231"/>
      <point x="336" y="-234"/>
    </contour>
  </outline>
</glyph>
<glyph name="pedescender-cy" format="2">
  <advance width="684"/>
  <unicode hex="0525"/>
  <outline>
    <contour>
      <point x="584" y="-177" type="curve"/>
      <point x="657" y="-177" type="line"/>
      <point x="657" y="78" type="line"/>
      <point x="555" y="74" type="line"/>
      <point x="558" y="104"/>
      <point x="559" y="142"/>
      <point x="559" y="161" type="curve" smooth="yes"/>
      <point x="559" y="346" type="line" smooth="yes"/>
      <point x="559" y="399"/>
      <point x="563" y="435"/>
      <point x="618" y="435" type="curve"/>
      <point x="618" y="500" type="line"/>
      <point x="42" y="500" type="line"/>
      <point x="42" y="424" type="line"/>
      <point x="106" y="427" type="line"/>
      <point x="104" y="397"/>
      <point x="103" y="358"/>
      <point x="103" y="339" type="curve" smooth="yes"/>
      <point x="103" y="154" type="line" smooth="yes"/>
      <point x="103" y="101"/>
      <point x="99" y="65"/>
      <point x="43" y="65" type="curve"/>
      <point x="43" y="0" type="line"/>
      <point x="306" y="0" type="line"/>
      <point x="306" y="76" type="line"/>
      <point x="241" y="73" type="line"/>
      <point x="244" y="103"/>
      <point x="245" y="142"/>
      <point x="245" y="161" type="curve" smooth="yes"/>
      <point x="245" y="347" type="line" smooth="yes"/>
      <point x="245" y="392"/>
      <point x="249" y="422"/>
      <point x="305" y="422" type="curve" smooth="yes"/>
      <point x="421" y="422" type="line"/>
      <point x="418" y="394"/>
      <point x="417" y="359"/>
      <point x="417" y="340" type="curve" smooth="yes"/>
      <point x="417" y="154" type="line" smooth="yes"/>
      <point x="417" y="101"/>
      <point x="413" y="65"/>
      <point x="357" y="65" type="curve"/>
      <point x="357" y="0" type="line"/>
      <point x="519" y="0" type="line" smooth="yes"/>
      <point x="571" y="0"/>
      <point x="586" y="-73"/>
    </contour>
  </outline>
</glyph>
<glyph name="enlefthook-cy" format="2">
  <advance width="666"/>
  <unicode hex="0529"/>
  <outline>
    <contour>
      <point x="49" y="-234" type="curve" smooth="yes"/>
      <point x="172" y="-234"/>
      <point x="245" y="-138"/>
      <point x="245" y="8" type="curve" smooth="yes"/>
      <point x="245" y="215" type="line"/>
      <point x="421" y="217" type="line"/>
      <point x="421" y="154" type="line" smooth="yes"/>
      <point x="421" y="101"/>
      <point x="417" y="65"/>
      <point x="361" y="65" type="curve"/>
      <point x="361" y="0" type="line"/>
      <point x="625" y="0" type="line"/>
      <point x="625" y="76" type="line"/>
      <point x="560" y="73" type="line"/>
      <point x="563" y="103"/>
      <point x="563" y="142"/>
      <point x="563" y="161" type="curve" smooth="yes"/>
      <point x="563" y="346" type="line" smooth="yes"/>
      <point x="563" y="399"/>
      <point x="567" y="435"/>
      <point x="623" y="435" type="curve"/>
      <point x="623" y="500" type="line"/>
      <point x="360" y="500" type="line"/>
      <point x="360" y="424" type="line"/>
      <point x="425" y="427" type="line"/>
      <point x="422" y="397"/>
      <point x="421" y="358"/>
      <point x="421" y="339" type="curve" smooth="yes"/>
      <point x="421" y="294" type="line"/>
      <point x="245" y="294" type="line"/>
      <point x="245" y="346" type="line" smooth="yes"/>
      <point x="245" y="399"/>
      <point x="249" y="435"/>
      <point x="305" y="435" type="curve"/>
      <point x="305" y="500" type="line"/>
      <point x="42" y="500" type="line"/>
      <point x="42" y="424" type="line"/>
      <point x="106" y="427" type="line"/>
      <point x="104" y="397"/>
      <point x="103" y="358"/>
      <point x="103" y="339" type="curve" smooth="yes"/>
      <point x="103" y="4" type="line" smooth="yes"/>
      <point x="103" y="-130"/>
      <point x="68" y="-164"/>
      <point x="11" y="-164" type="curve" smooth="yes"/>
      <point x="-11" y="-164"/>
      <point x="-27" y="-159"/>
      <point x="-52" y="-153" type="curve"/>
      <point x="-68" y="-217" type="line"/>
      <point x="-17" y="-231"/>
      <point x="12" y="-234"/>
    </contour>
  </outline>
</glyph>
<glyph name="uni1C85" format="2">
  <advance width="904"/>
  <unicode hex="1C85"/>
  <outline>
    <contour>
      <point x="43" y="0" type="line"/>
      <point x="285" y="0" type="line"/>
      <point x="285" y="76" type="line"/>
      <point x="235" y="73" type="line"/>
      <point x="238" y="103"/>
      <point x="239" y="142"/>
      <point x="239" y="161" type="curve" smooth="yes"/>
      <point x="239" y="346" type="line" smooth="yes"/>
      <point x="239" y="391"/>
      <point x="243" y="421"/>
      <point x="299" y="421" type="curve" smooth="yes"/>
      <point x="387" y="421" type="line"/>
      <point x="384" y="392"/>
      <point x="383" y="358"/>
      <point x="383" y="339" type="curve" smooth="yes"/>
      <point x="383" y="154" type="line" smooth="yes"/>
      <point x="383" y="101"/>
      <point x="380" y="65"/>
      <point x="329" y="65" type="curve"/>
      <point x="329" y="0" type="line"/>
      <point x="567" y="0" type="line"/>
      <point x="567" y="76" type="line"/>
      <point x="516" y="73" type="line"/>
      <point x="519" y="103"/>
      <point x="520" y="142"/>
      <point x="520" y="161" type="curve" smooth="yes"/>
      <point x="520" y="346" type="line" smooth="yes"/>
      <point x="520" y="391"/>
      <point x="524" y="421"/>
      <point x="580" y="421" type="curve" smooth="yes"/>
      <point x="668" y="421" type="line"/>
      <point x="665" y="393"/>
      <point x="664" y="358"/>
      <point x="664" y="339" type="curve" smooth="yes"/>
      <point x="664" y="154" type="line" smooth="yes"/>
      <point x="664" y="101"/>
      <point x="660" y="65"/>
      <point x="609" y="65" type="curve"/>
      <point x="609" y="0" type="line"/>
      <point x="862" y="0" type="line"/>
      <point x="862" y="76" type="line"/>
      <point x="798" y="73" type="line"/>
      <point x="800" y="103"/>
      <point x="801" y="142"/>
      <point x="801" y="161" type="curve" smooth="yes"/>
      <point x="801" y="346" type="line" smooth="yes"/>
      <point x="801" y="399"/>
      <point x="805" y="435"/>
      <point x="861" y="435" type="curve"/>
      <point x="861" y="500" type="line"/>
      <point x="41" y="500" type="line"/>
      <point x="41" y="424" type="line"/>
      <point x="106" y="427" type="line"/>
      <point x="103" y="397"/>
      <point x="102" y="358"/>
      <point x="102" y="339" type="curve" smooth="yes"/>
      <point x="102" y="154" type="line" smooth="yes"/>
      <point x="102" y="101"/>
      <point x="98" y="65"/>
      <point x="43" y="65" type="curve"/>
    </contour>
  </outline>
</glyph>
<glyph name="endash" format="2">
  <advance width="563"/>
  <unicode hex="2013"/>
  <outline>
    <contour>
      <point x="52" y="260" type="line"/>
      <point x="511" y="263" type="line"/>
      <point x="511" y="368" type="line"/>
      <point x="52" y="368" type="line"/>
    </contour>
  </outline>
</glyph>
<glyph name="perthousand" format="2">
  <advance width="1316"/>
  <unicode hex="2030"/>
  <outline>
    <contour>
      <point x="1092" y="-16" type="curve" smooth="yes"/>
      <point x="1197" y="-16"/>
      <point x="1279" y="80"/>
      <point x="1279" y="185" type="curve" smooth="yes"/>
      <point x="1279" y="277"/>
      <point x="1212" y="378"/>
      <point x="1089" y="375" type="curve" smooth="yes"/>
      <point x="970" y="373"/>
      <point x="902" y="270"/>
      <point x="902" y="176" type="curve" smooth="yes"/>
      <point x="902" y="77"/>
      <point x="969" y="-16"/>
    </contour>
    <contour>
      <point x="1092" y="64" type="curve" smooth="yes"/>
      <point x="1038" y="64"/>
      <point x="1025" y="141"/>
      <point x="1025" y="191" type="curve" smooth="yes"/>
      <point x="1025" y="229"/>
      <point x="1039" y="298"/>
      <point x="1090" y="298" type="curve" smooth="yes"/>
      <point x="1141" y="298"/>
      <point x="1156" y="222"/>
      <point x="1156" y="170" type="curve" smooth="yes"/>
      <point x="1156" y="124"/>
      <point x="1142" y="64"/>
    </contour>
    <component base="percent" xOffset="3"/>
  </outline>
</glyph>
<glyph name="minute" format="2">
  <advance width="289"/>
  <unicode hex="2032"/>
  <outline>
    <contour>
      <point x="104" y="480" type="line"/>
      <point x="244" y="757" type="line"/>
      <point x="133" y="804" type="line"/>
      <point x="45" y="507" type="line"/>
    </contour>
  </outline>
</glyph>
<glyph name="guilsinglright" format="2">
  <advance width="378"/>
  <unicode hex="203A"/>
  <outline>
    <contour>
      <point x="88" y="-16" type="line"/>
      <point x="359" y="262" type="line"/>
      <point x="359" y="284" type="line"/>
      <point x="90" y="553" type="line"/>
      <point x="33" y="498" type="line"/>
      <point x="215" y="275" type="line"/>
      <point x="215" y="274" type="line"/>
      <point x="33" y="39" type="line"/>
    </contour>
  </outline>
</glyph>
<glyph name="fraction" format="2">
  <advance width="467"/>
  <unicode hex="2044"/>
  <outline>
    <contour>
      <point x="43" y="-16" type="line"/>
      <point x="489" y="663" type="line"/>
      <point x="421" y="716" type="line"/>
      <point x="-22" y="32" type="line"/>
    </contour>
  </outline>
</glyph>
<glyph name="trademark" format="2">
  <advance width="1110"/>
  <unicode hex="2122"/>
  <outline>
    <contour>
      <point x="706" y="281" type="line"/>
      <point x="784" y="281" type="line"/>
      <point x="902" y="604" type="line"/>
      <point x="904" y="568"/>
      <point x="905" y="516"/>
      <point x="906" y="502" type="curve" smooth="yes"/>
      <point x="911" y="386" type="line" smooth="yes"/>
      <point x="912" y="339"/>
      <point x="895" y="336"/>
      <point x="869" y="335" type="curve"/>
      <point x="869" y="287" type="line"/>
      <point x="1049" y="287" type="line"/>
      <point x="1049" y="342" type="line"/>
      <point x="1004" y="340" type="line"/>
      <point x="1006" y="350"/>
      <point x="1007" y="372"/>
      <point x="1007" y="393" type="curve" smooth="yes"/>
      <point x="999" y="602" type="line" smooth="yes"/>
      <point x="998" y="649"/>
      <point x="1015" y="651"/>
      <point x="1042" y="653" type="curve"/>
      <point x="1042" y="700" type="line"/>
      <point x="884" y="700" type="line"/>
      <point x="794" y="466" type="line" smooth="yes"/>
      <point x="788" y="452"/>
      <point x="771" y="403"/>
      <point x="764" y="379" type="curve"/>
      <point x="755" y="408"/>
      <point x="747" y="435"/>
      <point x="732" y="471" type="curve" smooth="yes"/>
      <point x="634" y="700" type="line"/>
      <point x="481" y="700" type="line"/>
      <point x="481" y="646" type="line"/>
      <point x="526" y="648" type="line"/>
      <point x="524" y="637"/>
      <point x="523" y="601"/>
      <point x="518" y="386" type="curve" smooth="yes"/>
      <point x="518" y="339"/>
      <point x="504" y="336"/>
      <point x="478" y="335" type="curve"/>
      <point x="478" y="287" type="line"/>
      <point x="621" y="287" type="line"/>
      <point x="621" y="342" type="line"/>
      <point x="576" y="340" type="line"/>
      <point x="577" y="350"/>
      <point x="580" y="372"/>
      <point x="580" y="393" type="curve" smooth="yes"/>
      <point x="579" y="490" type="line"/>
      <point x="580" y="526"/>
      <point x="578" y="563"/>
      <point x="578" y="603" type="curve"/>
      <point x="589" y="556"/>
      <point x="610" y="497"/>
      <point x="620" y="476" type="curve" smooth="yes"/>
    </contour>
    <contour>
      <point x="167" y="287" type="line"/>
      <point x="357" y="287" type="line"/>
      <point x="357" y="342" type="line"/>
      <point x="310" y="340" type="line"/>
      <point x="311" y="351"/>
      <point x="312" y="372"/>
      <point x="312" y="394" type="curve" smooth="yes"/>
      <point x="312" y="646" type="line"/>
      <point x="345" y="646" type="line" smooth="yes"/>
      <point x="390" y="647"/>
      <point x="418" y="616"/>
      <point x="418" y="552" type="curve"/>
      <point x="457" y="552" type="line"/>
      <point x="454" y="700" type="line"/>
      <point x="68" y="700" type="line"/>
      <point x="65" y="552" type="line"/>
      <point x="104" y="552" type="line"/>
      <point x="104" y="616"/>
      <point x="132" y="646"/>
      <point x="177" y="646" type="curve" smooth="yes"/>
      <point x="209" y="646" type="line"/>
      <point x="209" y="387" type="line" smooth="yes"/>
      <point x="209" y="339"/>
      <point x="193" y="337"/>
      <point x="167" y="335" type="curve"/>
    </contour>
  </outline>
</glyph>
<glyph name="estimated" format="2">
  <advance width="556"/>
  <unicode hex="212E"/>
  <outline>
    <contour>
      <point x="277" y="-13" type="curve" smooth="yes"/>
      <point x="370" y="-13"/>
      <point x="441" y="32"/>
      <point x="495" y="114" type="curve"/>
      <point x="462" y="134" type="line"/>
      <point x="418" y="60"/>
      <point x="356" y="21"/>
      <point x="277" y="21" type="curve" smooth="yes"/>
      <point x="225" y="21"/>
      <point x="178" y="41"/>
      <point x="139" y="77" type="curve"/>
      <point x="139" y="248" type="line"/>
      <point x="525" y="248" type="line"/>
      <point x="520" y="391"/>
      <point x="436" y="508"/>
      <point x="277" y="508" type="curve" smooth="yes"/>
      <point x="129" y="508"/>
      <point x="31" y="396"/>
      <point x="31" y="248" type="curve" smooth="yes"/>
      <point x="31" y="101"/>
      <point x="126" y="-13"/>
    </contour>
    <contour>
      <point x="139" y="282" type="line"/>
      <point x="139" y="418" type="line"/>
      <point x="176" y="457"/>
      <point x="222" y="476"/>
      <point x="276" y="476" type="curve" smooth="yes"/>
      <point x="330" y="476"/>
      <point x="377" y="457"/>
      <point x="417" y="418" type="curve"/>
      <point x="417" y="282" type="line"/>
    </contour>
  </outline>
</glyph>
<glyph name="divisionslash" format="2">
  <advance width="375"/>
  <unicode hex="2215"/>
  <outline>
    <contour>
      <point x="48" y="-49" type="line"/>
      <point x="370" y="697" type="line"/>
      <point x="293" y="738" type="line"/>
      <point x="-24" y="-13" type="line"/>
    </contour>
  </outline>
</glyph>
<glyph name="leftanglebracket-math" format="2">
  <advance width="381"/>
  <unicode hex="27E8"/>
  <guideline x="282" y="817" angle="90"/>
  <outline>
    <contour>
      <point x="282" y="-77" type="line"/>
      <point x="334" y="-35" type="line"/>
      <point x="134" y="366" type="line"/>
      <point x="336" y="760" type="line"/>
      <point x="282" y="801" type="line"/>
      <point x="34" y="387" type="line"/>
      <point x="34" y="343" type="line"/>
    </contour>
  </outline>
</glyph>
<glyph name="fi" format="2">
  <advance width="667"/>
  <unicode hex="FB01"/>
  <outline>
    <contour>
      <point x="43" y="0" type="line"/>
      <point x="310" y="0" type="line"/>
      <point x="310" y="76" type="line"/>
      <point x="296" y="76"/>
      <point x="262" y="75"/>
      <point x="240" y="73" type="curve"/>
      <point x="243" y="103"/>
      <point x="244" y="144"/>
      <point x="244" y="163" type="curve" smooth="yes"/>
      <point x="243" y="421" type="line"/>
      <point x="444" y="426" type="line"/>
      <point x="441" y="396"/>
      <point x="440" y="363"/>
      <point x="440" y="339" type="curve" smooth="yes"/>
      <point x="440" y="154" type="line" smooth="yes"/>
      <point x="440" y="101"/>
      <point x="437" y="65"/>
      <point x="381" y="65" type="curve"/>
      <point x="381" y="0" type="line"/>
      <point x="643" y="0" type="line"/>
      <point x="643" y="76" type="line"/>
      <point x="629" y="76"/>
      <point x="600" y="75"/>
      <point x="578" y="73" type="curve"/>
      <point x="581" y="103"/>
      <point x="582" y="142"/>
      <point x="582" y="161" type="curve" smooth="yes"/>
      <point x="582" y="510" type="line"/>
      <point x="528" y="510" type="line"/>
      <point x="514" y="497"/>
      <point x="417" y="500"/>
      <point x="325" y="500" type="curve" smooth="yes"/>
      <point x="242" y="500" type="line"/>
      <point x="242" y="524" type="line" smooth="yes"/>
      <point x="242" y="603"/>
      <point x="250" y="684"/>
      <point x="362" y="684" type="curve" smooth="yes"/>
      <point x="425" y="684"/>
      <point x="451" y="658"/>
      <point x="456" y="652" type="curve"/>
      <point x="454" y="645"/>
      <point x="453" y="638"/>
      <point x="453" y="631" type="curve" smooth="yes"/>
      <point x="453" y="596"/>
      <point x="479" y="570"/>
      <point x="517" y="571" type="curve" smooth="yes"/>
      <point x="558" y="572"/>
      <point x="578" y="609"/>
      <point x="578" y="639" type="curve" smooth="yes"/>
      <point x="579" y="677"/>
      <point x="515" y="755"/>
      <point x="342" y="755" type="curve" smooth="yes"/>
      <point x="186" y="755"/>
      <point x="111" y="684"/>
      <point x="103" y="500" type="curve"/>
      <point x="30" y="500" type="line"/>
      <point x="30" y="417" type="line"/>
      <point x="103" y="418" type="line"/>
      <point x="103" y="154" type="line" smooth="yes"/>
      <point x="103" y="101"/>
      <point x="99" y="65"/>
      <point x="43" y="65" type="curve"/>
    </contour>
  </outline>
</glyph>
<glyph name="fl" format="2">
  <advance width="675"/>
  <unicode hex="FB02"/>
  <outline>
    <contour>
      <point x="103" y="515" type="curve" smooth="yes"/>
      <point x="103" y="500" type="line"/>
      <point x="30" y="500" type="line"/>
      <point x="30" y="417" type="line"/>
      <point x="103" y="418" type="line"/>
      <point x="103" y="154" type="line" smooth="yes"/>
      <point x="103" y="101"/>
      <point x="99" y="65"/>
      <point x="43" y="65" type="curve"/>
      <point x="43" y="0" type="line"/>
      <point x="310" y="0" type="line"/>
      <point x="310" y="76" type="line"/>
      <point x="296" y="76"/>
      <point x="262" y="75"/>
      <point x="240" y="73" type="curve"/>
      <point x="243" y="103"/>
      <point x="244" y="144"/>
      <point x="244" y="163" type="curve" smooth="yes"/>
      <point x="243" y="420" type="line"/>
      <point x="354" y="423" type="line"/>
      <point x="354" y="500" type="line"/>
      <point x="242" y="500" type="line"/>
      <point x="242" y="572" type="line" smooth="yes"/>
      <point x="241" y="626"/>
      <point x="264" y="679"/>
      <point x="330" y="679" type="curve" smooth="yes"/>
      <point x="384" y="679"/>
      <point x="407" y="668"/>
      <point x="447" y="646" type="curve"/>
      <point x="447" y="154" type="line" smooth="yes"/>
      <point x="447" y="101"/>
      <point x="443" y="65"/>
      <point x="388" y="65" type="curve"/>
      <point x="388" y="0" type="line"/>
      <point x="650" y="0" type="line"/>
      <point x="650" y="76" type="line"/>
      <point x="636" y="76"/>
      <point x="606" y="75"/>
      <point x="585" y="73" type="curve"/>
      <point x="588" y="103"/>
      <point x="589" y="142"/>
      <point x="589" y="161" type="curve" smooth="yes"/>
      <point x="589" y="755" type="line"/>
      <point x="535" y="755" type="line"/>
      <point x="519" y="741"/>
      <point x="503" y="733"/>
      <point x="476" y="733" type="curve" smooth="yes"/>
      <point x="425" y="733"/>
      <point x="379" y="755"/>
      <point x="304" y="755" type="curve" smooth="yes"/>
      <point x="184" y="755"/>
      <point x="103" y="688"/>
    </contour>
  </outline>
</glyph>
<glyph name="De-cy.loclBGR" format="2">
  <advance width="702"/>
  <outline>
    <contour>
      <point x="4" y="-178" type="line"/>
      <point x="76" y="-178" type="line"/>
      <point x="75" y="-56"/>
      <point x="95" y="0"/>
      <point x="141" y="0" type="curve" smooth="yes"/>
      <point x="560" y="0" type="line" smooth="yes"/>
      <point x="606" y="0"/>
      <point x="627" y="-57"/>
      <point x="626" y="-178" type="curve"/>
      <point x="698" y="-178" type="line"/>
      <point x="698" y="78" type="line"/>
      <point x="614" y="77" type="line"/>
      <point x="612" y="95"/>
      <point x="607" y="114"/>
      <point x="586" y="173" type="curve" smooth="yes"/>
      <point x="384" y="718" type="line"/>
      <point x="314" y="718" type="line"/>
      <point x="128" y="183" type="line" smooth="yes"/>
      <point x="99" y="99"/>
      <point x="80" y="75"/>
      <point x="42" y="71" type="curve"/>
      <point x="4" y="71" type="line"/>
    </contour>
    <contour>
      <point x="173" y="73" type="line"/>
      <point x="182" y="91"/>
      <point x="197" y="129"/>
      <point x="205" y="154" type="curve" smooth="yes"/>
      <point x="284" y="410" type="line"/>
      <point x="322" y="542" type="line"/>
      <point x="360" y="405" type="line"/>
      <point x="440" y="154" type="line" smooth="yes"/>
      <point x="459" y="95"/>
      <point x="451" y="77"/>
      <point x="408" y="75" type="curve" smooth="yes"/>
    </contour>
  </outline>
</glyph>
<glyph name="__verticalbar-cy.case" format="2">
  <advance width="164"/>
  <anchor x="102" y="306" name="_center"/>
  <outline>
    <contour>
      <point x="50" y="209" type="line"/>
      <point x="114" y="209" type="line"/>
      <point x="114" y="500" type="line"/>
      <point x="50" y="500" type="line"/>
    </contour>
  </outline>
</glyph>
<glyph name="__verticalbar-cy" format="2">
  <advance width="144"/>
  <anchor x="72" y="216" name="_center"/>
  <outline>
    <contour>
      <point x="35" y="108" type="line"/>
      <point x="94" y="108" type="line"/>
      <point x="94" y="377" type="line"/>
      <point x="35" y="377" type="line"/>
    </contour>
  </outline>
</glyph>
<glyph name="brevecomb-cy.case" format="2">
  <anchor x="236" y="700" name="_top"/>
  <outline>
    <contour>
      <point x="105" y="926" type="curve" smooth="yes"/>
      <point x="66" y="926"/>
      <point x="50" y="895"/>
      <point x="50" y="863" type="curve" smooth="yes"/>
      <point x="50" y="795"/>
      <point x="136" y="760"/>
      <point x="236" y="760" type="curve" smooth="yes"/>
      <point x="335" y="760"/>
      <point x="422" y="795"/>
      <point x="422" y="863" type="curve" smooth="yes"/>
      <point x="422" y="895"/>
      <point x="405" y="926"/>
      <point x="366" y="926" type="curve" smooth="yes"/>
      <point x="320" y="928"/>
      <point x="307" y="885"/>
      <point x="307" y="870" type="curve" smooth="yes"/>
      <point x="307" y="858"/>
      <point x="310" y="844"/>
      <point x="317" y="830" type="curve"/>
      <point x="298" y="817"/>
      <point x="266" y="810"/>
      <point x="236" y="810" type="curve" smooth="yes"/>
      <point x="205" y="810"/>
      <point x="174" y="817"/>
      <point x="154" y="830" type="curve"/>
      <point x="161" y="844"/>
      <point x="164" y="858"/>
      <point x="164" y="870" type="curve" smooth="yes"/>
      <point x="164" y="885"/>
      <point x="152" y="928"/>
    </contour>
  </outline>
</glyph>
<glyph name="brevecomb-cy" format="2">
  <anchor x="209" y="500" name="_top"/>
  <outline>
    <contour>
      <point x="209" y="580" type="curve" smooth="yes"/>
      <point x="302" y="580"/>
      <point x="368" y="619"/>
      <point x="368" y="687" type="curve" smooth="yes"/>
      <point x="368" y="723"/>
      <point x="349" y="749"/>
      <point x="311" y="748" type="curve" smooth="yes"/>
      <point x="264" y="748"/>
      <point x="253" y="705"/>
      <point x="253" y="689" type="curve" smooth="yes"/>
      <point x="254" y="677"/>
      <point x="257" y="664"/>
      <point x="265" y="650" type="curve"/>
      <point x="248" y="634"/>
      <point x="232" y="629"/>
      <point x="209" y="629" type="curve" smooth="yes"/>
      <point x="186" y="629"/>
      <point x="171" y="634"/>
      <point x="153" y="650" type="curve"/>
      <point x="161" y="664"/>
      <point x="164" y="677"/>
      <point x="165" y="689" type="curve" smooth="yes"/>
      <point x="165" y="705"/>
      <point x="154" y="748"/>
      <point x="106" y="748" type="curve" smooth="yes"/>
      <point x="69" y="749"/>
      <point x="50" y="723"/>
      <point x="50" y="687" type="curve" smooth="yes"/>
      <point x="50" y="619"/>
      <point x="116" y="580"/>
    </contour>
  </outline>
</glyph>
<glyph name="brevecomb.case" format="2">
  <anchor x="203" y="700" name="_top"/>
  <outline>
    <contour>
      <point x="205" y="782" type="curve" smooth="yes"/>
      <point x="269" y="782"/>
      <point x="343" y="813"/>
      <point x="375" y="903" type="curve"/>
      <point x="333" y="924" type="line"/>
      <point x="305" y="896"/>
      <point x="268" y="869"/>
      <point x="205" y="869" type="curve" smooth="yes"/>
      <point x="142" y="869"/>
      <point x="104" y="896"/>
      <point x="76" y="924" type="curve"/>
      <point x="34" y="903" type="line"/>
      <point x="66" y="813"/>
      <point x="141" y="782"/>
    </contour>
  </outline>
</glyph>
<glyph name="brevecomb_acutecomb.case" format="2">
  <outline>
    <contour>
      <point x="206" y="600" type="curve" smooth="yes"/>
      <point x="274" y="600"/>
      <point x="331" y="638"/>
      <point x="366" y="735" type="curve"/>
      <point x="301" y="764" type="line"/>
      <point x="282" y="727"/>
      <point x="256" y="692"/>
      <point x="210" y="692" type="curve" smooth="yes"/>
      <point x="163" y="692"/>
      <point x="136" y="726"/>
      <point x="115" y="763" type="curve"/>
      <point x="50" y="730" type="line"/>
      <point x="81" y="634"/>
      <point x="150" y="600"/>
    </contour>
    <contour>
      <point x="211" y="754" type="line"/>
      <point x="332" y="860" type="line" smooth="yes"/>
      <point x="359" y="885"/>
      <point x="372" y="930"/>
      <point x="341" y="959" type="curve" smooth="yes"/>
      <point x="309" y="984"/>
      <point x="268" y="968"/>
      <point x="247" y="935" type="curve" smooth="yes"/>
      <point x="165" y="795" type="line"/>
    </contour>
  </outline>
</glyph>
<glyph name="brevecomb_tildecomb.case" format="2">
  <outline>
    <contour>
      <point x="200" y="600" type="curve" smooth="yes"/>
      <point x="268" y="600"/>
      <point x="325" y="638"/>
      <point x="360" y="735" type="curve"/>
      <point x="295" y="764" type="line"/>
      <point x="276" y="727"/>
      <point x="250" y="692"/>
      <point x="204" y="692" type="curve" smooth="yes"/>
      <point x="157" y="692"/>
      <point x="130" y="726"/>
      <point x="109" y="763" type="curve"/>
      <point x="44" y="730" type="line"/>
      <point x="75" y="634"/>
      <point x="144" y="600"/>
    </contour>
    <contour>
      <point x="395" y="900" type="curve"/>
      <point x="338" y="929" type="line"/>
      <point x="321" y="898"/>
      <point x="299" y="879"/>
      <point x="276" y="879" type="curve" smooth="yes"/>
      <point x="228" y="879"/>
      <point x="216" y="917"/>
      <point x="154" y="917" type="curve" smooth="yes"/>
      <point x="109" y="917"/>
      <point x="59" y="875"/>
      <point x="37" y="814" type="curve"/>
      <point x="93" y="781" type="line"/>
      <point x="113" y="813"/>
      <point x="139" y="822"/>
      <point x="155" y="822" type="curve" smooth="yes"/>
      <point x="195" y="822"/>
      <point x="222" y="783"/>
      <point x="276" y="783" type="curve" smooth="yes"/>
      <point x="316" y="783"/>
      <point x="367" y="817"/>
    </contour>
  </outline>
</glyph>
<glyph name="caroncomb.case" format="2">
  <anchor x="230" y="700" name="_top"/>
  <anchor x="230" y="963" name="top"/>
  <outline>
    <contour>
      <point x="216" y="765" type="line"/>
      <point x="235" y="765" type="line"/>
      <point x="439" y="918" type="line"/>
      <point x="413" y="963" type="line"/>
      <point x="230" y="874" type="line"/>
      <point x="52" y="961" type="line"/>
      <point x="21" y="915" type="line"/>
    </contour>
  </outline>
</glyph>
<glyph name="cedillacomb.case" format="2">
  <anchor x="84" y="0" name="_bottom"/>
  <anchor x="164" y="-275" name="bottom"/>
  <outline>
    <contour>
      <point x="53" y="-275" type="line"/>
      <point x="130" y="-264"/>
      <point x="283" y="-219"/>
      <point x="283" y="-125" type="curve" smooth="yes"/>
      <point x="283" y="-78"/>
      <point x="249" y="-53"/>
      <point x="207" y="-52" type="curve" smooth="yes"/>
      <point x="189" y="-51"/>
      <point x="155" y="-59"/>
      <point x="139" y="-67" type="curve"/>
      <point x="167" y="10" type="line"/>
      <point x="86" y="10" type="line"/>
      <point x="56" y="-121" type="line"/>
      <point x="97" y="-136" type="line"/>
      <point x="117" y="-120"/>
      <point x="165" y="-109"/>
      <point x="165" y="-146" type="curve" smooth="yes"/>
      <point x="165" y="-187"/>
      <point x="77" y="-214"/>
      <point x="45" y="-220" type="curve"/>
    </contour>
  </outline>
</glyph>
<glyph name="che-cy.loclBGR" format="2">
  <advance width="603"/>
  <outline>
    <contour>
      <point x="299" y="0" type="line"/>
      <point x="562" y="0" type="line"/>
      <point x="562" y="76" type="line"/>
      <point x="497" y="73" type="line"/>
      <point x="500" y="103"/>
      <point x="501" y="142"/>
      <point x="501" y="161" type="curve" smooth="yes"/>
      <point x="501" y="510" type="line"/>
      <point x="446" y="510" type="line"/>
      <point x="432" y="497"/>
      <point x="385" y="480"/>
      <point x="293" y="480" type="curve"/>
      <point x="293" y="404" type="line"/>
      <point x="307" y="405"/>
      <point x="342" y="406"/>
      <point x="363" y="407" type="curve"/>
      <point x="360" y="377"/>
      <point x="359" y="344"/>
      <point x="359" y="320" type="curve" smooth="yes"/>
      <point x="359" y="269" type="line"/>
      <point x="343" y="264"/>
      <point x="325" y="261"/>
      <point x="302" y="261" type="curve" smooth="yes"/>
      <point x="243" y="261"/>
      <point x="221" y="294"/>
      <point x="218" y="355" type="curve"/>
      <point x="219" y="510" type="line"/>
      <point x="164" y="510" type="line"/>
      <point x="150" y="497"/>
      <point x="103" y="480"/>
      <point x="10" y="480" type="curve"/>
      <point x="10" y="404" type="line"/>
      <point x="24" y="405"/>
      <point x="59" y="406"/>
      <point x="80" y="407" type="curve"/>
      <point x="78" y="377"/>
      <point x="76" y="342"/>
      <point x="77" y="318" type="curve" smooth="yes"/>
      <point x="82" y="227"/>
      <point x="146" y="168"/>
      <point x="253" y="168" type="curve" smooth="yes"/>
      <point x="290" y="168"/>
      <point x="326" y="174"/>
      <point x="359" y="186" type="curve"/>
      <point x="359" y="154" type="line" smooth="yes"/>
      <point x="359" y="101"/>
      <point x="355" y="65"/>
      <point x="299" y="65" type="curve"/>
    </contour>
  </outline>
</glyph>
<glyph name="circumflexcomb_gravecomb" format="2">
  <outline>
    <contour>
      <point x="340.602" y="549.634" type="line"/>
      <point x="367.046" y="588.474" type="line"/>
      <point x="237.302" y="712.434" type="line"/>
      <point x="221.6" y="712.434" type="line"/>
      <point x="85.244" y="588.474" type="line"/>
      <point x="107.557" y="551.286" type="line"/>
      <point x="225.732" y="621.53" type="line"/>
    </contour>
    <contour>
      <point x="378" y="681" type="line"/>
      <point x="424" y="722" type="line"/>
      <point x="342" y="862" type="line" smooth="yes"/>
      <point x="321" y="895"/>
      <point x="280" y="911"/>
      <point x="249" y="886" type="curve" smooth="yes"/>
      <point x="217" y="857"/>
      <point x="230" y="812"/>
      <point x="257" y="787" type="curve" smooth="yes"/>
    </contour>
  </outline>
</glyph>
<glyph name="circumflexcomb_hookabovecomb.case" format="2">
  <outline>
    <contour>
      <point x="375.602" y="550.634" type="line"/>
      <point x="402.046" y="589.474" type="line"/>
      <point x="272.302" y="713.434" type="line"/>
      <point x="256.6" y="713.434" type="line"/>
      <point x="120.244" y="589.474" type="line"/>
      <point x="142.557" y="552.286" type="line"/>
      <point x="260.732" y="622.53" type="line"/>
    </contour>
    <contour>
      <point x="384" y="688" type="curve"/>
      <point x="446" y="688" type="line"/>
      <point x="446" y="700"/>
      <point x="457" y="714"/>
      <point x="473" y="727" type="curve" smooth="yes"/>
      <point x="492" y="743"/>
      <point x="515" y="757"/>
      <point x="515" y="793" type="curve" smooth="yes"/>
      <point x="515" y="850"/>
      <point x="469" y="886"/>
      <point x="390" y="886" type="curve" smooth="yes"/>
      <point x="319" y="886"/>
      <point x="278" y="837"/>
      <point x="278" y="792" type="curve" smooth="yes"/>
      <point x="278" y="764"/>
      <point x="299" y="741"/>
      <point x="330" y="741" type="curve" smooth="yes"/>
      <point x="353" y="741"/>
      <point x="365" y="757"/>
      <point x="365" y="772" type="curve" smooth="yes"/>
      <point x="365" y="786"/>
      <point x="355" y="799"/>
      <point x="335" y="799" type="curve"/>
      <point x="337" y="808"/>
      <point x="352" y="826"/>
      <point x="390" y="826" type="curve" smooth="yes"/>
      <point x="418" y="826"/>
      <point x="440" y="812"/>
      <point x="440" y="784" type="curve" smooth="yes"/>
      <point x="440" y="767"/>
      <point x="432" y="755"/>
      <point x="423" y="745" type="curve" smooth="yes"/>
      <point x="407" y="727"/>
      <point x="384" y="716"/>
    </contour>
  </outline>
</glyph>
<glyph name="en-cy.loclBGR" format="2">
  <advance width="666"/>
  <outline>
    <contour>
      <point x="43" y="0" type="line"/>
      <point x="306" y="0" type="line"/>
      <point x="306" y="76" type="line"/>
      <point x="241" y="73" type="line"/>
      <point x="244" y="103"/>
      <point x="245" y="142"/>
      <point x="245" y="161" type="curve" smooth="yes"/>
      <point x="245" y="215" type="line"/>
      <point x="421" y="217" type="line"/>
      <point x="421" y="154" type="line" smooth="yes"/>
      <point x="421" y="101"/>
      <point x="417" y="65"/>
      <point x="361" y="65" type="curve"/>
      <point x="361" y="0" type="line"/>
      <point x="625" y="0" type="line"/>
      <point x="625" y="76" type="line"/>
      <point x="560" y="73" type="line"/>
      <point x="563" y="103"/>
      <point x="563" y="142"/>
      <point x="563" y="161" type="curve" smooth="yes"/>
      <point x="563" y="510" type="line"/>
      <point x="508" y="510" type="line"/>
      <point x="494" y="497"/>
      <point x="447" y="480"/>
      <point x="355" y="480" type="curve"/>
      <point x="355" y="404" type="line"/>
      <point x="369" y="405"/>
      <point x="404" y="406"/>
      <point x="425" y="407" type="curve"/>
      <point x="422" y="377"/>
      <point x="421" y="344"/>
      <point x="421" y="320" type="curve" smooth="yes"/>
      <point x="421" y="294" type="line"/>
      <point x="245" y="294" type="line"/>
      <point x="245" y="510" type="line"/>
      <point x="190" y="510" type="line"/>
      <point x="176" y="497"/>
      <point x="129" y="480"/>
      <point x="36" y="480" type="curve"/>
      <point x="36" y="404" type="line"/>
      <point x="50" y="405"/>
      <point x="85" y="406"/>
      <point x="106" y="407" type="curve"/>
      <point x="104" y="377"/>
      <point x="103" y="344"/>
      <point x="103" y="320" type="curve" smooth="yes"/>
      <point x="103" y="154" type="line" smooth="yes"/>
      <point x="103" y="101"/>
      <point x="99" y="65"/>
      <point x="43" y="65" type="curve"/>
    </contour>
  </outline>
</glyph>
<glyph name="four.tf" format="2">
  <advance width="650"/>
  <outline>
    <contour>
      <point x="492" y="164" type="curve" smooth="yes"/>
      <point x="492" y="181" type="line"/>
      <point x="601" y="181" type="line"/>
      <point x="601" y="271" type="line"/>
      <point x="492" y="271" type="line"/>
      <point x="492" y="716" type="line"/>
      <point x="432" y="716" type="line"/>
      <point x="49" y="275" type="line"/>
      <point x="49" y="181" type="line"/>
      <point x="356" y="181" type="line"/>
      <point x="356" y="153" type="line" smooth="yes"/>
      <point x="356" y="68"/>
      <point x="320" y="66"/>
      <point x="272" y="66" type="curve" smooth="yes"/>
      <point x="265" y="66" type="line"/>
      <point x="265" y="0" type="line"/>
      <point x="571" y="0" type="line"/>
      <point x="571" y="77" type="line"/>
      <point x="553" y="77"/>
      <point x="513" y="76"/>
      <point x="488" y="74" type="curve"/>
      <point x="491" y="91"/>
      <point x="492" y="128"/>
    </contour>
    <contour>
      <point x="354" y="506" type="line"/>
      <point x="356" y="506" type="line"/>
      <point x="356" y="273" type="line"/>
      <point x="145" y="274" type="line"/>
    </contour>
  </outline>
</glyph>
<glyph name="ge-cy.loclBGR" format="2">
  <advance width="458"/>
  <outline>
    <contour>
      <point x="215" y="-16" type="curve" smooth="yes"/>
      <point x="311" y="-16"/>
      <point x="397" y="33"/>
      <point x="453" y="111" type="curve"/>
      <point x="408" y="154" type="line"/>
      <point x="357" y="92"/>
      <point x="308" y="78"/>
      <point x="271" y="78" type="curve" smooth="yes"/>
      <point x="237" y="78"/>
      <point x="196" y="94"/>
      <point x="197" y="146" type="curve" smooth="yes"/>
      <point x="198" y="182"/>
      <point x="220" y="209"/>
      <point x="283" y="242" type="curve" smooth="yes"/>
      <point x="369" y="287"/>
      <point x="430" y="333"/>
      <point x="430" y="403" type="curve" smooth="yes"/>
      <point x="430" y="459"/>
      <point x="386" y="518"/>
      <point x="273" y="516" type="curve" smooth="yes"/>
      <point x="221" y="515"/>
      <point x="170" y="501"/>
      <point x="131" y="481" type="curve"/>
      <point x="131" y="511" type="line"/>
      <point x="55" y="511" type="line"/>
      <point x="55" y="334" type="line"/>
      <point x="119" y="334" type="line"/>
      <point x="131" y="430"/>
      <point x="187" y="438"/>
      <point x="216" y="438" type="curve" smooth="yes"/>
      <point x="253" y="438"/>
      <point x="275" y="412"/>
      <point x="275" y="373" type="curve" smooth="yes"/>
      <point x="275" y="324"/>
      <point x="244" y="293"/>
      <point x="205" y="274" type="curve" smooth="yes"/>
      <point x="82" y="214"/>
      <point x="40" y="173"/>
      <point x="40" y="105" type="curve" smooth="yes"/>
      <point x="40" y="23"/>
      <point x="120" y="-16"/>
    </contour>
  </outline>
</glyph>
<glyph name="ghestroke-cy.loclBSH" format="2">
  <advance width="496"/>
  <outline>
    <contour>
      <point x="195" y="211" type="line"/>
      <point x="365" y="214" type="line"/>
      <point x="365" y="277" type="line"/>
      <point x="195" y="277" type="line"/>
    </contour>
    <component base="ge-cy"/>
  </outline>
</glyph>
<glyph name="gravecomb.case" format="2">
  <anchor x="192" y="700" name="_top"/>
  <outline>
    <contour>
      <point x="215" y="750" type="line"/>
      <point x="251" y="799" type="line"/>
      <point x="140" y="917" type="line" smooth="yes"/>
      <point x="112" y="945"/>
      <point x="68" y="952"/>
      <point x="43" y="919" type="curve" smooth="yes"/>
      <point x="20" y="885"/>
      <point x="42" y="845"/>
      <point x="73" y="825" type="curve" smooth="yes"/>
    </contour>
  </outline>
</glyph>
<glyph name="hardsign-cy.loclBGR" format="2">
  <advance width="678"/>
  <outline>
    <contour>
      <point x="431" y="-16" type="curve" smooth="yes"/>
      <point x="546" y="-16"/>
      <point x="636" y="36"/>
      <point x="636" y="150" type="curve" smooth="yes"/>
      <point x="636" y="244"/>
      <point x="590" y="310"/>
      <point x="401" y="304" type="curve" smooth="yes"/>
      <point x="385" y="303"/>
      <point x="370" y="303"/>
      <point x="354" y="302" type="curve"/>
      <point x="353" y="500" type="line"/>
      <point x="19" y="500" type="line"/>
      <point x="15" y="318" type="line"/>
      <point x="80" y="318" type="line"/>
      <point x="80" y="397"/>
      <point x="109" y="422"/>
      <point x="169" y="422" type="curve" smooth="yes"/>
      <point x="214" y="422" type="line"/>
      <point x="212" y="393"/>
      <point x="211" y="357"/>
      <point x="211" y="339" type="curve" smooth="yes"/>
      <point x="211" y="158" type="line"/>
      <point x="211" y="44"/>
      <point x="274" y="-16"/>
    </contour>
    <contour>
      <point x="433" y="53" type="curve" smooth="yes"/>
      <point x="392" y="52"/>
      <point x="354" y="80"/>
      <point x="354" y="145" type="curve" smooth="yes"/>
      <point x="354" y="241" type="line"/>
      <point x="371" y="242"/>
      <point x="394" y="242"/>
      <point x="417" y="242" type="curve" smooth="yes"/>
      <point x="468" y="242"/>
      <point x="502" y="211"/>
      <point x="501" y="145" type="curve" smooth="yes"/>
      <point x="500" y="93"/>
      <point x="480" y="54"/>
    </contour>
  </outline>
</glyph>
<glyph name="iu-cy.loclBGR" format="2">
  <advance width="847"/>
  <outline>
    <contour>
      <point x="567" y="-16" type="curve" smooth="yes"/>
      <point x="713" y="-16"/>
      <point x="816" y="91"/>
      <point x="816" y="259" type="curve" smooth="yes"/>
      <point x="816" y="419"/>
      <point x="707" y="516"/>
      <point x="564" y="516" type="curve" smooth="yes"/>
      <point x="443" y="516"/>
      <point x="339" y="429"/>
      <point x="316" y="294" type="curve"/>
      <point x="226" y="294" type="line"/>
      <point x="226" y="755" type="line"/>
      <point x="171" y="755" type="line"/>
      <point x="158" y="742"/>
      <point x="110" y="725"/>
      <point x="18" y="725" type="curve"/>
      <point x="18" y="649" type="line"/>
      <point x="32" y="650"/>
      <point x="66" y="651"/>
      <point x="88" y="652" type="curve"/>
      <point x="85" y="623"/>
      <point x="84" y="589"/>
      <point x="84" y="565" type="curve" smooth="yes"/>
      <point x="84" y="154" type="line" smooth="yes"/>
      <point x="84" y="101"/>
      <point x="80" y="65"/>
      <point x="24" y="65" type="curve"/>
      <point x="24" y="0" type="line"/>
      <point x="287" y="0" type="line"/>
      <point x="287" y="76" type="line"/>
      <point x="272" y="76"/>
      <point x="243" y="75"/>
      <point x="222" y="73" type="curve"/>
      <point x="225" y="103"/>
      <point x="226" y="142"/>
      <point x="226" y="161" type="curve" smooth="yes"/>
      <point x="226" y="215" type="line"/>
      <point x="313" y="216" type="line"/>
      <point x="323" y="72"/>
      <point x="429" y="-16"/>
    </contour>
    <contour>
      <point x="571" y="55" type="curve" smooth="yes"/>
      <point x="489" y="53"/>
      <point x="459" y="164"/>
      <point x="459" y="266" type="curve" smooth="yes"/>
      <point x="459" y="353"/>
      <point x="484" y="444"/>
      <point x="562" y="446" type="curve" smooth="yes"/>
      <point x="643" y="448"/>
      <point x="668" y="333"/>
      <point x="668" y="234" type="curve" smooth="yes"/>
      <point x="668" y="149"/>
      <point x="650" y="56"/>
    </contour>
  </outline>
</glyph>
<glyph name="shcha-cy.loclBGR" format="2">
  <advance width="948"/>
  <outline>
    <contour>
      <point x="856" y="-183" type="curve"/>
      <point x="921" y="-183" type="line"/>
      <point x="921" y="78" type="line"/>
      <point x="819" y="73" type="line"/>
      <point x="822" y="103"/>
      <point x="823" y="142"/>
      <point x="823" y="161" type="curve" smooth="yes"/>
      <point x="823" y="510" type="line"/>
      <point x="768" y="510" type="line"/>
      <point x="754" y="497"/>
      <point x="707" y="480"/>
      <point x="614" y="480" type="curve"/>
      <point x="614" y="404" type="line"/>
      <point x="628" y="405"/>
      <point x="663" y="406"/>
      <point x="684" y="407" type="curve"/>
      <point x="682" y="377"/>
      <point x="681" y="344"/>
      <point x="681" y="320" type="curve" smooth="yes"/>
      <point x="681" y="124" type="line"/>
      <point x="660" y="98"/>
      <point x="625" y="76"/>
      <point x="595" y="76" type="curve" smooth="yes"/>
      <point x="550" y="77"/>
      <point x="524" y="103"/>
      <point x="524" y="190" type="curve"/>
      <point x="523" y="510" type="line"/>
      <point x="468" y="510" type="line"/>
      <point x="454" y="497"/>
      <point x="407" y="480"/>
      <point x="314" y="480" type="curve"/>
      <point x="314" y="404" type="line"/>
      <point x="328" y="405"/>
      <point x="363" y="406"/>
      <point x="384" y="407" type="curve"/>
      <point x="382" y="377"/>
      <point x="381" y="344"/>
      <point x="381" y="320" type="curve" smooth="yes"/>
      <point x="381" y="205" type="line" smooth="yes"/>
      <point x="381" y="175"/>
      <point x="384" y="148"/>
      <point x="388" y="124" type="curve"/>
      <point x="367" y="98"/>
      <point x="334" y="77"/>
      <point x="304" y="77" type="curve"/>
      <point x="259" y="79"/>
      <point x="224" y="106"/>
      <point x="224" y="193" type="curve" smooth="yes"/>
      <point x="224" y="510" type="line"/>
      <point x="169" y="510" type="line"/>
      <point x="155" y="497"/>
      <point x="108" y="480"/>
      <point x="15" y="480" type="curve"/>
      <point x="15" y="404" type="line"/>
      <point x="29" y="405"/>
      <point x="64" y="406"/>
      <point x="85" y="407" type="curve"/>
      <point x="83" y="377"/>
      <point x="82" y="344"/>
      <point x="82" y="320" type="curve" smooth="yes"/>
      <point x="82" y="192" type="line" smooth="yes"/>
      <point x="82" y="39"/>
      <point x="140" y="-16"/>
      <point x="248" y="-16" type="curve" smooth="yes"/>
      <point x="312" y="-16"/>
      <point x="369" y="17"/>
      <point x="409" y="52" type="curve"/>
      <point x="433" y="8"/>
      <point x="477" y="-16"/>
      <point x="538" y="-16" type="curve" smooth="yes"/>
      <point x="602" y="-16"/>
      <point x="647" y="17"/>
      <point x="688" y="52" type="curve"/>
      <point x="690" y="35"/>
      <point x="692" y="17"/>
      <point x="694" y="0" type="curve"/>
      <point x="775" y="0" type="line" smooth="yes"/>
      <point x="827" y="0"/>
      <point x="857" y="-49"/>
    </contour>
  </outline>
</glyph>
<glyph name="ze-cy.loclBGR" format="2">
  <advance width="520"/>
  <outline>
    <contour>
      <point x="238" y="-271" type="curve" smooth="yes"/>
      <point x="384" y="-271"/>
      <point x="488" y="-179"/>
      <point x="488" y="-32" type="curve" smooth="yes"/>
      <point x="488" y="77"/>
      <point x="415" y="157"/>
      <point x="311" y="180" type="curve"/>
      <point x="394" y="213"/>
      <point x="435" y="272"/>
      <point x="435" y="358" type="curve" smooth="yes"/>
      <point x="435" y="452"/>
      <point x="355" y="520"/>
      <point x="242" y="517" type="curve" smooth="yes"/>
      <point x="200" y="516"/>
      <point x="157" y="506"/>
      <point x="118" y="482" type="curve"/>
      <point x="118" y="511" type="line"/>
      <point x="42" y="511" type="line"/>
      <point x="42" y="334" type="line"/>
      <point x="106" y="334" type="line"/>
      <point x="118" y="430"/>
      <point x="177" y="453"/>
      <point x="216" y="453" type="curve" smooth="yes"/>
      <point x="260" y="453"/>
      <point x="307" y="424"/>
      <point x="307" y="345" type="curve" smooth="yes"/>
      <point x="307" y="258"/>
      <point x="252" y="210"/>
      <point x="193" y="202" type="curve"/>
      <point x="164" y="203"/>
      <point x="154" y="202"/>
      <point x="138" y="202" type="curve"/>
      <point x="138" y="130" type="line"/>
      <point x="150" y="131"/>
      <point x="170" y="133"/>
      <point x="200" y="133" type="curve" smooth="yes"/>
      <point x="305" y="133"/>
      <point x="342" y="49"/>
      <point x="342" y="-39" type="curve" smooth="yes"/>
      <point x="342" y="-144"/>
      <point x="296" y="-200"/>
      <point x="224" y="-198" type="curve" smooth="yes"/>
      <point x="179" y="-197"/>
      <point x="143" y="-181"/>
      <point x="129" y="-153" type="curve"/>
      <point x="140" y="-139"/>
      <point x="143" y="-125"/>
      <point x="143" y="-112" type="curve" smooth="yes"/>
      <point x="143" y="-86"/>
      <point x="128" y="-47"/>
      <point x="78" y="-48" type="curve" smooth="yes"/>
      <point x="37" y="-49"/>
      <point x="10" y="-84"/>
      <point x="10" y="-124" type="curve" smooth="yes"/>
      <point x="10" y="-193"/>
      <point x="85" y="-271"/>
    </contour>
  </outline>
</glyph>
